G04 #@! TF.GenerationSoftware,KiCad,Pcbnew,5.1.5+dfsg1-2build2*
G04 #@! TF.CreationDate,2022-11-08T07:02:07+00:00*
G04 #@! TF.ProjectId,link-up-serial,6c696e6b-2d75-4702-9d73-657269616c2e,rev?*
G04 #@! TF.SameCoordinates,Original*
G04 #@! TF.FileFunction,Legend,Top*
G04 #@! TF.FilePolarity,Positive*
%FSLAX46Y46*%
G04 Gerber Fmt 4.6, Leading zero omitted, Abs format (unit mm)*
G04 Created by KiCad (PCBNEW 5.1.5+dfsg1-2build2) date 2022-11-08 07:02:07*
%MOMM*%
%LPD*%
G04 APERTURE LIST*
%ADD10C,0.120000*%
%ADD11C,0.150000*%
G04 APERTURE END LIST*
D10*
X132394000Y-109838000D02*
X132394000Y-108188000D01*
X111954000Y-109838000D02*
X132394000Y-109838000D01*
X111954000Y-104538000D02*
X111954000Y-109838000D01*
X132394000Y-104538000D02*
X111954000Y-104538000D01*
X132394000Y-106188000D02*
X132394000Y-104538000D01*
X132394000Y-108188000D02*
G75*
G02X132394000Y-106188000I0J1000000D01*
G01*
X104438000Y-115137000D02*
X102788000Y-115137000D01*
X104438000Y-114877000D02*
X104438000Y-115137000D01*
X107188000Y-114877000D02*
X104438000Y-114877000D01*
X109938000Y-114877000D02*
X109938000Y-115137000D01*
X107188000Y-114877000D02*
X109938000Y-114877000D01*
X104438000Y-120327000D02*
X104438000Y-120067000D01*
X107188000Y-120327000D02*
X104438000Y-120327000D01*
X109938000Y-120327000D02*
X109938000Y-120067000D01*
X107188000Y-120327000D02*
X109938000Y-120327000D01*
X132140000Y-119998000D02*
X132140000Y-118348000D01*
X114240000Y-119998000D02*
X132140000Y-119998000D01*
X114240000Y-114698000D02*
X114240000Y-119998000D01*
X132140000Y-114698000D02*
X114240000Y-114698000D01*
X132140000Y-116348000D02*
X132140000Y-114698000D01*
X132140000Y-118348000D02*
G75*
G02X132140000Y-116348000I0J1000000D01*
G01*
X102716064Y-105310000D02*
X102261936Y-105310000D01*
X102716064Y-106780000D02*
X102261936Y-106780000D01*
X106653064Y-112295000D02*
X106198936Y-112295000D01*
X106653064Y-113765000D02*
X106198936Y-113765000D01*
X107161064Y-103151000D02*
X106706936Y-103151000D01*
X107161064Y-104621000D02*
X106706936Y-104621000D01*
X107161064Y-105437000D02*
X106706936Y-105437000D01*
X107161064Y-106907000D02*
X106706936Y-106907000D01*
X97476000Y-103826000D02*
X98806000Y-103826000D01*
X97476000Y-105156000D02*
X97476000Y-103826000D01*
X97476000Y-106426000D02*
X100136000Y-106426000D01*
X100136000Y-106426000D02*
X100136000Y-119186000D01*
X97476000Y-106426000D02*
X97476000Y-119186000D01*
X97476000Y-119186000D02*
X100136000Y-119186000D01*
X97650000Y-122670000D02*
X96380000Y-122670000D01*
X97650000Y-121400000D02*
X97650000Y-122670000D01*
X92342929Y-121780000D02*
X92797071Y-121780000D01*
X92342929Y-121020000D02*
X92797071Y-121020000D01*
X92797071Y-103240000D02*
X92400000Y-103240000D01*
X92797071Y-104000000D02*
X92400000Y-104000000D01*
X83740000Y-103240000D02*
X89740000Y-103240000D01*
X83740000Y-104000000D02*
X83740000Y-103240000D01*
X89740000Y-104000000D02*
X83740000Y-104000000D01*
X92400000Y-104890000D02*
X89740000Y-104890000D01*
X92342929Y-119240000D02*
X92797071Y-119240000D01*
X92342929Y-118480000D02*
X92797071Y-118480000D01*
X92797071Y-105780000D02*
X92400000Y-105780000D01*
X92797071Y-106540000D02*
X92400000Y-106540000D01*
X83740000Y-105780000D02*
X89740000Y-105780000D01*
X83740000Y-106540000D02*
X83740000Y-105780000D01*
X89740000Y-106540000D02*
X83740000Y-106540000D01*
X92400000Y-107430000D02*
X89740000Y-107430000D01*
X92342929Y-116700000D02*
X92797071Y-116700000D01*
X92342929Y-115940000D02*
X92797071Y-115940000D01*
X92797071Y-108320000D02*
X92400000Y-108320000D01*
X92797071Y-109080000D02*
X92400000Y-109080000D01*
X83740000Y-108320000D02*
X89740000Y-108320000D01*
X83740000Y-109080000D02*
X83740000Y-108320000D01*
X89740000Y-109080000D02*
X83740000Y-109080000D01*
X92400000Y-109970000D02*
X89740000Y-109970000D01*
X92342929Y-114160000D02*
X92797071Y-114160000D01*
X92342929Y-113400000D02*
X92797071Y-113400000D01*
X92797071Y-110860000D02*
X92400000Y-110860000D01*
X92797071Y-111620000D02*
X92400000Y-111620000D01*
X83740000Y-110860000D02*
X89740000Y-110860000D01*
X83740000Y-111620000D02*
X83740000Y-110860000D01*
X89740000Y-111620000D02*
X83740000Y-111620000D01*
X92400000Y-112510000D02*
X89740000Y-112510000D01*
X92342929Y-111620000D02*
X92797071Y-111620000D01*
X92342929Y-110860000D02*
X92797071Y-110860000D01*
X92797071Y-113400000D02*
X92400000Y-113400000D01*
X92797071Y-114160000D02*
X92400000Y-114160000D01*
X83740000Y-113400000D02*
X89740000Y-113400000D01*
X83740000Y-114160000D02*
X83740000Y-113400000D01*
X89740000Y-114160000D02*
X83740000Y-114160000D01*
X92400000Y-115050000D02*
X89740000Y-115050000D01*
X92342929Y-109080000D02*
X92797071Y-109080000D01*
X92342929Y-108320000D02*
X92797071Y-108320000D01*
X92797071Y-115940000D02*
X92400000Y-115940000D01*
X92797071Y-116700000D02*
X92400000Y-116700000D01*
X83740000Y-115940000D02*
X89740000Y-115940000D01*
X83740000Y-116700000D02*
X83740000Y-115940000D01*
X89740000Y-116700000D02*
X83740000Y-116700000D01*
X92400000Y-117590000D02*
X89740000Y-117590000D01*
X92342929Y-106540000D02*
X92797071Y-106540000D01*
X92342929Y-105780000D02*
X92797071Y-105780000D01*
X92797071Y-118480000D02*
X92400000Y-118480000D01*
X92797071Y-119240000D02*
X92400000Y-119240000D01*
X83740000Y-118480000D02*
X89740000Y-118480000D01*
X83740000Y-119240000D02*
X83740000Y-118480000D01*
X89740000Y-119240000D02*
X83740000Y-119240000D01*
X92400000Y-120130000D02*
X89740000Y-120130000D01*
X92410000Y-104000000D02*
X92797071Y-104000000D01*
X92410000Y-103240000D02*
X92797071Y-103240000D01*
X92797071Y-121020000D02*
X92400000Y-121020000D01*
X92797071Y-121780000D02*
X92400000Y-121780000D01*
X89740000Y-121120000D02*
X83740000Y-121120000D01*
X89740000Y-121240000D02*
X83740000Y-121240000D01*
X89740000Y-121360000D02*
X83740000Y-121360000D01*
X89740000Y-121480000D02*
X83740000Y-121480000D01*
X89740000Y-121600000D02*
X83740000Y-121600000D01*
X89740000Y-121720000D02*
X83740000Y-121720000D01*
X83740000Y-121020000D02*
X89740000Y-121020000D01*
X83740000Y-121780000D02*
X83740000Y-121020000D01*
X89740000Y-121780000D02*
X83740000Y-121780000D01*
X89740000Y-122730000D02*
X92400000Y-122730000D01*
X89740000Y-102290000D02*
X89740000Y-122730000D01*
X92400000Y-102290000D02*
X89740000Y-102290000D01*
X92400000Y-122730000D02*
X92400000Y-102290000D01*
X104132748Y-109193000D02*
X104655252Y-109193000D01*
X104132748Y-107723000D02*
X104655252Y-107723000D01*
D11*
X110868666Y-104038333D02*
X111435333Y-104038333D01*
X111502000Y-104005000D01*
X111535333Y-103971666D01*
X111568666Y-103905000D01*
X111568666Y-103771666D01*
X111535333Y-103705000D01*
X111502000Y-103671666D01*
X111435333Y-103638333D01*
X110868666Y-103638333D01*
X111102000Y-103005000D02*
X111568666Y-103005000D01*
X110835333Y-103171666D02*
X111335333Y-103338333D01*
X111335333Y-102905000D01*
X100939666Y-118996666D02*
X100939666Y-119563333D01*
X100973000Y-119630000D01*
X101006333Y-119663333D01*
X101073000Y-119696666D01*
X101206333Y-119696666D01*
X101273000Y-119663333D01*
X101306333Y-119630000D01*
X101339666Y-119563333D01*
X101339666Y-118996666D01*
X101606333Y-118996666D02*
X102039666Y-118996666D01*
X101806333Y-119263333D01*
X101906333Y-119263333D01*
X101973000Y-119296666D01*
X102006333Y-119330000D01*
X102039666Y-119396666D01*
X102039666Y-119563333D01*
X102006333Y-119630000D01*
X101973000Y-119663333D01*
X101906333Y-119696666D01*
X101706333Y-119696666D01*
X101639666Y-119663333D01*
X101606333Y-119630000D01*
X113408666Y-122199333D02*
X113975333Y-122199333D01*
X114042000Y-122166000D01*
X114075333Y-122132666D01*
X114108666Y-122066000D01*
X114108666Y-121932666D01*
X114075333Y-121866000D01*
X114042000Y-121832666D01*
X113975333Y-121799333D01*
X113408666Y-121799333D01*
X114108666Y-121099333D02*
X114108666Y-121499333D01*
X114108666Y-121299333D02*
X113408666Y-121299333D01*
X113508666Y-121366000D01*
X113575333Y-121432666D01*
X113608666Y-121499333D01*
X101102333Y-104837666D02*
X100869000Y-104504333D01*
X100702333Y-104837666D02*
X100702333Y-104137666D01*
X100969000Y-104137666D01*
X101035666Y-104171000D01*
X101069000Y-104204333D01*
X101102333Y-104271000D01*
X101102333Y-104371000D01*
X101069000Y-104437666D01*
X101035666Y-104471000D01*
X100969000Y-104504333D01*
X100702333Y-104504333D01*
X101335666Y-104137666D02*
X101802333Y-104137666D01*
X101502333Y-104837666D01*
X103769333Y-113473666D02*
X103536000Y-113140333D01*
X103369333Y-113473666D02*
X103369333Y-112773666D01*
X103636000Y-112773666D01*
X103702666Y-112807000D01*
X103736000Y-112840333D01*
X103769333Y-112907000D01*
X103769333Y-113007000D01*
X103736000Y-113073666D01*
X103702666Y-113107000D01*
X103636000Y-113140333D01*
X103369333Y-113140333D01*
X104369333Y-113007000D02*
X104369333Y-113473666D01*
X104202666Y-112740333D02*
X104036000Y-113240333D01*
X104469333Y-113240333D01*
X104150333Y-103694666D02*
X103917000Y-103361333D01*
X103750333Y-103694666D02*
X103750333Y-102994666D01*
X104017000Y-102994666D01*
X104083666Y-103028000D01*
X104117000Y-103061333D01*
X104150333Y-103128000D01*
X104150333Y-103228000D01*
X104117000Y-103294666D01*
X104083666Y-103328000D01*
X104017000Y-103361333D01*
X103750333Y-103361333D01*
X104383666Y-102994666D02*
X104817000Y-102994666D01*
X104583666Y-103261333D01*
X104683666Y-103261333D01*
X104750333Y-103294666D01*
X104783666Y-103328000D01*
X104817000Y-103394666D01*
X104817000Y-103561333D01*
X104783666Y-103628000D01*
X104750333Y-103661333D01*
X104683666Y-103694666D01*
X104483666Y-103694666D01*
X104417000Y-103661333D01*
X104383666Y-103628000D01*
X108341333Y-108266666D02*
X108108000Y-107933333D01*
X107941333Y-108266666D02*
X107941333Y-107566666D01*
X108208000Y-107566666D01*
X108274666Y-107600000D01*
X108308000Y-107633333D01*
X108341333Y-107700000D01*
X108341333Y-107800000D01*
X108308000Y-107866666D01*
X108274666Y-107900000D01*
X108208000Y-107933333D01*
X107941333Y-107933333D01*
X109008000Y-108266666D02*
X108608000Y-108266666D01*
X108808000Y-108266666D02*
X108808000Y-107566666D01*
X108741333Y-107666666D01*
X108674666Y-107733333D01*
X108608000Y-107766666D01*
X98572666Y-102442666D02*
X98572666Y-102942666D01*
X98539333Y-103042666D01*
X98472666Y-103109333D01*
X98372666Y-103142666D01*
X98306000Y-103142666D01*
X98872666Y-102509333D02*
X98906000Y-102476000D01*
X98972666Y-102442666D01*
X99139333Y-102442666D01*
X99206000Y-102476000D01*
X99239333Y-102509333D01*
X99272666Y-102576000D01*
X99272666Y-102642666D01*
X99239333Y-102742666D01*
X98839333Y-103142666D01*
X99272666Y-103142666D01*
X92095666Y-121790666D02*
X92095666Y-122290666D01*
X92062333Y-122390666D01*
X91995666Y-122457333D01*
X91895666Y-122490666D01*
X91829000Y-122490666D01*
X92795666Y-122490666D02*
X92395666Y-122490666D01*
X92595666Y-122490666D02*
X92595666Y-121790666D01*
X92529000Y-121890666D01*
X92462333Y-121957333D01*
X92395666Y-121990666D01*
X103388333Y-110359000D02*
X103355000Y-110392333D01*
X103255000Y-110425666D01*
X103188333Y-110425666D01*
X103088333Y-110392333D01*
X103021666Y-110325666D01*
X102988333Y-110259000D01*
X102955000Y-110125666D01*
X102955000Y-110025666D01*
X102988333Y-109892333D01*
X103021666Y-109825666D01*
X103088333Y-109759000D01*
X103188333Y-109725666D01*
X103255000Y-109725666D01*
X103355000Y-109759000D01*
X103388333Y-109792333D01*
X103988333Y-109959000D02*
X103988333Y-110425666D01*
X103821666Y-109692333D02*
X103655000Y-110192333D01*
X104088333Y-110192333D01*
M02*
