G04 #@! TF.GenerationSoftware,KiCad,Pcbnew,5.1.5+dfsg1-2build2*
G04 #@! TF.CreationDate,2022-11-08T07:02:07+00:00*
G04 #@! TF.ProjectId,link-up-serial,6c696e6b-2d75-4702-9d73-657269616c2e,rev?*
G04 #@! TF.SameCoordinates,Original*
G04 #@! TF.FileFunction,Copper,L1,Top*
G04 #@! TF.FilePolarity,Positive*
%FSLAX46Y46*%
G04 Gerber Fmt 4.6, Leading zero omitted, Abs format (unit mm)*
G04 Created by KiCad (PCBNEW 5.1.5+dfsg1-2build2) date 2022-11-08 07:02:07*
%MOMM*%
%LPD*%
G04 APERTURE LIST*
%ADD10O,1.600000X1.600000*%
%ADD11R,1.600000X1.600000*%
%ADD12C,0.100000*%
%ADD13O,1.700000X1.700000*%
%ADD14R,1.700000X1.700000*%
%ADD15C,0.800000*%
%ADD16C,0.250000*%
G04 APERTURE END LIST*
D10*
X131064000Y-110998000D03*
X113284000Y-103378000D03*
X128524000Y-110998000D03*
X115824000Y-103378000D03*
X125984000Y-110998000D03*
X118364000Y-103378000D03*
X123444000Y-110998000D03*
X120904000Y-103378000D03*
X120904000Y-110998000D03*
X123444000Y-103378000D03*
X118364000Y-110998000D03*
X125984000Y-103378000D03*
X115824000Y-110998000D03*
X128524000Y-103378000D03*
X113284000Y-110998000D03*
D11*
X131064000Y-103378000D03*
G04 #@! TA.AperFunction,SMDPad,CuDef*
D12*
G36*
X111452703Y-115397722D02*
G01*
X111467264Y-115399882D01*
X111481543Y-115403459D01*
X111495403Y-115408418D01*
X111508710Y-115414712D01*
X111521336Y-115422280D01*
X111533159Y-115431048D01*
X111544066Y-115440934D01*
X111553952Y-115451841D01*
X111562720Y-115463664D01*
X111570288Y-115476290D01*
X111576582Y-115489597D01*
X111581541Y-115503457D01*
X111585118Y-115517736D01*
X111587278Y-115532297D01*
X111588000Y-115547000D01*
X111588000Y-115847000D01*
X111587278Y-115861703D01*
X111585118Y-115876264D01*
X111581541Y-115890543D01*
X111576582Y-115904403D01*
X111570288Y-115917710D01*
X111562720Y-115930336D01*
X111553952Y-115942159D01*
X111544066Y-115953066D01*
X111533159Y-115962952D01*
X111521336Y-115971720D01*
X111508710Y-115979288D01*
X111495403Y-115985582D01*
X111481543Y-115990541D01*
X111467264Y-115994118D01*
X111452703Y-115996278D01*
X111438000Y-115997000D01*
X110138000Y-115997000D01*
X110123297Y-115996278D01*
X110108736Y-115994118D01*
X110094457Y-115990541D01*
X110080597Y-115985582D01*
X110067290Y-115979288D01*
X110054664Y-115971720D01*
X110042841Y-115962952D01*
X110031934Y-115953066D01*
X110022048Y-115942159D01*
X110013280Y-115930336D01*
X110005712Y-115917710D01*
X109999418Y-115904403D01*
X109994459Y-115890543D01*
X109990882Y-115876264D01*
X109988722Y-115861703D01*
X109988000Y-115847000D01*
X109988000Y-115547000D01*
X109988722Y-115532297D01*
X109990882Y-115517736D01*
X109994459Y-115503457D01*
X109999418Y-115489597D01*
X110005712Y-115476290D01*
X110013280Y-115463664D01*
X110022048Y-115451841D01*
X110031934Y-115440934D01*
X110042841Y-115431048D01*
X110054664Y-115422280D01*
X110067290Y-115414712D01*
X110080597Y-115408418D01*
X110094457Y-115403459D01*
X110108736Y-115399882D01*
X110123297Y-115397722D01*
X110138000Y-115397000D01*
X111438000Y-115397000D01*
X111452703Y-115397722D01*
G37*
G04 #@! TD.AperFunction*
G04 #@! TA.AperFunction,SMDPad,CuDef*
G36*
X111452703Y-116667722D02*
G01*
X111467264Y-116669882D01*
X111481543Y-116673459D01*
X111495403Y-116678418D01*
X111508710Y-116684712D01*
X111521336Y-116692280D01*
X111533159Y-116701048D01*
X111544066Y-116710934D01*
X111553952Y-116721841D01*
X111562720Y-116733664D01*
X111570288Y-116746290D01*
X111576582Y-116759597D01*
X111581541Y-116773457D01*
X111585118Y-116787736D01*
X111587278Y-116802297D01*
X111588000Y-116817000D01*
X111588000Y-117117000D01*
X111587278Y-117131703D01*
X111585118Y-117146264D01*
X111581541Y-117160543D01*
X111576582Y-117174403D01*
X111570288Y-117187710D01*
X111562720Y-117200336D01*
X111553952Y-117212159D01*
X111544066Y-117223066D01*
X111533159Y-117232952D01*
X111521336Y-117241720D01*
X111508710Y-117249288D01*
X111495403Y-117255582D01*
X111481543Y-117260541D01*
X111467264Y-117264118D01*
X111452703Y-117266278D01*
X111438000Y-117267000D01*
X110138000Y-117267000D01*
X110123297Y-117266278D01*
X110108736Y-117264118D01*
X110094457Y-117260541D01*
X110080597Y-117255582D01*
X110067290Y-117249288D01*
X110054664Y-117241720D01*
X110042841Y-117232952D01*
X110031934Y-117223066D01*
X110022048Y-117212159D01*
X110013280Y-117200336D01*
X110005712Y-117187710D01*
X109999418Y-117174403D01*
X109994459Y-117160543D01*
X109990882Y-117146264D01*
X109988722Y-117131703D01*
X109988000Y-117117000D01*
X109988000Y-116817000D01*
X109988722Y-116802297D01*
X109990882Y-116787736D01*
X109994459Y-116773457D01*
X109999418Y-116759597D01*
X110005712Y-116746290D01*
X110013280Y-116733664D01*
X110022048Y-116721841D01*
X110031934Y-116710934D01*
X110042841Y-116701048D01*
X110054664Y-116692280D01*
X110067290Y-116684712D01*
X110080597Y-116678418D01*
X110094457Y-116673459D01*
X110108736Y-116669882D01*
X110123297Y-116667722D01*
X110138000Y-116667000D01*
X111438000Y-116667000D01*
X111452703Y-116667722D01*
G37*
G04 #@! TD.AperFunction*
G04 #@! TA.AperFunction,SMDPad,CuDef*
G36*
X111452703Y-117937722D02*
G01*
X111467264Y-117939882D01*
X111481543Y-117943459D01*
X111495403Y-117948418D01*
X111508710Y-117954712D01*
X111521336Y-117962280D01*
X111533159Y-117971048D01*
X111544066Y-117980934D01*
X111553952Y-117991841D01*
X111562720Y-118003664D01*
X111570288Y-118016290D01*
X111576582Y-118029597D01*
X111581541Y-118043457D01*
X111585118Y-118057736D01*
X111587278Y-118072297D01*
X111588000Y-118087000D01*
X111588000Y-118387000D01*
X111587278Y-118401703D01*
X111585118Y-118416264D01*
X111581541Y-118430543D01*
X111576582Y-118444403D01*
X111570288Y-118457710D01*
X111562720Y-118470336D01*
X111553952Y-118482159D01*
X111544066Y-118493066D01*
X111533159Y-118502952D01*
X111521336Y-118511720D01*
X111508710Y-118519288D01*
X111495403Y-118525582D01*
X111481543Y-118530541D01*
X111467264Y-118534118D01*
X111452703Y-118536278D01*
X111438000Y-118537000D01*
X110138000Y-118537000D01*
X110123297Y-118536278D01*
X110108736Y-118534118D01*
X110094457Y-118530541D01*
X110080597Y-118525582D01*
X110067290Y-118519288D01*
X110054664Y-118511720D01*
X110042841Y-118502952D01*
X110031934Y-118493066D01*
X110022048Y-118482159D01*
X110013280Y-118470336D01*
X110005712Y-118457710D01*
X109999418Y-118444403D01*
X109994459Y-118430543D01*
X109990882Y-118416264D01*
X109988722Y-118401703D01*
X109988000Y-118387000D01*
X109988000Y-118087000D01*
X109988722Y-118072297D01*
X109990882Y-118057736D01*
X109994459Y-118043457D01*
X109999418Y-118029597D01*
X110005712Y-118016290D01*
X110013280Y-118003664D01*
X110022048Y-117991841D01*
X110031934Y-117980934D01*
X110042841Y-117971048D01*
X110054664Y-117962280D01*
X110067290Y-117954712D01*
X110080597Y-117948418D01*
X110094457Y-117943459D01*
X110108736Y-117939882D01*
X110123297Y-117937722D01*
X110138000Y-117937000D01*
X111438000Y-117937000D01*
X111452703Y-117937722D01*
G37*
G04 #@! TD.AperFunction*
G04 #@! TA.AperFunction,SMDPad,CuDef*
G36*
X111452703Y-119207722D02*
G01*
X111467264Y-119209882D01*
X111481543Y-119213459D01*
X111495403Y-119218418D01*
X111508710Y-119224712D01*
X111521336Y-119232280D01*
X111533159Y-119241048D01*
X111544066Y-119250934D01*
X111553952Y-119261841D01*
X111562720Y-119273664D01*
X111570288Y-119286290D01*
X111576582Y-119299597D01*
X111581541Y-119313457D01*
X111585118Y-119327736D01*
X111587278Y-119342297D01*
X111588000Y-119357000D01*
X111588000Y-119657000D01*
X111587278Y-119671703D01*
X111585118Y-119686264D01*
X111581541Y-119700543D01*
X111576582Y-119714403D01*
X111570288Y-119727710D01*
X111562720Y-119740336D01*
X111553952Y-119752159D01*
X111544066Y-119763066D01*
X111533159Y-119772952D01*
X111521336Y-119781720D01*
X111508710Y-119789288D01*
X111495403Y-119795582D01*
X111481543Y-119800541D01*
X111467264Y-119804118D01*
X111452703Y-119806278D01*
X111438000Y-119807000D01*
X110138000Y-119807000D01*
X110123297Y-119806278D01*
X110108736Y-119804118D01*
X110094457Y-119800541D01*
X110080597Y-119795582D01*
X110067290Y-119789288D01*
X110054664Y-119781720D01*
X110042841Y-119772952D01*
X110031934Y-119763066D01*
X110022048Y-119752159D01*
X110013280Y-119740336D01*
X110005712Y-119727710D01*
X109999418Y-119714403D01*
X109994459Y-119700543D01*
X109990882Y-119686264D01*
X109988722Y-119671703D01*
X109988000Y-119657000D01*
X109988000Y-119357000D01*
X109988722Y-119342297D01*
X109990882Y-119327736D01*
X109994459Y-119313457D01*
X109999418Y-119299597D01*
X110005712Y-119286290D01*
X110013280Y-119273664D01*
X110022048Y-119261841D01*
X110031934Y-119250934D01*
X110042841Y-119241048D01*
X110054664Y-119232280D01*
X110067290Y-119224712D01*
X110080597Y-119218418D01*
X110094457Y-119213459D01*
X110108736Y-119209882D01*
X110123297Y-119207722D01*
X110138000Y-119207000D01*
X111438000Y-119207000D01*
X111452703Y-119207722D01*
G37*
G04 #@! TD.AperFunction*
G04 #@! TA.AperFunction,SMDPad,CuDef*
G36*
X104252703Y-119207722D02*
G01*
X104267264Y-119209882D01*
X104281543Y-119213459D01*
X104295403Y-119218418D01*
X104308710Y-119224712D01*
X104321336Y-119232280D01*
X104333159Y-119241048D01*
X104344066Y-119250934D01*
X104353952Y-119261841D01*
X104362720Y-119273664D01*
X104370288Y-119286290D01*
X104376582Y-119299597D01*
X104381541Y-119313457D01*
X104385118Y-119327736D01*
X104387278Y-119342297D01*
X104388000Y-119357000D01*
X104388000Y-119657000D01*
X104387278Y-119671703D01*
X104385118Y-119686264D01*
X104381541Y-119700543D01*
X104376582Y-119714403D01*
X104370288Y-119727710D01*
X104362720Y-119740336D01*
X104353952Y-119752159D01*
X104344066Y-119763066D01*
X104333159Y-119772952D01*
X104321336Y-119781720D01*
X104308710Y-119789288D01*
X104295403Y-119795582D01*
X104281543Y-119800541D01*
X104267264Y-119804118D01*
X104252703Y-119806278D01*
X104238000Y-119807000D01*
X102938000Y-119807000D01*
X102923297Y-119806278D01*
X102908736Y-119804118D01*
X102894457Y-119800541D01*
X102880597Y-119795582D01*
X102867290Y-119789288D01*
X102854664Y-119781720D01*
X102842841Y-119772952D01*
X102831934Y-119763066D01*
X102822048Y-119752159D01*
X102813280Y-119740336D01*
X102805712Y-119727710D01*
X102799418Y-119714403D01*
X102794459Y-119700543D01*
X102790882Y-119686264D01*
X102788722Y-119671703D01*
X102788000Y-119657000D01*
X102788000Y-119357000D01*
X102788722Y-119342297D01*
X102790882Y-119327736D01*
X102794459Y-119313457D01*
X102799418Y-119299597D01*
X102805712Y-119286290D01*
X102813280Y-119273664D01*
X102822048Y-119261841D01*
X102831934Y-119250934D01*
X102842841Y-119241048D01*
X102854664Y-119232280D01*
X102867290Y-119224712D01*
X102880597Y-119218418D01*
X102894457Y-119213459D01*
X102908736Y-119209882D01*
X102923297Y-119207722D01*
X102938000Y-119207000D01*
X104238000Y-119207000D01*
X104252703Y-119207722D01*
G37*
G04 #@! TD.AperFunction*
G04 #@! TA.AperFunction,SMDPad,CuDef*
G36*
X104252703Y-117937722D02*
G01*
X104267264Y-117939882D01*
X104281543Y-117943459D01*
X104295403Y-117948418D01*
X104308710Y-117954712D01*
X104321336Y-117962280D01*
X104333159Y-117971048D01*
X104344066Y-117980934D01*
X104353952Y-117991841D01*
X104362720Y-118003664D01*
X104370288Y-118016290D01*
X104376582Y-118029597D01*
X104381541Y-118043457D01*
X104385118Y-118057736D01*
X104387278Y-118072297D01*
X104388000Y-118087000D01*
X104388000Y-118387000D01*
X104387278Y-118401703D01*
X104385118Y-118416264D01*
X104381541Y-118430543D01*
X104376582Y-118444403D01*
X104370288Y-118457710D01*
X104362720Y-118470336D01*
X104353952Y-118482159D01*
X104344066Y-118493066D01*
X104333159Y-118502952D01*
X104321336Y-118511720D01*
X104308710Y-118519288D01*
X104295403Y-118525582D01*
X104281543Y-118530541D01*
X104267264Y-118534118D01*
X104252703Y-118536278D01*
X104238000Y-118537000D01*
X102938000Y-118537000D01*
X102923297Y-118536278D01*
X102908736Y-118534118D01*
X102894457Y-118530541D01*
X102880597Y-118525582D01*
X102867290Y-118519288D01*
X102854664Y-118511720D01*
X102842841Y-118502952D01*
X102831934Y-118493066D01*
X102822048Y-118482159D01*
X102813280Y-118470336D01*
X102805712Y-118457710D01*
X102799418Y-118444403D01*
X102794459Y-118430543D01*
X102790882Y-118416264D01*
X102788722Y-118401703D01*
X102788000Y-118387000D01*
X102788000Y-118087000D01*
X102788722Y-118072297D01*
X102790882Y-118057736D01*
X102794459Y-118043457D01*
X102799418Y-118029597D01*
X102805712Y-118016290D01*
X102813280Y-118003664D01*
X102822048Y-117991841D01*
X102831934Y-117980934D01*
X102842841Y-117971048D01*
X102854664Y-117962280D01*
X102867290Y-117954712D01*
X102880597Y-117948418D01*
X102894457Y-117943459D01*
X102908736Y-117939882D01*
X102923297Y-117937722D01*
X102938000Y-117937000D01*
X104238000Y-117937000D01*
X104252703Y-117937722D01*
G37*
G04 #@! TD.AperFunction*
G04 #@! TA.AperFunction,SMDPad,CuDef*
G36*
X104252703Y-116667722D02*
G01*
X104267264Y-116669882D01*
X104281543Y-116673459D01*
X104295403Y-116678418D01*
X104308710Y-116684712D01*
X104321336Y-116692280D01*
X104333159Y-116701048D01*
X104344066Y-116710934D01*
X104353952Y-116721841D01*
X104362720Y-116733664D01*
X104370288Y-116746290D01*
X104376582Y-116759597D01*
X104381541Y-116773457D01*
X104385118Y-116787736D01*
X104387278Y-116802297D01*
X104388000Y-116817000D01*
X104388000Y-117117000D01*
X104387278Y-117131703D01*
X104385118Y-117146264D01*
X104381541Y-117160543D01*
X104376582Y-117174403D01*
X104370288Y-117187710D01*
X104362720Y-117200336D01*
X104353952Y-117212159D01*
X104344066Y-117223066D01*
X104333159Y-117232952D01*
X104321336Y-117241720D01*
X104308710Y-117249288D01*
X104295403Y-117255582D01*
X104281543Y-117260541D01*
X104267264Y-117264118D01*
X104252703Y-117266278D01*
X104238000Y-117267000D01*
X102938000Y-117267000D01*
X102923297Y-117266278D01*
X102908736Y-117264118D01*
X102894457Y-117260541D01*
X102880597Y-117255582D01*
X102867290Y-117249288D01*
X102854664Y-117241720D01*
X102842841Y-117232952D01*
X102831934Y-117223066D01*
X102822048Y-117212159D01*
X102813280Y-117200336D01*
X102805712Y-117187710D01*
X102799418Y-117174403D01*
X102794459Y-117160543D01*
X102790882Y-117146264D01*
X102788722Y-117131703D01*
X102788000Y-117117000D01*
X102788000Y-116817000D01*
X102788722Y-116802297D01*
X102790882Y-116787736D01*
X102794459Y-116773457D01*
X102799418Y-116759597D01*
X102805712Y-116746290D01*
X102813280Y-116733664D01*
X102822048Y-116721841D01*
X102831934Y-116710934D01*
X102842841Y-116701048D01*
X102854664Y-116692280D01*
X102867290Y-116684712D01*
X102880597Y-116678418D01*
X102894457Y-116673459D01*
X102908736Y-116669882D01*
X102923297Y-116667722D01*
X102938000Y-116667000D01*
X104238000Y-116667000D01*
X104252703Y-116667722D01*
G37*
G04 #@! TD.AperFunction*
G04 #@! TA.AperFunction,SMDPad,CuDef*
G36*
X104252703Y-115397722D02*
G01*
X104267264Y-115399882D01*
X104281543Y-115403459D01*
X104295403Y-115408418D01*
X104308710Y-115414712D01*
X104321336Y-115422280D01*
X104333159Y-115431048D01*
X104344066Y-115440934D01*
X104353952Y-115451841D01*
X104362720Y-115463664D01*
X104370288Y-115476290D01*
X104376582Y-115489597D01*
X104381541Y-115503457D01*
X104385118Y-115517736D01*
X104387278Y-115532297D01*
X104388000Y-115547000D01*
X104388000Y-115847000D01*
X104387278Y-115861703D01*
X104385118Y-115876264D01*
X104381541Y-115890543D01*
X104376582Y-115904403D01*
X104370288Y-115917710D01*
X104362720Y-115930336D01*
X104353952Y-115942159D01*
X104344066Y-115953066D01*
X104333159Y-115962952D01*
X104321336Y-115971720D01*
X104308710Y-115979288D01*
X104295403Y-115985582D01*
X104281543Y-115990541D01*
X104267264Y-115994118D01*
X104252703Y-115996278D01*
X104238000Y-115997000D01*
X102938000Y-115997000D01*
X102923297Y-115996278D01*
X102908736Y-115994118D01*
X102894457Y-115990541D01*
X102880597Y-115985582D01*
X102867290Y-115979288D01*
X102854664Y-115971720D01*
X102842841Y-115962952D01*
X102831934Y-115953066D01*
X102822048Y-115942159D01*
X102813280Y-115930336D01*
X102805712Y-115917710D01*
X102799418Y-115904403D01*
X102794459Y-115890543D01*
X102790882Y-115876264D01*
X102788722Y-115861703D01*
X102788000Y-115847000D01*
X102788000Y-115547000D01*
X102788722Y-115532297D01*
X102790882Y-115517736D01*
X102794459Y-115503457D01*
X102799418Y-115489597D01*
X102805712Y-115476290D01*
X102813280Y-115463664D01*
X102822048Y-115451841D01*
X102831934Y-115440934D01*
X102842841Y-115431048D01*
X102854664Y-115422280D01*
X102867290Y-115414712D01*
X102880597Y-115408418D01*
X102894457Y-115403459D01*
X102908736Y-115399882D01*
X102923297Y-115397722D01*
X102938000Y-115397000D01*
X104238000Y-115397000D01*
X104252703Y-115397722D01*
G37*
G04 #@! TD.AperFunction*
D10*
X130810000Y-121158000D03*
X115570000Y-113538000D03*
X128270000Y-121158000D03*
X118110000Y-113538000D03*
X125730000Y-121158000D03*
X120650000Y-113538000D03*
X123190000Y-121158000D03*
X123190000Y-113538000D03*
X120650000Y-121158000D03*
X125730000Y-113538000D03*
X118110000Y-121158000D03*
X128270000Y-113538000D03*
X115570000Y-121158000D03*
D11*
X130810000Y-113538000D03*
G04 #@! TA.AperFunction,SMDPad,CuDef*
D12*
G36*
X101863505Y-105346204D02*
G01*
X101887773Y-105349804D01*
X101911572Y-105355765D01*
X101934671Y-105364030D01*
X101956850Y-105374520D01*
X101977893Y-105387132D01*
X101997599Y-105401747D01*
X102015777Y-105418223D01*
X102032253Y-105436401D01*
X102046868Y-105456107D01*
X102059480Y-105477150D01*
X102069970Y-105499329D01*
X102078235Y-105522428D01*
X102084196Y-105546227D01*
X102087796Y-105570495D01*
X102089000Y-105594999D01*
X102089000Y-106495001D01*
X102087796Y-106519505D01*
X102084196Y-106543773D01*
X102078235Y-106567572D01*
X102069970Y-106590671D01*
X102059480Y-106612850D01*
X102046868Y-106633893D01*
X102032253Y-106653599D01*
X102015777Y-106671777D01*
X101997599Y-106688253D01*
X101977893Y-106702868D01*
X101956850Y-106715480D01*
X101934671Y-106725970D01*
X101911572Y-106734235D01*
X101887773Y-106740196D01*
X101863505Y-106743796D01*
X101839001Y-106745000D01*
X101138999Y-106745000D01*
X101114495Y-106743796D01*
X101090227Y-106740196D01*
X101066428Y-106734235D01*
X101043329Y-106725970D01*
X101021150Y-106715480D01*
X101000107Y-106702868D01*
X100980401Y-106688253D01*
X100962223Y-106671777D01*
X100945747Y-106653599D01*
X100931132Y-106633893D01*
X100918520Y-106612850D01*
X100908030Y-106590671D01*
X100899765Y-106567572D01*
X100893804Y-106543773D01*
X100890204Y-106519505D01*
X100889000Y-106495001D01*
X100889000Y-105594999D01*
X100890204Y-105570495D01*
X100893804Y-105546227D01*
X100899765Y-105522428D01*
X100908030Y-105499329D01*
X100918520Y-105477150D01*
X100931132Y-105456107D01*
X100945747Y-105436401D01*
X100962223Y-105418223D01*
X100980401Y-105401747D01*
X101000107Y-105387132D01*
X101021150Y-105374520D01*
X101043329Y-105364030D01*
X101066428Y-105355765D01*
X101090227Y-105349804D01*
X101114495Y-105346204D01*
X101138999Y-105345000D01*
X101839001Y-105345000D01*
X101863505Y-105346204D01*
G37*
G04 #@! TD.AperFunction*
G04 #@! TA.AperFunction,SMDPad,CuDef*
G36*
X103863505Y-105346204D02*
G01*
X103887773Y-105349804D01*
X103911572Y-105355765D01*
X103934671Y-105364030D01*
X103956850Y-105374520D01*
X103977893Y-105387132D01*
X103997599Y-105401747D01*
X104015777Y-105418223D01*
X104032253Y-105436401D01*
X104046868Y-105456107D01*
X104059480Y-105477150D01*
X104069970Y-105499329D01*
X104078235Y-105522428D01*
X104084196Y-105546227D01*
X104087796Y-105570495D01*
X104089000Y-105594999D01*
X104089000Y-106495001D01*
X104087796Y-106519505D01*
X104084196Y-106543773D01*
X104078235Y-106567572D01*
X104069970Y-106590671D01*
X104059480Y-106612850D01*
X104046868Y-106633893D01*
X104032253Y-106653599D01*
X104015777Y-106671777D01*
X103997599Y-106688253D01*
X103977893Y-106702868D01*
X103956850Y-106715480D01*
X103934671Y-106725970D01*
X103911572Y-106734235D01*
X103887773Y-106740196D01*
X103863505Y-106743796D01*
X103839001Y-106745000D01*
X103138999Y-106745000D01*
X103114495Y-106743796D01*
X103090227Y-106740196D01*
X103066428Y-106734235D01*
X103043329Y-106725970D01*
X103021150Y-106715480D01*
X103000107Y-106702868D01*
X102980401Y-106688253D01*
X102962223Y-106671777D01*
X102945747Y-106653599D01*
X102931132Y-106633893D01*
X102918520Y-106612850D01*
X102908030Y-106590671D01*
X102899765Y-106567572D01*
X102893804Y-106543773D01*
X102890204Y-106519505D01*
X102889000Y-106495001D01*
X102889000Y-105594999D01*
X102890204Y-105570495D01*
X102893804Y-105546227D01*
X102899765Y-105522428D01*
X102908030Y-105499329D01*
X102918520Y-105477150D01*
X102931132Y-105456107D01*
X102945747Y-105436401D01*
X102962223Y-105418223D01*
X102980401Y-105401747D01*
X103000107Y-105387132D01*
X103021150Y-105374520D01*
X103043329Y-105364030D01*
X103066428Y-105355765D01*
X103090227Y-105349804D01*
X103114495Y-105346204D01*
X103138999Y-105345000D01*
X103839001Y-105345000D01*
X103863505Y-105346204D01*
G37*
G04 #@! TD.AperFunction*
G04 #@! TA.AperFunction,SMDPad,CuDef*
G36*
X105800505Y-112331204D02*
G01*
X105824773Y-112334804D01*
X105848572Y-112340765D01*
X105871671Y-112349030D01*
X105893850Y-112359520D01*
X105914893Y-112372132D01*
X105934599Y-112386747D01*
X105952777Y-112403223D01*
X105969253Y-112421401D01*
X105983868Y-112441107D01*
X105996480Y-112462150D01*
X106006970Y-112484329D01*
X106015235Y-112507428D01*
X106021196Y-112531227D01*
X106024796Y-112555495D01*
X106026000Y-112579999D01*
X106026000Y-113480001D01*
X106024796Y-113504505D01*
X106021196Y-113528773D01*
X106015235Y-113552572D01*
X106006970Y-113575671D01*
X105996480Y-113597850D01*
X105983868Y-113618893D01*
X105969253Y-113638599D01*
X105952777Y-113656777D01*
X105934599Y-113673253D01*
X105914893Y-113687868D01*
X105893850Y-113700480D01*
X105871671Y-113710970D01*
X105848572Y-113719235D01*
X105824773Y-113725196D01*
X105800505Y-113728796D01*
X105776001Y-113730000D01*
X105075999Y-113730000D01*
X105051495Y-113728796D01*
X105027227Y-113725196D01*
X105003428Y-113719235D01*
X104980329Y-113710970D01*
X104958150Y-113700480D01*
X104937107Y-113687868D01*
X104917401Y-113673253D01*
X104899223Y-113656777D01*
X104882747Y-113638599D01*
X104868132Y-113618893D01*
X104855520Y-113597850D01*
X104845030Y-113575671D01*
X104836765Y-113552572D01*
X104830804Y-113528773D01*
X104827204Y-113504505D01*
X104826000Y-113480001D01*
X104826000Y-112579999D01*
X104827204Y-112555495D01*
X104830804Y-112531227D01*
X104836765Y-112507428D01*
X104845030Y-112484329D01*
X104855520Y-112462150D01*
X104868132Y-112441107D01*
X104882747Y-112421401D01*
X104899223Y-112403223D01*
X104917401Y-112386747D01*
X104937107Y-112372132D01*
X104958150Y-112359520D01*
X104980329Y-112349030D01*
X105003428Y-112340765D01*
X105027227Y-112334804D01*
X105051495Y-112331204D01*
X105075999Y-112330000D01*
X105776001Y-112330000D01*
X105800505Y-112331204D01*
G37*
G04 #@! TD.AperFunction*
G04 #@! TA.AperFunction,SMDPad,CuDef*
G36*
X107800505Y-112331204D02*
G01*
X107824773Y-112334804D01*
X107848572Y-112340765D01*
X107871671Y-112349030D01*
X107893850Y-112359520D01*
X107914893Y-112372132D01*
X107934599Y-112386747D01*
X107952777Y-112403223D01*
X107969253Y-112421401D01*
X107983868Y-112441107D01*
X107996480Y-112462150D01*
X108006970Y-112484329D01*
X108015235Y-112507428D01*
X108021196Y-112531227D01*
X108024796Y-112555495D01*
X108026000Y-112579999D01*
X108026000Y-113480001D01*
X108024796Y-113504505D01*
X108021196Y-113528773D01*
X108015235Y-113552572D01*
X108006970Y-113575671D01*
X107996480Y-113597850D01*
X107983868Y-113618893D01*
X107969253Y-113638599D01*
X107952777Y-113656777D01*
X107934599Y-113673253D01*
X107914893Y-113687868D01*
X107893850Y-113700480D01*
X107871671Y-113710970D01*
X107848572Y-113719235D01*
X107824773Y-113725196D01*
X107800505Y-113728796D01*
X107776001Y-113730000D01*
X107075999Y-113730000D01*
X107051495Y-113728796D01*
X107027227Y-113725196D01*
X107003428Y-113719235D01*
X106980329Y-113710970D01*
X106958150Y-113700480D01*
X106937107Y-113687868D01*
X106917401Y-113673253D01*
X106899223Y-113656777D01*
X106882747Y-113638599D01*
X106868132Y-113618893D01*
X106855520Y-113597850D01*
X106845030Y-113575671D01*
X106836765Y-113552572D01*
X106830804Y-113528773D01*
X106827204Y-113504505D01*
X106826000Y-113480001D01*
X106826000Y-112579999D01*
X106827204Y-112555495D01*
X106830804Y-112531227D01*
X106836765Y-112507428D01*
X106845030Y-112484329D01*
X106855520Y-112462150D01*
X106868132Y-112441107D01*
X106882747Y-112421401D01*
X106899223Y-112403223D01*
X106917401Y-112386747D01*
X106937107Y-112372132D01*
X106958150Y-112359520D01*
X106980329Y-112349030D01*
X107003428Y-112340765D01*
X107027227Y-112334804D01*
X107051495Y-112331204D01*
X107075999Y-112330000D01*
X107776001Y-112330000D01*
X107800505Y-112331204D01*
G37*
G04 #@! TD.AperFunction*
G04 #@! TA.AperFunction,SMDPad,CuDef*
G36*
X106308505Y-103187204D02*
G01*
X106332773Y-103190804D01*
X106356572Y-103196765D01*
X106379671Y-103205030D01*
X106401850Y-103215520D01*
X106422893Y-103228132D01*
X106442599Y-103242747D01*
X106460777Y-103259223D01*
X106477253Y-103277401D01*
X106491868Y-103297107D01*
X106504480Y-103318150D01*
X106514970Y-103340329D01*
X106523235Y-103363428D01*
X106529196Y-103387227D01*
X106532796Y-103411495D01*
X106534000Y-103435999D01*
X106534000Y-104336001D01*
X106532796Y-104360505D01*
X106529196Y-104384773D01*
X106523235Y-104408572D01*
X106514970Y-104431671D01*
X106504480Y-104453850D01*
X106491868Y-104474893D01*
X106477253Y-104494599D01*
X106460777Y-104512777D01*
X106442599Y-104529253D01*
X106422893Y-104543868D01*
X106401850Y-104556480D01*
X106379671Y-104566970D01*
X106356572Y-104575235D01*
X106332773Y-104581196D01*
X106308505Y-104584796D01*
X106284001Y-104586000D01*
X105583999Y-104586000D01*
X105559495Y-104584796D01*
X105535227Y-104581196D01*
X105511428Y-104575235D01*
X105488329Y-104566970D01*
X105466150Y-104556480D01*
X105445107Y-104543868D01*
X105425401Y-104529253D01*
X105407223Y-104512777D01*
X105390747Y-104494599D01*
X105376132Y-104474893D01*
X105363520Y-104453850D01*
X105353030Y-104431671D01*
X105344765Y-104408572D01*
X105338804Y-104384773D01*
X105335204Y-104360505D01*
X105334000Y-104336001D01*
X105334000Y-103435999D01*
X105335204Y-103411495D01*
X105338804Y-103387227D01*
X105344765Y-103363428D01*
X105353030Y-103340329D01*
X105363520Y-103318150D01*
X105376132Y-103297107D01*
X105390747Y-103277401D01*
X105407223Y-103259223D01*
X105425401Y-103242747D01*
X105445107Y-103228132D01*
X105466150Y-103215520D01*
X105488329Y-103205030D01*
X105511428Y-103196765D01*
X105535227Y-103190804D01*
X105559495Y-103187204D01*
X105583999Y-103186000D01*
X106284001Y-103186000D01*
X106308505Y-103187204D01*
G37*
G04 #@! TD.AperFunction*
G04 #@! TA.AperFunction,SMDPad,CuDef*
G36*
X108308505Y-103187204D02*
G01*
X108332773Y-103190804D01*
X108356572Y-103196765D01*
X108379671Y-103205030D01*
X108401850Y-103215520D01*
X108422893Y-103228132D01*
X108442599Y-103242747D01*
X108460777Y-103259223D01*
X108477253Y-103277401D01*
X108491868Y-103297107D01*
X108504480Y-103318150D01*
X108514970Y-103340329D01*
X108523235Y-103363428D01*
X108529196Y-103387227D01*
X108532796Y-103411495D01*
X108534000Y-103435999D01*
X108534000Y-104336001D01*
X108532796Y-104360505D01*
X108529196Y-104384773D01*
X108523235Y-104408572D01*
X108514970Y-104431671D01*
X108504480Y-104453850D01*
X108491868Y-104474893D01*
X108477253Y-104494599D01*
X108460777Y-104512777D01*
X108442599Y-104529253D01*
X108422893Y-104543868D01*
X108401850Y-104556480D01*
X108379671Y-104566970D01*
X108356572Y-104575235D01*
X108332773Y-104581196D01*
X108308505Y-104584796D01*
X108284001Y-104586000D01*
X107583999Y-104586000D01*
X107559495Y-104584796D01*
X107535227Y-104581196D01*
X107511428Y-104575235D01*
X107488329Y-104566970D01*
X107466150Y-104556480D01*
X107445107Y-104543868D01*
X107425401Y-104529253D01*
X107407223Y-104512777D01*
X107390747Y-104494599D01*
X107376132Y-104474893D01*
X107363520Y-104453850D01*
X107353030Y-104431671D01*
X107344765Y-104408572D01*
X107338804Y-104384773D01*
X107335204Y-104360505D01*
X107334000Y-104336001D01*
X107334000Y-103435999D01*
X107335204Y-103411495D01*
X107338804Y-103387227D01*
X107344765Y-103363428D01*
X107353030Y-103340329D01*
X107363520Y-103318150D01*
X107376132Y-103297107D01*
X107390747Y-103277401D01*
X107407223Y-103259223D01*
X107425401Y-103242747D01*
X107445107Y-103228132D01*
X107466150Y-103215520D01*
X107488329Y-103205030D01*
X107511428Y-103196765D01*
X107535227Y-103190804D01*
X107559495Y-103187204D01*
X107583999Y-103186000D01*
X108284001Y-103186000D01*
X108308505Y-103187204D01*
G37*
G04 #@! TD.AperFunction*
G04 #@! TA.AperFunction,SMDPad,CuDef*
G36*
X106308505Y-105473204D02*
G01*
X106332773Y-105476804D01*
X106356572Y-105482765D01*
X106379671Y-105491030D01*
X106401850Y-105501520D01*
X106422893Y-105514132D01*
X106442599Y-105528747D01*
X106460777Y-105545223D01*
X106477253Y-105563401D01*
X106491868Y-105583107D01*
X106504480Y-105604150D01*
X106514970Y-105626329D01*
X106523235Y-105649428D01*
X106529196Y-105673227D01*
X106532796Y-105697495D01*
X106534000Y-105721999D01*
X106534000Y-106622001D01*
X106532796Y-106646505D01*
X106529196Y-106670773D01*
X106523235Y-106694572D01*
X106514970Y-106717671D01*
X106504480Y-106739850D01*
X106491868Y-106760893D01*
X106477253Y-106780599D01*
X106460777Y-106798777D01*
X106442599Y-106815253D01*
X106422893Y-106829868D01*
X106401850Y-106842480D01*
X106379671Y-106852970D01*
X106356572Y-106861235D01*
X106332773Y-106867196D01*
X106308505Y-106870796D01*
X106284001Y-106872000D01*
X105583999Y-106872000D01*
X105559495Y-106870796D01*
X105535227Y-106867196D01*
X105511428Y-106861235D01*
X105488329Y-106852970D01*
X105466150Y-106842480D01*
X105445107Y-106829868D01*
X105425401Y-106815253D01*
X105407223Y-106798777D01*
X105390747Y-106780599D01*
X105376132Y-106760893D01*
X105363520Y-106739850D01*
X105353030Y-106717671D01*
X105344765Y-106694572D01*
X105338804Y-106670773D01*
X105335204Y-106646505D01*
X105334000Y-106622001D01*
X105334000Y-105721999D01*
X105335204Y-105697495D01*
X105338804Y-105673227D01*
X105344765Y-105649428D01*
X105353030Y-105626329D01*
X105363520Y-105604150D01*
X105376132Y-105583107D01*
X105390747Y-105563401D01*
X105407223Y-105545223D01*
X105425401Y-105528747D01*
X105445107Y-105514132D01*
X105466150Y-105501520D01*
X105488329Y-105491030D01*
X105511428Y-105482765D01*
X105535227Y-105476804D01*
X105559495Y-105473204D01*
X105583999Y-105472000D01*
X106284001Y-105472000D01*
X106308505Y-105473204D01*
G37*
G04 #@! TD.AperFunction*
G04 #@! TA.AperFunction,SMDPad,CuDef*
G36*
X108308505Y-105473204D02*
G01*
X108332773Y-105476804D01*
X108356572Y-105482765D01*
X108379671Y-105491030D01*
X108401850Y-105501520D01*
X108422893Y-105514132D01*
X108442599Y-105528747D01*
X108460777Y-105545223D01*
X108477253Y-105563401D01*
X108491868Y-105583107D01*
X108504480Y-105604150D01*
X108514970Y-105626329D01*
X108523235Y-105649428D01*
X108529196Y-105673227D01*
X108532796Y-105697495D01*
X108534000Y-105721999D01*
X108534000Y-106622001D01*
X108532796Y-106646505D01*
X108529196Y-106670773D01*
X108523235Y-106694572D01*
X108514970Y-106717671D01*
X108504480Y-106739850D01*
X108491868Y-106760893D01*
X108477253Y-106780599D01*
X108460777Y-106798777D01*
X108442599Y-106815253D01*
X108422893Y-106829868D01*
X108401850Y-106842480D01*
X108379671Y-106852970D01*
X108356572Y-106861235D01*
X108332773Y-106867196D01*
X108308505Y-106870796D01*
X108284001Y-106872000D01*
X107583999Y-106872000D01*
X107559495Y-106870796D01*
X107535227Y-106867196D01*
X107511428Y-106861235D01*
X107488329Y-106852970D01*
X107466150Y-106842480D01*
X107445107Y-106829868D01*
X107425401Y-106815253D01*
X107407223Y-106798777D01*
X107390747Y-106780599D01*
X107376132Y-106760893D01*
X107363520Y-106739850D01*
X107353030Y-106717671D01*
X107344765Y-106694572D01*
X107338804Y-106670773D01*
X107335204Y-106646505D01*
X107334000Y-106622001D01*
X107334000Y-105721999D01*
X107335204Y-105697495D01*
X107338804Y-105673227D01*
X107344765Y-105649428D01*
X107353030Y-105626329D01*
X107363520Y-105604150D01*
X107376132Y-105583107D01*
X107390747Y-105563401D01*
X107407223Y-105545223D01*
X107425401Y-105528747D01*
X107445107Y-105514132D01*
X107466150Y-105501520D01*
X107488329Y-105491030D01*
X107511428Y-105482765D01*
X107535227Y-105476804D01*
X107559495Y-105473204D01*
X107583999Y-105472000D01*
X108284001Y-105472000D01*
X108308505Y-105473204D01*
G37*
G04 #@! TD.AperFunction*
D13*
X98806000Y-117856000D03*
X98806000Y-115316000D03*
X98806000Y-112776000D03*
X98806000Y-110236000D03*
X98806000Y-107696000D03*
D14*
X98806000Y-105156000D03*
D13*
X93840000Y-121400000D03*
X96380000Y-121400000D03*
X93840000Y-118860000D03*
X96380000Y-118860000D03*
X93840000Y-116320000D03*
X96380000Y-116320000D03*
X93840000Y-113780000D03*
X96380000Y-113780000D03*
X93840000Y-111240000D03*
X96380000Y-111240000D03*
X93840000Y-108700000D03*
X96380000Y-108700000D03*
X93840000Y-106160000D03*
X96380000Y-106160000D03*
X93840000Y-103620000D03*
D14*
X96380000Y-103700000D03*
G04 #@! TA.AperFunction,SMDPad,CuDef*
D12*
G36*
X105793504Y-107734204D02*
G01*
X105817773Y-107737804D01*
X105841571Y-107743765D01*
X105864671Y-107752030D01*
X105886849Y-107762520D01*
X105907893Y-107775133D01*
X105927598Y-107789747D01*
X105945777Y-107806223D01*
X105962253Y-107824402D01*
X105976867Y-107844107D01*
X105989480Y-107865151D01*
X105999970Y-107887329D01*
X106008235Y-107910429D01*
X106014196Y-107934227D01*
X106017796Y-107958496D01*
X106019000Y-107983000D01*
X106019000Y-108933000D01*
X106017796Y-108957504D01*
X106014196Y-108981773D01*
X106008235Y-109005571D01*
X105999970Y-109028671D01*
X105989480Y-109050849D01*
X105976867Y-109071893D01*
X105962253Y-109091598D01*
X105945777Y-109109777D01*
X105927598Y-109126253D01*
X105907893Y-109140867D01*
X105886849Y-109153480D01*
X105864671Y-109163970D01*
X105841571Y-109172235D01*
X105817773Y-109178196D01*
X105793504Y-109181796D01*
X105769000Y-109183000D01*
X105094000Y-109183000D01*
X105069496Y-109181796D01*
X105045227Y-109178196D01*
X105021429Y-109172235D01*
X104998329Y-109163970D01*
X104976151Y-109153480D01*
X104955107Y-109140867D01*
X104935402Y-109126253D01*
X104917223Y-109109777D01*
X104900747Y-109091598D01*
X104886133Y-109071893D01*
X104873520Y-109050849D01*
X104863030Y-109028671D01*
X104854765Y-109005571D01*
X104848804Y-108981773D01*
X104845204Y-108957504D01*
X104844000Y-108933000D01*
X104844000Y-107983000D01*
X104845204Y-107958496D01*
X104848804Y-107934227D01*
X104854765Y-107910429D01*
X104863030Y-107887329D01*
X104873520Y-107865151D01*
X104886133Y-107844107D01*
X104900747Y-107824402D01*
X104917223Y-107806223D01*
X104935402Y-107789747D01*
X104955107Y-107775133D01*
X104976151Y-107762520D01*
X104998329Y-107752030D01*
X105021429Y-107743765D01*
X105045227Y-107737804D01*
X105069496Y-107734204D01*
X105094000Y-107733000D01*
X105769000Y-107733000D01*
X105793504Y-107734204D01*
G37*
G04 #@! TD.AperFunction*
G04 #@! TA.AperFunction,SMDPad,CuDef*
G36*
X103718504Y-107734204D02*
G01*
X103742773Y-107737804D01*
X103766571Y-107743765D01*
X103789671Y-107752030D01*
X103811849Y-107762520D01*
X103832893Y-107775133D01*
X103852598Y-107789747D01*
X103870777Y-107806223D01*
X103887253Y-107824402D01*
X103901867Y-107844107D01*
X103914480Y-107865151D01*
X103924970Y-107887329D01*
X103933235Y-107910429D01*
X103939196Y-107934227D01*
X103942796Y-107958496D01*
X103944000Y-107983000D01*
X103944000Y-108933000D01*
X103942796Y-108957504D01*
X103939196Y-108981773D01*
X103933235Y-109005571D01*
X103924970Y-109028671D01*
X103914480Y-109050849D01*
X103901867Y-109071893D01*
X103887253Y-109091598D01*
X103870777Y-109109777D01*
X103852598Y-109126253D01*
X103832893Y-109140867D01*
X103811849Y-109153480D01*
X103789671Y-109163970D01*
X103766571Y-109172235D01*
X103742773Y-109178196D01*
X103718504Y-109181796D01*
X103694000Y-109183000D01*
X103019000Y-109183000D01*
X102994496Y-109181796D01*
X102970227Y-109178196D01*
X102946429Y-109172235D01*
X102923329Y-109163970D01*
X102901151Y-109153480D01*
X102880107Y-109140867D01*
X102860402Y-109126253D01*
X102842223Y-109109777D01*
X102825747Y-109091598D01*
X102811133Y-109071893D01*
X102798520Y-109050849D01*
X102788030Y-109028671D01*
X102779765Y-109005571D01*
X102773804Y-108981773D01*
X102770204Y-108957504D01*
X102769000Y-108933000D01*
X102769000Y-107983000D01*
X102770204Y-107958496D01*
X102773804Y-107934227D01*
X102779765Y-107910429D01*
X102788030Y-107887329D01*
X102798520Y-107865151D01*
X102811133Y-107844107D01*
X102825747Y-107824402D01*
X102842223Y-107806223D01*
X102860402Y-107789747D01*
X102880107Y-107775133D01*
X102901151Y-107762520D01*
X102923329Y-107752030D01*
X102946429Y-107743765D01*
X102970227Y-107737804D01*
X102994496Y-107734204D01*
X103019000Y-107733000D01*
X103694000Y-107733000D01*
X103718504Y-107734204D01*
G37*
G04 #@! TD.AperFunction*
D15*
X104695149Y-113109851D03*
X102489000Y-113030000D03*
X107317956Y-118336990D03*
X118491000Y-115951000D03*
X106426000Y-105791000D03*
X102108000Y-115597010D03*
X104394000Y-106045000D03*
X108712000Y-103759000D03*
X99695000Y-103161000D03*
X109093000Y-109982000D03*
X108807846Y-112189693D03*
X115727147Y-115811080D03*
X105956500Y-120142000D03*
X101727000Y-117047010D03*
X111290500Y-120142000D03*
X113737526Y-120416721D03*
X113538000Y-112649000D03*
X117094000Y-109220000D03*
X107569000Y-108446180D03*
X106680000Y-115597010D03*
X115824000Y-108900185D03*
X127381000Y-105410000D03*
X92202000Y-121412000D03*
X92202000Y-112522000D03*
X109093000Y-113157000D03*
X91313000Y-120269000D03*
X90080000Y-109982000D03*
X97358703Y-110147475D03*
X112776000Y-120142000D03*
X91440000Y-117983000D03*
X90805000Y-107442000D03*
X111887000Y-106934000D03*
X114808000Y-116205000D03*
X114554000Y-108204000D03*
X112014000Y-108204000D03*
X108331000Y-111125000D03*
X108331000Y-107061000D03*
X91694000Y-108712000D03*
X91694000Y-104902000D03*
X104648000Y-103886000D03*
X131826000Y-117348000D03*
X100584000Y-118745000D03*
X123444000Y-118618000D03*
X104140000Y-122047000D03*
X105918000Y-122175000D03*
X127000000Y-115951000D03*
X120396000Y-116205000D03*
X100584000Y-106045000D03*
X104267000Y-114780010D03*
X124587000Y-105918000D03*
X128905000Y-105664000D03*
X104648000Y-110233010D03*
X107606000Y-109982000D03*
X107696000Y-115443000D03*
D16*
X118364000Y-103378000D02*
X120904000Y-103378000D01*
X104775000Y-113030000D02*
X104695149Y-113109851D01*
X105426000Y-113030000D02*
X104775000Y-113030000D01*
X107217966Y-118237000D02*
X107317956Y-118336990D01*
X103588000Y-118237000D02*
X107217966Y-118237000D01*
X106045000Y-106172000D02*
X106426000Y-105791000D01*
X105934000Y-106172000D02*
X106045000Y-106172000D01*
X103489000Y-106045000D02*
X104394000Y-106045000D01*
X108585000Y-103886000D02*
X108712000Y-103759000D01*
X107934000Y-103886000D02*
X108585000Y-103886000D01*
X110788000Y-115697000D02*
X111252000Y-115697000D01*
X115396066Y-115479999D02*
X115727147Y-115811080D01*
X111469001Y-115479999D02*
X115396066Y-115479999D01*
X111252000Y-115697000D02*
X111469001Y-115479999D01*
X105321500Y-119507000D02*
X105956500Y-120142000D01*
X103588000Y-119507000D02*
X105321500Y-119507000D01*
X101807010Y-116967000D02*
X101727000Y-117047010D01*
X103588000Y-116967000D02*
X101807010Y-116967000D01*
X110788000Y-119639500D02*
X111290500Y-120142000D01*
X110788000Y-119507000D02*
X110788000Y-119639500D01*
X113737526Y-120030524D02*
X113737526Y-120416721D01*
X113124001Y-119416999D02*
X113737526Y-120030524D01*
X111678001Y-119416999D02*
X113124001Y-119416999D01*
X111588000Y-119507000D02*
X111678001Y-119416999D01*
X110788000Y-119507000D02*
X111588000Y-119507000D01*
X116441001Y-109872999D02*
X117094000Y-109220000D01*
X115283999Y-109872999D02*
X116441001Y-109872999D01*
X114698999Y-110457999D02*
X115283999Y-109872999D01*
X114698999Y-111488001D02*
X114698999Y-110457999D01*
X113538000Y-112649000D02*
X114698999Y-111488001D01*
X107557180Y-108458000D02*
X107569000Y-108446180D01*
X105431500Y-108458000D02*
X107557180Y-108458000D01*
X99655999Y-108545999D02*
X98806000Y-107696000D01*
X102681001Y-108545999D02*
X99655999Y-108545999D01*
X102769000Y-108458000D02*
X102681001Y-108545999D01*
X103356500Y-108458000D02*
X102769000Y-108458000D01*
X106344010Y-109171180D02*
X115553005Y-109171180D01*
X106007180Y-109508010D02*
X106344010Y-109171180D01*
X115553005Y-109171180D02*
X115824000Y-108900185D01*
X103681510Y-109508010D02*
X106007180Y-109508010D01*
X103356500Y-109183000D02*
X103681510Y-109508010D01*
X103356500Y-108458000D02*
X103356500Y-109183000D01*
X126990990Y-105019990D02*
X127381000Y-105410000D01*
X100042010Y-105019990D02*
X126990990Y-105019990D01*
X99906000Y-105156000D02*
X100042010Y-105019990D01*
X98806000Y-105156000D02*
X99906000Y-105156000D01*
X92214000Y-121400000D02*
X92202000Y-121412000D01*
X93840000Y-121400000D02*
X92214000Y-121400000D01*
X107426000Y-113730000D02*
X107426000Y-113030000D01*
X107100990Y-114055010D02*
X107426000Y-113730000D01*
X98346008Y-114055010D02*
X107100990Y-114055010D01*
X96812998Y-112522000D02*
X98346008Y-114055010D01*
X92202000Y-112522000D02*
X96812998Y-112522000D01*
X108966000Y-113030000D02*
X109093000Y-113157000D01*
X107426000Y-113030000D02*
X108966000Y-113030000D01*
X91357001Y-120224999D02*
X91313000Y-120269000D01*
X94404001Y-120224999D02*
X91357001Y-120224999D01*
X95579002Y-121400000D02*
X94404001Y-120224999D01*
X96380000Y-121400000D02*
X95579002Y-121400000D01*
X97193228Y-109982000D02*
X97358703Y-110147475D01*
X90080000Y-109982000D02*
X97193228Y-109982000D01*
X93840000Y-118860000D02*
X95122000Y-120142000D01*
X112376001Y-120541999D02*
X112776000Y-120142000D01*
X112050999Y-120867001D02*
X112376001Y-120541999D01*
X105608499Y-120867001D02*
X112050999Y-120867001D01*
X104883498Y-120142000D02*
X105608499Y-120867001D01*
X95122000Y-120142000D02*
X104883498Y-120142000D01*
X91738001Y-117684999D02*
X91440000Y-117983000D01*
X94404001Y-117684999D02*
X91738001Y-117684999D01*
X94729003Y-118010001D02*
X94404001Y-117684999D01*
X95530001Y-118010001D02*
X94729003Y-118010001D01*
X96380000Y-118860000D02*
X95530001Y-118010001D01*
X111034999Y-107786001D02*
X111887000Y-106934000D01*
X107982999Y-107786001D02*
X111034999Y-107786001D01*
X100256992Y-107407990D02*
X107604988Y-107407990D01*
X99370001Y-106520999D02*
X100256992Y-107407990D01*
X98241999Y-106520999D02*
X99370001Y-106520999D01*
X97320998Y-107442000D02*
X98241999Y-106520999D01*
X107604988Y-107407990D02*
X107982999Y-107786001D01*
X90805000Y-107442000D02*
X97320998Y-107442000D01*
X114690990Y-116322010D02*
X114808000Y-116205000D01*
X99370001Y-116491001D02*
X99538992Y-116322010D01*
X98241999Y-116491001D02*
X99370001Y-116491001D01*
X97237999Y-117495001D02*
X98241999Y-116491001D01*
X95015001Y-117495001D02*
X97237999Y-117495001D01*
X99538992Y-116322010D02*
X114690990Y-116322010D01*
X93840000Y-116320000D02*
X95015001Y-117495001D01*
X114554000Y-108204000D02*
X112014000Y-108204000D01*
X108044999Y-111411001D02*
X108331000Y-111125000D01*
X97753082Y-111411001D02*
X108044999Y-111411001D01*
X97582081Y-111240000D02*
X97753082Y-111411001D01*
X96380000Y-111240000D02*
X97582081Y-111240000D01*
X108331000Y-106569000D02*
X107934000Y-106172000D01*
X108331000Y-107061000D02*
X108331000Y-106569000D01*
X91706000Y-108700000D02*
X91694000Y-108712000D01*
X93840000Y-108700000D02*
X91706000Y-108700000D01*
X105334000Y-103886000D02*
X105934000Y-103886000D01*
X97630999Y-104045999D02*
X97790998Y-103886000D01*
X97630999Y-104734003D02*
X97630999Y-104045999D01*
X97463002Y-104902000D02*
X97630999Y-104734003D01*
X91694000Y-104902000D02*
X97463002Y-104902000D01*
X104648000Y-103886000D02*
X105334000Y-103886000D01*
X97790998Y-103886000D02*
X104648000Y-103886000D01*
X131562010Y-117611990D02*
X131826000Y-117348000D01*
X100008081Y-117856000D02*
X100252091Y-117611990D01*
X98806000Y-117856000D02*
X100008081Y-117856000D01*
X131016305Y-117592010D02*
X131260315Y-117348000D01*
X102761222Y-117592010D02*
X131016305Y-117592010D01*
X102581221Y-117772011D02*
X102761222Y-117592010D01*
X101378999Y-117772011D02*
X102581221Y-117772011D01*
X101218978Y-117611990D02*
X101378999Y-117772011D01*
X131260315Y-117348000D02*
X131826000Y-117348000D01*
X100252091Y-117611990D02*
X101218978Y-117611990D01*
X123199990Y-118862010D02*
X123444000Y-118618000D01*
X101149685Y-118745000D02*
X101266695Y-118862010D01*
X100584000Y-118745000D02*
X101149685Y-118745000D01*
X122878315Y-118618000D02*
X123444000Y-118618000D01*
X122614325Y-118881990D02*
X122878315Y-118618000D01*
X109941242Y-118881990D02*
X122614325Y-118881990D01*
X109761241Y-119061991D02*
X109941242Y-118881990D01*
X106969955Y-119061991D02*
X109761241Y-119061991D01*
X106769974Y-118862010D02*
X106969955Y-119061991D01*
X101266695Y-118862010D02*
X106769974Y-118862010D01*
X127470001Y-120358001D02*
X128270000Y-121158000D01*
X125189999Y-120032999D02*
X127144999Y-120032999D01*
X104140000Y-122047000D02*
X104737001Y-121449999D01*
X107860999Y-121449999D02*
X108204000Y-121793000D01*
X127144999Y-120032999D02*
X127470001Y-120358001D01*
X108204000Y-121793000D02*
X114046000Y-121793000D01*
X104737001Y-121449999D02*
X107860999Y-121449999D01*
X114046000Y-121793000D02*
X114173000Y-121666000D01*
X124604999Y-120032999D02*
X124841000Y-120269000D01*
X114427000Y-121666000D02*
X114444999Y-121648001D01*
X114444999Y-120617999D02*
X115029999Y-120032999D01*
X114173000Y-121666000D02*
X114427000Y-121666000D01*
X115029999Y-120032999D02*
X124604999Y-120032999D01*
X124841000Y-120269000D02*
X124953998Y-120269000D01*
X114444999Y-121648001D02*
X114444999Y-120617999D01*
X124953998Y-120269000D02*
X125189999Y-120032999D01*
X119850001Y-121957999D02*
X120650000Y-121158000D01*
X119524999Y-122283001D02*
X119850001Y-121957999D01*
X106591686Y-122283001D02*
X119524999Y-122283001D01*
X106483685Y-122175000D02*
X106591686Y-122283001D01*
X105918000Y-122175000D02*
X106483685Y-122175000D01*
X120650000Y-115951000D02*
X120396000Y-116205000D01*
X127000000Y-115951000D02*
X120650000Y-115951000D01*
X101489000Y-106045000D02*
X100584000Y-106045000D01*
X116984999Y-112412999D02*
X117310001Y-112738001D01*
X115029999Y-112412999D02*
X116984999Y-112412999D01*
X117310001Y-112738001D02*
X118110000Y-113538000D01*
X112888998Y-114554000D02*
X115029999Y-112412999D01*
X105058695Y-114554000D02*
X112888998Y-114554000D01*
X104832685Y-114780010D02*
X105058695Y-114554000D01*
X104267000Y-114780010D02*
X104832685Y-114780010D01*
X128251001Y-106317999D02*
X128905000Y-105664000D01*
X124986999Y-106317999D02*
X128251001Y-106317999D01*
X124587000Y-105918000D02*
X124986999Y-106317999D01*
X107354990Y-110233010D02*
X107606000Y-109982000D01*
X104648000Y-110233010D02*
X107354990Y-110233010D01*
X108261685Y-115443000D02*
X108632695Y-115071990D01*
X107696000Y-115443000D02*
X108261685Y-115443000D01*
X125104990Y-115071990D02*
X125495980Y-114681000D01*
X125730000Y-114669370D02*
X125730000Y-113538000D01*
X125718370Y-114681000D02*
X125730000Y-114669370D01*
X125495980Y-114681000D02*
X125718370Y-114681000D01*
X125037010Y-115004010D02*
X125104990Y-115071990D01*
X111308580Y-115004010D02*
X125037010Y-115004010D01*
X111240600Y-115071990D02*
X111308580Y-115004010D01*
X108632695Y-115071990D02*
X111240600Y-115071990D01*
M02*
