G04 #@! TF.GenerationSoftware,KiCad,Pcbnew,5.1.5+dfsg1-2build2*
G04 #@! TF.CreationDate,2022-11-08T07:02:07+00:00*
G04 #@! TF.ProjectId,link-up-serial,6c696e6b-2d75-4702-9d73-657269616c2e,rev?*
G04 #@! TF.SameCoordinates,Original*
G04 #@! TF.FileFunction,Legend,Bot*
G04 #@! TF.FilePolarity,Positive*
%FSLAX46Y46*%
G04 Gerber Fmt 4.6, Leading zero omitted, Abs format (unit mm)*
G04 Created by KiCad (PCBNEW 5.1.5+dfsg1-2build2) date 2022-11-08 07:02:07*
%MOMM*%
%LPD*%
G04 APERTURE LIST*
%ADD10C,0.150000*%
%ADD11C,0.120000*%
G04 APERTURE END LIST*
D10*
X86686380Y-105061666D02*
X86686380Y-104585476D01*
X85686380Y-104585476D01*
X86686380Y-105395000D02*
X85686380Y-105395000D01*
X86686380Y-105871190D02*
X85686380Y-105871190D01*
X86686380Y-106442619D01*
X85686380Y-106442619D01*
X86686380Y-106918809D02*
X85686380Y-106918809D01*
X86686380Y-107490238D02*
X86114952Y-107061666D01*
X85686380Y-107490238D02*
X86257809Y-106918809D01*
X85686380Y-108680714D02*
X86495904Y-108680714D01*
X86591142Y-108728333D01*
X86638761Y-108775952D01*
X86686380Y-108871190D01*
X86686380Y-109061666D01*
X86638761Y-109156904D01*
X86591142Y-109204523D01*
X86495904Y-109252142D01*
X85686380Y-109252142D01*
X86686380Y-109728333D02*
X85686380Y-109728333D01*
X85686380Y-110109285D01*
X85734000Y-110204523D01*
X85781619Y-110252142D01*
X85876857Y-110299761D01*
X86019714Y-110299761D01*
X86114952Y-110252142D01*
X86162571Y-110204523D01*
X86210190Y-110109285D01*
X86210190Y-109728333D01*
X86591142Y-112061666D02*
X86638761Y-112014047D01*
X86686380Y-111871190D01*
X86686380Y-111775952D01*
X86638761Y-111633095D01*
X86543523Y-111537857D01*
X86448285Y-111490238D01*
X86257809Y-111442619D01*
X86114952Y-111442619D01*
X85924476Y-111490238D01*
X85829238Y-111537857D01*
X85734000Y-111633095D01*
X85686380Y-111775952D01*
X85686380Y-111871190D01*
X85734000Y-112014047D01*
X85781619Y-112061666D01*
X86400666Y-112442619D02*
X86400666Y-112918809D01*
X86686380Y-112347380D02*
X85686380Y-112680714D01*
X86686380Y-113014047D01*
X86162571Y-113680714D02*
X86210190Y-113823571D01*
X86257809Y-113871190D01*
X86353047Y-113918809D01*
X86495904Y-113918809D01*
X86591142Y-113871190D01*
X86638761Y-113823571D01*
X86686380Y-113728333D01*
X86686380Y-113347380D01*
X85686380Y-113347380D01*
X85686380Y-113680714D01*
X85734000Y-113775952D01*
X85781619Y-113823571D01*
X85876857Y-113871190D01*
X85972095Y-113871190D01*
X86067333Y-113823571D01*
X86114952Y-113775952D01*
X86162571Y-113680714D01*
X86162571Y-113347380D01*
X86686380Y-114823571D02*
X86686380Y-114347380D01*
X85686380Y-114347380D01*
X86162571Y-115156904D02*
X86162571Y-115490238D01*
X86686380Y-115633095D02*
X86686380Y-115156904D01*
X85686380Y-115156904D01*
X85686380Y-115633095D01*
X86686380Y-116823571D02*
X85686380Y-116823571D01*
X85686380Y-117204523D01*
X85734000Y-117299761D01*
X85781619Y-117347380D01*
X85876857Y-117395000D01*
X86019714Y-117395000D01*
X86114952Y-117347380D01*
X86162571Y-117299761D01*
X86210190Y-117204523D01*
X86210190Y-116823571D01*
X86400666Y-117775952D02*
X86400666Y-118252142D01*
X86686380Y-117680714D02*
X85686380Y-118014047D01*
X86686380Y-118347380D01*
X86591142Y-119252142D02*
X86638761Y-119204523D01*
X86686380Y-119061666D01*
X86686380Y-118966428D01*
X86638761Y-118823571D01*
X86543523Y-118728333D01*
X86448285Y-118680714D01*
X86257809Y-118633095D01*
X86114952Y-118633095D01*
X85924476Y-118680714D01*
X85829238Y-118728333D01*
X85734000Y-118823571D01*
X85686380Y-118966428D01*
X85686380Y-119061666D01*
X85734000Y-119204523D01*
X85781619Y-119252142D01*
X86686380Y-119680714D02*
X85686380Y-119680714D01*
X86686380Y-120252142D02*
X86114952Y-119823571D01*
X85686380Y-120252142D02*
X86257809Y-119680714D01*
X88336380Y-105728333D02*
X87336380Y-105728333D01*
X88336380Y-106299761D01*
X87336380Y-106299761D01*
X87336380Y-106966428D02*
X87336380Y-107156904D01*
X87384000Y-107252142D01*
X87479238Y-107347380D01*
X87669714Y-107395000D01*
X88003047Y-107395000D01*
X88193523Y-107347380D01*
X88288761Y-107252142D01*
X88336380Y-107156904D01*
X88336380Y-106966428D01*
X88288761Y-106871190D01*
X88193523Y-106775952D01*
X88003047Y-106728333D01*
X87669714Y-106728333D01*
X87479238Y-106775952D01*
X87384000Y-106871190D01*
X87336380Y-106966428D01*
X87336380Y-107680714D02*
X88336380Y-108014047D01*
X87336380Y-108347380D01*
X87431619Y-109395000D02*
X87384000Y-109442619D01*
X87336380Y-109537857D01*
X87336380Y-109775952D01*
X87384000Y-109871190D01*
X87431619Y-109918809D01*
X87526857Y-109966428D01*
X87622095Y-109966428D01*
X87764952Y-109918809D01*
X88336380Y-109347380D01*
X88336380Y-109966428D01*
X87336380Y-110585476D02*
X87336380Y-110680714D01*
X87384000Y-110775952D01*
X87431619Y-110823571D01*
X87526857Y-110871190D01*
X87717333Y-110918809D01*
X87955428Y-110918809D01*
X88145904Y-110871190D01*
X88241142Y-110823571D01*
X88288761Y-110775952D01*
X88336380Y-110680714D01*
X88336380Y-110585476D01*
X88288761Y-110490238D01*
X88241142Y-110442619D01*
X88145904Y-110395000D01*
X87955428Y-110347380D01*
X87717333Y-110347380D01*
X87526857Y-110395000D01*
X87431619Y-110442619D01*
X87384000Y-110490238D01*
X87336380Y-110585476D01*
X87431619Y-111299761D02*
X87384000Y-111347380D01*
X87336380Y-111442619D01*
X87336380Y-111680714D01*
X87384000Y-111775952D01*
X87431619Y-111823571D01*
X87526857Y-111871190D01*
X87622095Y-111871190D01*
X87764952Y-111823571D01*
X88336380Y-111252142D01*
X88336380Y-111871190D01*
X87431619Y-112252142D02*
X87384000Y-112299761D01*
X87336380Y-112395000D01*
X87336380Y-112633095D01*
X87384000Y-112728333D01*
X87431619Y-112775952D01*
X87526857Y-112823571D01*
X87622095Y-112823571D01*
X87764952Y-112775952D01*
X88336380Y-112204523D01*
X88336380Y-112823571D01*
X87336380Y-116156904D02*
X88336380Y-116490238D01*
X87336380Y-116823571D01*
X88336380Y-117680714D02*
X88336380Y-117109285D01*
X88336380Y-117395000D02*
X87336380Y-117395000D01*
X87479238Y-117299761D01*
X87574476Y-117204523D01*
X87622095Y-117109285D01*
X88241142Y-118109285D02*
X88288761Y-118156904D01*
X88336380Y-118109285D01*
X88288761Y-118061666D01*
X88241142Y-118109285D01*
X88336380Y-118109285D01*
X87336380Y-118775952D02*
X87336380Y-118871190D01*
X87384000Y-118966428D01*
X87431619Y-119014047D01*
X87526857Y-119061666D01*
X87717333Y-119109285D01*
X87955428Y-119109285D01*
X88145904Y-119061666D01*
X88241142Y-119014047D01*
X88288761Y-118966428D01*
X88336380Y-118871190D01*
X88336380Y-118775952D01*
X88288761Y-118680714D01*
X88241142Y-118633095D01*
X88145904Y-118585476D01*
X87955428Y-118537857D01*
X87717333Y-118537857D01*
X87526857Y-118585476D01*
X87431619Y-118633095D01*
X87384000Y-118680714D01*
X87336380Y-118775952D01*
X89986380Y-104799761D02*
X89319714Y-104799761D01*
X89414952Y-104799761D02*
X89367333Y-104847380D01*
X89319714Y-104942619D01*
X89319714Y-105085476D01*
X89367333Y-105180714D01*
X89462571Y-105228333D01*
X89986380Y-105228333D01*
X89462571Y-105228333D02*
X89367333Y-105275952D01*
X89319714Y-105371190D01*
X89319714Y-105514047D01*
X89367333Y-105609285D01*
X89462571Y-105656904D01*
X89986380Y-105656904D01*
X89938761Y-106514047D02*
X89986380Y-106418809D01*
X89986380Y-106228333D01*
X89938761Y-106133095D01*
X89843523Y-106085476D01*
X89462571Y-106085476D01*
X89367333Y-106133095D01*
X89319714Y-106228333D01*
X89319714Y-106418809D01*
X89367333Y-106514047D01*
X89462571Y-106561666D01*
X89557809Y-106561666D01*
X89653047Y-106085476D01*
X89319714Y-106990238D02*
X89986380Y-106990238D01*
X89414952Y-106990238D02*
X89367333Y-107037857D01*
X89319714Y-107133095D01*
X89319714Y-107275952D01*
X89367333Y-107371190D01*
X89462571Y-107418809D01*
X89986380Y-107418809D01*
X89986380Y-108323571D02*
X89462571Y-108323571D01*
X89367333Y-108275952D01*
X89319714Y-108180714D01*
X89319714Y-107990238D01*
X89367333Y-107895000D01*
X89938761Y-108323571D02*
X89986380Y-108228333D01*
X89986380Y-107990238D01*
X89938761Y-107895000D01*
X89843523Y-107847380D01*
X89748285Y-107847380D01*
X89653047Y-107895000D01*
X89605428Y-107990238D01*
X89605428Y-108228333D01*
X89557809Y-108323571D01*
X89986380Y-109228333D02*
X88986380Y-109228333D01*
X89938761Y-109228333D02*
X89986380Y-109133095D01*
X89986380Y-108942619D01*
X89938761Y-108847380D01*
X89891142Y-108799761D01*
X89795904Y-108752142D01*
X89510190Y-108752142D01*
X89414952Y-108799761D01*
X89367333Y-108847380D01*
X89319714Y-108942619D01*
X89319714Y-109133095D01*
X89367333Y-109228333D01*
X89319714Y-110133095D02*
X89986380Y-110133095D01*
X89319714Y-109704523D02*
X89843523Y-109704523D01*
X89938761Y-109752142D01*
X89986380Y-109847380D01*
X89986380Y-109990238D01*
X89938761Y-110085476D01*
X89891142Y-110133095D01*
X89938761Y-110990238D02*
X89986380Y-110895000D01*
X89986380Y-110704523D01*
X89938761Y-110609285D01*
X89843523Y-110561666D01*
X89462571Y-110561666D01*
X89367333Y-110609285D01*
X89319714Y-110704523D01*
X89319714Y-110895000D01*
X89367333Y-110990238D01*
X89462571Y-111037857D01*
X89557809Y-111037857D01*
X89653047Y-110561666D01*
X89510190Y-112085476D02*
X89462571Y-112037857D01*
X89414952Y-111942619D01*
X89414952Y-111847380D01*
X89462571Y-111752142D01*
X89510190Y-111704523D01*
X89605428Y-111656904D01*
X89700666Y-111656904D01*
X89795904Y-111704523D01*
X89843523Y-111752142D01*
X89891142Y-111847380D01*
X89891142Y-111942619D01*
X89843523Y-112037857D01*
X89795904Y-112085476D01*
X89414952Y-112085476D02*
X89795904Y-112085476D01*
X89843523Y-112133095D01*
X89843523Y-112180714D01*
X89795904Y-112275952D01*
X89700666Y-112323571D01*
X89462571Y-112323571D01*
X89319714Y-112228333D01*
X89224476Y-112085476D01*
X89176857Y-111895000D01*
X89224476Y-111704523D01*
X89319714Y-111561666D01*
X89462571Y-111466428D01*
X89653047Y-111418809D01*
X89843523Y-111466428D01*
X89986380Y-111561666D01*
X90081619Y-111704523D01*
X90129238Y-111895000D01*
X90081619Y-112085476D01*
X89986380Y-112228333D01*
X89319714Y-113180714D02*
X90129238Y-113180714D01*
X90224476Y-113133095D01*
X90272095Y-113085476D01*
X90319714Y-112990238D01*
X90319714Y-112847380D01*
X90272095Y-112752142D01*
X89938761Y-113180714D02*
X89986380Y-113085476D01*
X89986380Y-112895000D01*
X89938761Y-112799761D01*
X89891142Y-112752142D01*
X89795904Y-112704523D01*
X89510190Y-112704523D01*
X89414952Y-112752142D01*
X89367333Y-112799761D01*
X89319714Y-112895000D01*
X89319714Y-113085476D01*
X89367333Y-113180714D01*
X89986380Y-113656904D02*
X89319714Y-113656904D01*
X89414952Y-113656904D02*
X89367333Y-113704523D01*
X89319714Y-113799761D01*
X89319714Y-113942619D01*
X89367333Y-114037857D01*
X89462571Y-114085476D01*
X89986380Y-114085476D01*
X89462571Y-114085476D02*
X89367333Y-114133095D01*
X89319714Y-114228333D01*
X89319714Y-114371190D01*
X89367333Y-114466428D01*
X89462571Y-114514047D01*
X89986380Y-114514047D01*
X89986380Y-115418809D02*
X89462571Y-115418809D01*
X89367333Y-115371190D01*
X89319714Y-115275952D01*
X89319714Y-115085476D01*
X89367333Y-114990238D01*
X89938761Y-115418809D02*
X89986380Y-115323571D01*
X89986380Y-115085476D01*
X89938761Y-114990238D01*
X89843523Y-114942619D01*
X89748285Y-114942619D01*
X89653047Y-114990238D01*
X89605428Y-115085476D01*
X89605428Y-115323571D01*
X89557809Y-115418809D01*
X89986380Y-115895000D02*
X89319714Y-115895000D01*
X88986380Y-115895000D02*
X89034000Y-115847380D01*
X89081619Y-115895000D01*
X89034000Y-115942619D01*
X88986380Y-115895000D01*
X89081619Y-115895000D01*
X89986380Y-116514047D02*
X89938761Y-116418809D01*
X89843523Y-116371190D01*
X88986380Y-116371190D01*
X89891142Y-116895000D02*
X89938761Y-116942619D01*
X89986380Y-116895000D01*
X89938761Y-116847380D01*
X89891142Y-116895000D01*
X89986380Y-116895000D01*
X89938761Y-117799761D02*
X89986380Y-117704523D01*
X89986380Y-117514047D01*
X89938761Y-117418809D01*
X89891142Y-117371190D01*
X89795904Y-117323571D01*
X89510190Y-117323571D01*
X89414952Y-117371190D01*
X89367333Y-117418809D01*
X89319714Y-117514047D01*
X89319714Y-117704523D01*
X89367333Y-117799761D01*
X89986380Y-118371190D02*
X89938761Y-118275952D01*
X89891142Y-118228333D01*
X89795904Y-118180714D01*
X89510190Y-118180714D01*
X89414952Y-118228333D01*
X89367333Y-118275952D01*
X89319714Y-118371190D01*
X89319714Y-118514047D01*
X89367333Y-118609285D01*
X89414952Y-118656904D01*
X89510190Y-118704523D01*
X89795904Y-118704523D01*
X89891142Y-118656904D01*
X89938761Y-118609285D01*
X89986380Y-118514047D01*
X89986380Y-118371190D01*
X89986380Y-119133095D02*
X89319714Y-119133095D01*
X89414952Y-119133095D02*
X89367333Y-119180714D01*
X89319714Y-119275952D01*
X89319714Y-119418809D01*
X89367333Y-119514047D01*
X89462571Y-119561666D01*
X89986380Y-119561666D01*
X89462571Y-119561666D02*
X89367333Y-119609285D01*
X89319714Y-119704523D01*
X89319714Y-119847380D01*
X89367333Y-119942619D01*
X89462571Y-119990238D01*
X89986380Y-119990238D01*
D11*
X109778000Y-103707000D02*
X111593000Y-103707000D01*
X109778000Y-103472000D02*
X109778000Y-103707000D01*
X105918000Y-103472000D02*
X109778000Y-103472000D01*
X102058000Y-103472000D02*
X102058000Y-103707000D01*
X105918000Y-103472000D02*
X102058000Y-103472000D01*
X109778000Y-116492000D02*
X109778000Y-116257000D01*
X105918000Y-116492000D02*
X109778000Y-116492000D01*
X102058000Y-116492000D02*
X102058000Y-116257000D01*
X105918000Y-116492000D02*
X102058000Y-116492000D01*
X129767064Y-116813000D02*
X129312936Y-116813000D01*
X129767064Y-115343000D02*
X129312936Y-115343000D01*
X129767064Y-119353000D02*
X129312936Y-119353000D01*
X129767064Y-117883000D02*
X129312936Y-117883000D01*
X116104936Y-116613000D02*
X116559064Y-116613000D01*
X116104936Y-118083000D02*
X116559064Y-118083000D01*
X130055252Y-109320000D02*
X129532748Y-109320000D01*
X130055252Y-107850000D02*
X129532748Y-107850000D01*
X110439252Y-121502000D02*
X109016748Y-121502000D01*
X110439252Y-118782000D02*
X109016748Y-118782000D01*
X103682748Y-118782000D02*
X105105252Y-118782000D01*
X103682748Y-121502000D02*
X105105252Y-121502000D01*
X119768252Y-107796000D02*
X119245748Y-107796000D01*
X119768252Y-106326000D02*
X119245748Y-106326000D01*
D10*
X106451333Y-102248666D02*
X106451333Y-102815333D01*
X106418000Y-102882000D01*
X106384666Y-102915333D01*
X106318000Y-102948666D01*
X106184666Y-102948666D01*
X106118000Y-102915333D01*
X106084666Y-102882000D01*
X106051333Y-102815333D01*
X106051333Y-102248666D01*
X105751333Y-102315333D02*
X105718000Y-102282000D01*
X105651333Y-102248666D01*
X105484666Y-102248666D01*
X105418000Y-102282000D01*
X105384666Y-102315333D01*
X105351333Y-102382000D01*
X105351333Y-102448666D01*
X105384666Y-102548666D01*
X105784666Y-102948666D01*
X105351333Y-102948666D01*
X126481666Y-116394666D02*
X126715000Y-116061333D01*
X126881666Y-116394666D02*
X126881666Y-115694666D01*
X126615000Y-115694666D01*
X126548333Y-115728000D01*
X126515000Y-115761333D01*
X126481666Y-115828000D01*
X126481666Y-115928000D01*
X126515000Y-115994666D01*
X126548333Y-116028000D01*
X126615000Y-116061333D01*
X126881666Y-116061333D01*
X125881666Y-115694666D02*
X126015000Y-115694666D01*
X126081666Y-115728000D01*
X126115000Y-115761333D01*
X126181666Y-115861333D01*
X126215000Y-115994666D01*
X126215000Y-116261333D01*
X126181666Y-116328000D01*
X126148333Y-116361333D01*
X126081666Y-116394666D01*
X125948333Y-116394666D01*
X125881666Y-116361333D01*
X125848333Y-116328000D01*
X125815000Y-116261333D01*
X125815000Y-116094666D01*
X125848333Y-116028000D01*
X125881666Y-115994666D01*
X125948333Y-115961333D01*
X126081666Y-115961333D01*
X126148333Y-115994666D01*
X126181666Y-116028000D01*
X126215000Y-116094666D01*
X126735666Y-118934666D02*
X126969000Y-118601333D01*
X127135666Y-118934666D02*
X127135666Y-118234666D01*
X126869000Y-118234666D01*
X126802333Y-118268000D01*
X126769000Y-118301333D01*
X126735666Y-118368000D01*
X126735666Y-118468000D01*
X126769000Y-118534666D01*
X126802333Y-118568000D01*
X126869000Y-118601333D01*
X127135666Y-118601333D01*
X126102333Y-118234666D02*
X126435666Y-118234666D01*
X126469000Y-118568000D01*
X126435666Y-118534666D01*
X126369000Y-118501333D01*
X126202333Y-118501333D01*
X126135666Y-118534666D01*
X126102333Y-118568000D01*
X126069000Y-118634666D01*
X126069000Y-118801333D01*
X126102333Y-118868000D01*
X126135666Y-118901333D01*
X126202333Y-118934666D01*
X126369000Y-118934666D01*
X126435666Y-118901333D01*
X126469000Y-118868000D01*
X116448666Y-119314666D02*
X116682000Y-118981333D01*
X116848666Y-119314666D02*
X116848666Y-118614666D01*
X116582000Y-118614666D01*
X116515333Y-118648000D01*
X116482000Y-118681333D01*
X116448666Y-118748000D01*
X116448666Y-118848000D01*
X116482000Y-118914666D01*
X116515333Y-118948000D01*
X116582000Y-118981333D01*
X116848666Y-118981333D01*
X116182000Y-118681333D02*
X116148666Y-118648000D01*
X116082000Y-118614666D01*
X115915333Y-118614666D01*
X115848666Y-118648000D01*
X115815333Y-118681333D01*
X115782000Y-118748000D01*
X115782000Y-118814666D01*
X115815333Y-118914666D01*
X116215333Y-119314666D01*
X115782000Y-119314666D01*
X129910666Y-107155000D02*
X129944000Y-107188333D01*
X130044000Y-107221666D01*
X130110666Y-107221666D01*
X130210666Y-107188333D01*
X130277333Y-107121666D01*
X130310666Y-107055000D01*
X130344000Y-106921666D01*
X130344000Y-106821666D01*
X130310666Y-106688333D01*
X130277333Y-106621666D01*
X130210666Y-106555000D01*
X130110666Y-106521666D01*
X130044000Y-106521666D01*
X129944000Y-106555000D01*
X129910666Y-106588333D01*
X129277333Y-106521666D02*
X129610666Y-106521666D01*
X129644000Y-106855000D01*
X129610666Y-106821666D01*
X129544000Y-106788333D01*
X129377333Y-106788333D01*
X129310666Y-106821666D01*
X129277333Y-106855000D01*
X129244000Y-106921666D01*
X129244000Y-107088333D01*
X129277333Y-107155000D01*
X129310666Y-107188333D01*
X129377333Y-107221666D01*
X129544000Y-107221666D01*
X129610666Y-107188333D01*
X129644000Y-107155000D01*
X108447666Y-122551000D02*
X108481000Y-122584333D01*
X108581000Y-122617666D01*
X108647666Y-122617666D01*
X108747666Y-122584333D01*
X108814333Y-122517666D01*
X108847666Y-122451000D01*
X108881000Y-122317666D01*
X108881000Y-122217666D01*
X108847666Y-122084333D01*
X108814333Y-122017666D01*
X108747666Y-121951000D01*
X108647666Y-121917666D01*
X108581000Y-121917666D01*
X108481000Y-121951000D01*
X108447666Y-121984333D01*
X108214333Y-121917666D02*
X107781000Y-121917666D01*
X108014333Y-122184333D01*
X107914333Y-122184333D01*
X107847666Y-122217666D01*
X107814333Y-122251000D01*
X107781000Y-122317666D01*
X107781000Y-122484333D01*
X107814333Y-122551000D01*
X107847666Y-122584333D01*
X107914333Y-122617666D01*
X108114333Y-122617666D01*
X108181000Y-122584333D01*
X108214333Y-122551000D01*
X103367666Y-122551000D02*
X103401000Y-122584333D01*
X103501000Y-122617666D01*
X103567666Y-122617666D01*
X103667666Y-122584333D01*
X103734333Y-122517666D01*
X103767666Y-122451000D01*
X103801000Y-122317666D01*
X103801000Y-122217666D01*
X103767666Y-122084333D01*
X103734333Y-122017666D01*
X103667666Y-121951000D01*
X103567666Y-121917666D01*
X103501000Y-121917666D01*
X103401000Y-121951000D01*
X103367666Y-121984333D01*
X103101000Y-121984333D02*
X103067666Y-121951000D01*
X103001000Y-121917666D01*
X102834333Y-121917666D01*
X102767666Y-121951000D01*
X102734333Y-121984333D01*
X102701000Y-122051000D01*
X102701000Y-122117666D01*
X102734333Y-122217666D01*
X103134333Y-122617666D01*
X102701000Y-122617666D01*
X119623666Y-105631000D02*
X119657000Y-105664333D01*
X119757000Y-105697666D01*
X119823666Y-105697666D01*
X119923666Y-105664333D01*
X119990333Y-105597666D01*
X120023666Y-105531000D01*
X120057000Y-105397666D01*
X120057000Y-105297666D01*
X120023666Y-105164333D01*
X119990333Y-105097666D01*
X119923666Y-105031000D01*
X119823666Y-104997666D01*
X119757000Y-104997666D01*
X119657000Y-105031000D01*
X119623666Y-105064333D01*
X118957000Y-105697666D02*
X119357000Y-105697666D01*
X119157000Y-105697666D02*
X119157000Y-104997666D01*
X119223666Y-105097666D01*
X119290333Y-105164333D01*
X119357000Y-105197666D01*
M02*
