G04 #@! TF.GenerationSoftware,KiCad,Pcbnew,5.1.5+dfsg1-2build2*
G04 #@! TF.CreationDate,2022-11-08T07:02:07+00:00*
G04 #@! TF.ProjectId,link-up-serial,6c696e6b-2d75-4702-9d73-657269616c2e,rev?*
G04 #@! TF.SameCoordinates,Original*
G04 #@! TF.FileFunction,Copper,L3,Inr*
G04 #@! TF.FilePolarity,Positive*
%FSLAX46Y46*%
G04 Gerber Fmt 4.6, Leading zero omitted, Abs format (unit mm)*
G04 Created by KiCad (PCBNEW 5.1.5+dfsg1-2build2) date 2022-11-08 07:02:07*
%MOMM*%
%LPD*%
G04 APERTURE LIST*
%ADD10O,1.600000X1.600000*%
%ADD11R,1.600000X1.600000*%
%ADD12O,1.700000X1.700000*%
%ADD13R,1.700000X1.700000*%
%ADD14C,0.800000*%
%ADD15C,0.250000*%
%ADD16C,0.254000*%
G04 APERTURE END LIST*
D10*
X131064000Y-110998000D03*
X113284000Y-103378000D03*
X128524000Y-110998000D03*
X115824000Y-103378000D03*
X125984000Y-110998000D03*
X118364000Y-103378000D03*
X123444000Y-110998000D03*
X120904000Y-103378000D03*
X120904000Y-110998000D03*
X123444000Y-103378000D03*
X118364000Y-110998000D03*
X125984000Y-103378000D03*
X115824000Y-110998000D03*
X128524000Y-103378000D03*
X113284000Y-110998000D03*
D11*
X131064000Y-103378000D03*
D10*
X130810000Y-121158000D03*
X115570000Y-113538000D03*
X128270000Y-121158000D03*
X118110000Y-113538000D03*
X125730000Y-121158000D03*
X120650000Y-113538000D03*
X123190000Y-121158000D03*
X123190000Y-113538000D03*
X120650000Y-121158000D03*
X125730000Y-113538000D03*
X118110000Y-121158000D03*
X128270000Y-113538000D03*
X115570000Y-121158000D03*
D11*
X130810000Y-113538000D03*
D12*
X98806000Y-117856000D03*
X98806000Y-115316000D03*
X98806000Y-112776000D03*
X98806000Y-110236000D03*
X98806000Y-107696000D03*
D13*
X98806000Y-105156000D03*
D12*
X93840000Y-121400000D03*
X96380000Y-121400000D03*
X93840000Y-118860000D03*
X96380000Y-118860000D03*
X93840000Y-116320000D03*
X96380000Y-116320000D03*
X93840000Y-113780000D03*
X96380000Y-113780000D03*
X93840000Y-111240000D03*
X96380000Y-111240000D03*
X93840000Y-108700000D03*
X96380000Y-108700000D03*
X93840000Y-106160000D03*
X96380000Y-106160000D03*
X93840000Y-103620000D03*
D13*
X96380000Y-103700000D03*
D14*
X104695149Y-113109851D03*
X102489000Y-113030000D03*
X107317956Y-118336990D03*
X118491000Y-115951000D03*
X106426000Y-105791000D03*
X102108000Y-115597010D03*
X104394000Y-106045000D03*
X108712000Y-103759000D03*
X99695000Y-103161000D03*
X109093000Y-109982000D03*
X108807846Y-112189693D03*
X115727147Y-115811080D03*
X105956500Y-120142000D03*
X101727000Y-117047010D03*
X111290500Y-120142000D03*
X113737526Y-120416721D03*
X113538000Y-112649000D03*
X117094000Y-109220000D03*
X107569000Y-108446180D03*
X106680000Y-115597010D03*
X115824000Y-108900185D03*
X127381000Y-105410000D03*
X92202000Y-121412000D03*
X92202000Y-112522000D03*
X109093000Y-113157000D03*
X91313000Y-120269000D03*
X90080000Y-109982000D03*
X97358703Y-110147475D03*
X112776000Y-120142000D03*
X91440000Y-117983000D03*
X90805000Y-107442000D03*
X111887000Y-106934000D03*
X114808000Y-116205000D03*
X114554000Y-108204000D03*
X112014000Y-108204000D03*
X108331000Y-111125000D03*
X108331000Y-107061000D03*
X91694000Y-108712000D03*
X91694000Y-104902000D03*
X104648000Y-103886000D03*
X131826000Y-117348000D03*
X100584000Y-118745000D03*
X123444000Y-118618000D03*
X104140000Y-122047000D03*
X105918000Y-122175000D03*
X127000000Y-115951000D03*
X120396000Y-116205000D03*
X100584000Y-106045000D03*
X104267000Y-114780010D03*
X124587000Y-105918000D03*
X128905000Y-105664000D03*
X104648000Y-110233010D03*
X107606000Y-109982000D03*
X107696000Y-115443000D03*
D15*
X110732180Y-108446180D02*
X113538000Y-111252000D01*
X107569000Y-108446180D02*
X110732180Y-108446180D01*
D16*
G36*
X104157744Y-102968795D02*
G01*
X103988226Y-103082063D01*
X103844063Y-103226226D01*
X103730795Y-103395744D01*
X103652774Y-103584102D01*
X103613000Y-103784061D01*
X103613000Y-103987939D01*
X103652774Y-104187898D01*
X103730795Y-104376256D01*
X103844063Y-104545774D01*
X103988226Y-104689937D01*
X104157744Y-104803205D01*
X104346102Y-104881226D01*
X104546061Y-104921000D01*
X104749939Y-104921000D01*
X104949898Y-104881226D01*
X105138256Y-104803205D01*
X105307774Y-104689937D01*
X105451937Y-104545774D01*
X105565205Y-104376256D01*
X105643226Y-104187898D01*
X105683000Y-103987939D01*
X105683000Y-103784061D01*
X105643226Y-103584102D01*
X105565205Y-103395744D01*
X105451937Y-103226226D01*
X105307774Y-103082063D01*
X105138256Y-102968795D01*
X105117023Y-102960000D01*
X111904033Y-102960000D01*
X111849000Y-103236665D01*
X111849000Y-103519335D01*
X111904147Y-103796574D01*
X112012320Y-104057727D01*
X112169363Y-104292759D01*
X112369241Y-104492637D01*
X112604273Y-104649680D01*
X112865426Y-104757853D01*
X113142665Y-104813000D01*
X113425335Y-104813000D01*
X113702574Y-104757853D01*
X113963727Y-104649680D01*
X114198759Y-104492637D01*
X114398637Y-104292759D01*
X114554000Y-104060241D01*
X114709363Y-104292759D01*
X114909241Y-104492637D01*
X115144273Y-104649680D01*
X115405426Y-104757853D01*
X115682665Y-104813000D01*
X115965335Y-104813000D01*
X116242574Y-104757853D01*
X116503727Y-104649680D01*
X116738759Y-104492637D01*
X116938637Y-104292759D01*
X117094000Y-104060241D01*
X117249363Y-104292759D01*
X117449241Y-104492637D01*
X117684273Y-104649680D01*
X117945426Y-104757853D01*
X118222665Y-104813000D01*
X118505335Y-104813000D01*
X118782574Y-104757853D01*
X119043727Y-104649680D01*
X119278759Y-104492637D01*
X119478637Y-104292759D01*
X119634000Y-104060241D01*
X119789363Y-104292759D01*
X119989241Y-104492637D01*
X120224273Y-104649680D01*
X120485426Y-104757853D01*
X120762665Y-104813000D01*
X121045335Y-104813000D01*
X121322574Y-104757853D01*
X121583727Y-104649680D01*
X121818759Y-104492637D01*
X122018637Y-104292759D01*
X122175680Y-104057727D01*
X122180067Y-104047135D01*
X122291615Y-104233131D01*
X122480586Y-104441519D01*
X122706580Y-104609037D01*
X122960913Y-104729246D01*
X123094961Y-104769904D01*
X123317000Y-104647915D01*
X123317000Y-103505000D01*
X123297000Y-103505000D01*
X123297000Y-103251000D01*
X123317000Y-103251000D01*
X123317000Y-103231000D01*
X123571000Y-103231000D01*
X123571000Y-103251000D01*
X123591000Y-103251000D01*
X123591000Y-103505000D01*
X123571000Y-103505000D01*
X123571000Y-104647915D01*
X123793039Y-104769904D01*
X123927087Y-104729246D01*
X124181420Y-104609037D01*
X124407414Y-104441519D01*
X124596385Y-104233131D01*
X124707933Y-104047135D01*
X124712320Y-104057727D01*
X124869363Y-104292759D01*
X125069241Y-104492637D01*
X125304273Y-104649680D01*
X125565426Y-104757853D01*
X125842665Y-104813000D01*
X126125335Y-104813000D01*
X126402574Y-104757853D01*
X126663727Y-104649680D01*
X126705563Y-104621726D01*
X126577063Y-104750226D01*
X126463795Y-104919744D01*
X126385774Y-105108102D01*
X126346000Y-105308061D01*
X126346000Y-105511939D01*
X126385774Y-105711898D01*
X126463795Y-105900256D01*
X126577063Y-106069774D01*
X126721226Y-106213937D01*
X126890744Y-106327205D01*
X127079102Y-106405226D01*
X127279061Y-106445000D01*
X127482939Y-106445000D01*
X127682898Y-106405226D01*
X127871256Y-106327205D01*
X128031716Y-106219989D01*
X128101063Y-106323774D01*
X128245226Y-106467937D01*
X128414744Y-106581205D01*
X128603102Y-106659226D01*
X128803061Y-106699000D01*
X129006939Y-106699000D01*
X129206898Y-106659226D01*
X129395256Y-106581205D01*
X129564774Y-106467937D01*
X129708937Y-106323774D01*
X129822205Y-106154256D01*
X129900226Y-105965898D01*
X129940000Y-105765939D01*
X129940000Y-105562061D01*
X129900226Y-105362102D01*
X129822205Y-105173744D01*
X129708937Y-105004226D01*
X129564774Y-104860063D01*
X129395256Y-104746795D01*
X129206898Y-104668774D01*
X129173614Y-104662153D01*
X129203727Y-104649680D01*
X129438759Y-104492637D01*
X129637357Y-104294039D01*
X129638188Y-104302482D01*
X129674498Y-104422180D01*
X129733463Y-104532494D01*
X129812815Y-104629185D01*
X129909506Y-104708537D01*
X130019820Y-104767502D01*
X130139518Y-104803812D01*
X130264000Y-104816072D01*
X130778250Y-104813000D01*
X130937000Y-104654250D01*
X130937000Y-103505000D01*
X130917000Y-103505000D01*
X130917000Y-103251000D01*
X130937000Y-103251000D01*
X130937000Y-103231000D01*
X131191000Y-103231000D01*
X131191000Y-103251000D01*
X131211000Y-103251000D01*
X131211000Y-103505000D01*
X131191000Y-103505000D01*
X131191000Y-104654250D01*
X131349750Y-104813000D01*
X131864000Y-104816072D01*
X131988482Y-104803812D01*
X132020001Y-104794251D01*
X132020001Y-109924605D01*
X131978759Y-109883363D01*
X131743727Y-109726320D01*
X131482574Y-109618147D01*
X131205335Y-109563000D01*
X130922665Y-109563000D01*
X130645426Y-109618147D01*
X130384273Y-109726320D01*
X130149241Y-109883363D01*
X129949363Y-110083241D01*
X129794000Y-110315759D01*
X129638637Y-110083241D01*
X129438759Y-109883363D01*
X129203727Y-109726320D01*
X128942574Y-109618147D01*
X128665335Y-109563000D01*
X128382665Y-109563000D01*
X128105426Y-109618147D01*
X127844273Y-109726320D01*
X127609241Y-109883363D01*
X127409363Y-110083241D01*
X127254000Y-110315759D01*
X127098637Y-110083241D01*
X126898759Y-109883363D01*
X126663727Y-109726320D01*
X126402574Y-109618147D01*
X126125335Y-109563000D01*
X125842665Y-109563000D01*
X125565426Y-109618147D01*
X125304273Y-109726320D01*
X125069241Y-109883363D01*
X124869363Y-110083241D01*
X124714000Y-110315759D01*
X124558637Y-110083241D01*
X124358759Y-109883363D01*
X124123727Y-109726320D01*
X123862574Y-109618147D01*
X123585335Y-109563000D01*
X123302665Y-109563000D01*
X123025426Y-109618147D01*
X122764273Y-109726320D01*
X122529241Y-109883363D01*
X122329363Y-110083241D01*
X122174000Y-110315759D01*
X122018637Y-110083241D01*
X121818759Y-109883363D01*
X121583727Y-109726320D01*
X121322574Y-109618147D01*
X121045335Y-109563000D01*
X120762665Y-109563000D01*
X120485426Y-109618147D01*
X120224273Y-109726320D01*
X119989241Y-109883363D01*
X119789363Y-110083241D01*
X119634000Y-110315759D01*
X119478637Y-110083241D01*
X119278759Y-109883363D01*
X119043727Y-109726320D01*
X118782574Y-109618147D01*
X118505335Y-109563000D01*
X118222665Y-109563000D01*
X118058690Y-109595617D01*
X118089226Y-109521898D01*
X118129000Y-109321939D01*
X118129000Y-109118061D01*
X118089226Y-108918102D01*
X118011205Y-108729744D01*
X117897937Y-108560226D01*
X117753774Y-108416063D01*
X117584256Y-108302795D01*
X117395898Y-108224774D01*
X117195939Y-108185000D01*
X116992061Y-108185000D01*
X116792102Y-108224774D01*
X116655340Y-108281423D01*
X116627937Y-108240411D01*
X116483774Y-108096248D01*
X116314256Y-107982980D01*
X116125898Y-107904959D01*
X115925939Y-107865185D01*
X115722061Y-107865185D01*
X115548255Y-107899757D01*
X115471205Y-107713744D01*
X115357937Y-107544226D01*
X115213774Y-107400063D01*
X115044256Y-107286795D01*
X114855898Y-107208774D01*
X114655939Y-107169000D01*
X114452061Y-107169000D01*
X114252102Y-107208774D01*
X114063744Y-107286795D01*
X113894226Y-107400063D01*
X113750063Y-107544226D01*
X113636795Y-107713744D01*
X113558774Y-107902102D01*
X113519000Y-108102061D01*
X113519000Y-108305939D01*
X113558774Y-108505898D01*
X113636795Y-108694256D01*
X113750063Y-108863774D01*
X113894226Y-109007937D01*
X114063744Y-109121205D01*
X114252102Y-109199226D01*
X114452061Y-109239000D01*
X114655939Y-109239000D01*
X114829745Y-109204428D01*
X114906795Y-109390441D01*
X115020063Y-109559959D01*
X115164226Y-109704122D01*
X115177099Y-109712723D01*
X115144273Y-109726320D01*
X114909241Y-109883363D01*
X114709363Y-110083241D01*
X114554000Y-110315759D01*
X114398637Y-110083241D01*
X114198759Y-109883363D01*
X113963727Y-109726320D01*
X113702574Y-109618147D01*
X113425335Y-109563000D01*
X113142665Y-109563000D01*
X112960114Y-109599312D01*
X112488523Y-109127722D01*
X112504256Y-109121205D01*
X112673774Y-109007937D01*
X112817937Y-108863774D01*
X112931205Y-108694256D01*
X113009226Y-108505898D01*
X113049000Y-108305939D01*
X113049000Y-108102061D01*
X113009226Y-107902102D01*
X112931205Y-107713744D01*
X112817937Y-107544226D01*
X112761652Y-107487941D01*
X112804205Y-107424256D01*
X112882226Y-107235898D01*
X112922000Y-107035939D01*
X112922000Y-106832061D01*
X112882226Y-106632102D01*
X112804205Y-106443744D01*
X112690937Y-106274226D01*
X112546774Y-106130063D01*
X112377256Y-106016795D01*
X112188898Y-105938774D01*
X111988939Y-105899000D01*
X111785061Y-105899000D01*
X111585102Y-105938774D01*
X111396744Y-106016795D01*
X111227226Y-106130063D01*
X111083063Y-106274226D01*
X110969795Y-106443744D01*
X110891774Y-106632102D01*
X110852000Y-106832061D01*
X110852000Y-107035939D01*
X110891774Y-107235898D01*
X110969795Y-107424256D01*
X111083063Y-107593774D01*
X111139348Y-107650059D01*
X111096795Y-107713744D01*
X111074557Y-107767430D01*
X111024427Y-107740634D01*
X110881166Y-107697177D01*
X110769513Y-107686180D01*
X110769502Y-107686180D01*
X110732180Y-107682504D01*
X110694858Y-107686180D01*
X109158052Y-107686180D01*
X109248205Y-107551256D01*
X109326226Y-107362898D01*
X109366000Y-107162939D01*
X109366000Y-106959061D01*
X109326226Y-106759102D01*
X109248205Y-106570744D01*
X109134937Y-106401226D01*
X108990774Y-106257063D01*
X108821256Y-106143795D01*
X108632898Y-106065774D01*
X108432939Y-106026000D01*
X108229061Y-106026000D01*
X108029102Y-106065774D01*
X107840744Y-106143795D01*
X107671226Y-106257063D01*
X107527063Y-106401226D01*
X107413795Y-106570744D01*
X107335774Y-106759102D01*
X107296000Y-106959061D01*
X107296000Y-107162939D01*
X107335774Y-107362898D01*
X107364244Y-107431631D01*
X107267102Y-107450954D01*
X107078744Y-107528975D01*
X106909226Y-107642243D01*
X106765063Y-107786406D01*
X106651795Y-107955924D01*
X106573774Y-108144282D01*
X106534000Y-108344241D01*
X106534000Y-108548119D01*
X106573774Y-108748078D01*
X106651795Y-108936436D01*
X106765063Y-109105954D01*
X106891699Y-109232590D01*
X106802063Y-109322226D01*
X106688795Y-109491744D01*
X106610774Y-109680102D01*
X106571000Y-109880061D01*
X106571000Y-110083939D01*
X106610774Y-110283898D01*
X106688795Y-110472256D01*
X106802063Y-110641774D01*
X106946226Y-110785937D01*
X107115744Y-110899205D01*
X107304102Y-110977226D01*
X107305078Y-110977420D01*
X107296000Y-111023061D01*
X107296000Y-111226939D01*
X107335774Y-111426898D01*
X107413795Y-111615256D01*
X107527063Y-111784774D01*
X107671226Y-111928937D01*
X107840744Y-112042205D01*
X108029102Y-112120226D01*
X108229061Y-112160000D01*
X108432939Y-112160000D01*
X108632898Y-112120226D01*
X108821256Y-112042205D01*
X108990774Y-111928937D01*
X109134937Y-111784774D01*
X109248205Y-111615256D01*
X109326226Y-111426898D01*
X109366000Y-111226939D01*
X109366000Y-111023061D01*
X109326226Y-110823102D01*
X109248205Y-110634744D01*
X109134937Y-110465226D01*
X108990774Y-110321063D01*
X108821256Y-110207795D01*
X108632898Y-110129774D01*
X108631922Y-110129580D01*
X108641000Y-110083939D01*
X108641000Y-109880061D01*
X108601226Y-109680102D01*
X108523205Y-109491744D01*
X108409937Y-109322226D01*
X108293891Y-109206180D01*
X110417379Y-109206180D01*
X111885312Y-110674114D01*
X111849000Y-110856665D01*
X111849000Y-111139335D01*
X111904147Y-111416574D01*
X112012320Y-111677727D01*
X112169363Y-111912759D01*
X112369241Y-112112637D01*
X112581223Y-112254279D01*
X112542774Y-112347102D01*
X112503000Y-112547061D01*
X112503000Y-112750939D01*
X112542774Y-112950898D01*
X112620795Y-113139256D01*
X112734063Y-113308774D01*
X112878226Y-113452937D01*
X113047744Y-113566205D01*
X113236102Y-113644226D01*
X113436061Y-113684000D01*
X113639939Y-113684000D01*
X113839898Y-113644226D01*
X114028256Y-113566205D01*
X114135000Y-113494881D01*
X114135000Y-113679335D01*
X114190147Y-113956574D01*
X114298320Y-114217727D01*
X114455363Y-114452759D01*
X114655241Y-114652637D01*
X114890273Y-114809680D01*
X115151426Y-114917853D01*
X115428665Y-114973000D01*
X115711335Y-114973000D01*
X115988574Y-114917853D01*
X116249727Y-114809680D01*
X116484759Y-114652637D01*
X116684637Y-114452759D01*
X116840000Y-114220241D01*
X116995363Y-114452759D01*
X117195241Y-114652637D01*
X117430273Y-114809680D01*
X117691426Y-114917853D01*
X117968665Y-114973000D01*
X118147515Y-114973000D01*
X118000744Y-115033795D01*
X117831226Y-115147063D01*
X117687063Y-115291226D01*
X117573795Y-115460744D01*
X117495774Y-115649102D01*
X117456000Y-115849061D01*
X117456000Y-116052939D01*
X117495774Y-116252898D01*
X117573795Y-116441256D01*
X117687063Y-116610774D01*
X117831226Y-116754937D01*
X118000744Y-116868205D01*
X118189102Y-116946226D01*
X118389061Y-116986000D01*
X118592939Y-116986000D01*
X118792898Y-116946226D01*
X118981256Y-116868205D01*
X119150774Y-116754937D01*
X119294937Y-116610774D01*
X119392417Y-116464884D01*
X119400774Y-116506898D01*
X119478795Y-116695256D01*
X119592063Y-116864774D01*
X119736226Y-117008937D01*
X119905744Y-117122205D01*
X120094102Y-117200226D01*
X120294061Y-117240000D01*
X120497939Y-117240000D01*
X120697898Y-117200226D01*
X120886256Y-117122205D01*
X121055774Y-117008937D01*
X121199937Y-116864774D01*
X121313205Y-116695256D01*
X121391226Y-116506898D01*
X121431000Y-116306939D01*
X121431000Y-116103061D01*
X121391226Y-115903102D01*
X121368842Y-115849061D01*
X125965000Y-115849061D01*
X125965000Y-116052939D01*
X126004774Y-116252898D01*
X126082795Y-116441256D01*
X126196063Y-116610774D01*
X126340226Y-116754937D01*
X126509744Y-116868205D01*
X126698102Y-116946226D01*
X126898061Y-116986000D01*
X127101939Y-116986000D01*
X127301898Y-116946226D01*
X127490256Y-116868205D01*
X127659774Y-116754937D01*
X127803937Y-116610774D01*
X127917205Y-116441256D01*
X127995226Y-116252898D01*
X128035000Y-116052939D01*
X128035000Y-115849061D01*
X127995226Y-115649102D01*
X127917205Y-115460744D01*
X127803937Y-115291226D01*
X127659774Y-115147063D01*
X127490256Y-115033795D01*
X127301898Y-114955774D01*
X127101939Y-114916000D01*
X126898061Y-114916000D01*
X126698102Y-114955774D01*
X126509744Y-115033795D01*
X126340226Y-115147063D01*
X126196063Y-115291226D01*
X126082795Y-115460744D01*
X126004774Y-115649102D01*
X125965000Y-115849061D01*
X121368842Y-115849061D01*
X121313205Y-115714744D01*
X121199937Y-115545226D01*
X121055774Y-115401063D01*
X120886256Y-115287795D01*
X120697898Y-115209774D01*
X120497939Y-115170000D01*
X120294061Y-115170000D01*
X120094102Y-115209774D01*
X119905744Y-115287795D01*
X119736226Y-115401063D01*
X119592063Y-115545226D01*
X119494583Y-115691116D01*
X119486226Y-115649102D01*
X119408205Y-115460744D01*
X119294937Y-115291226D01*
X119150774Y-115147063D01*
X118981256Y-115033795D01*
X118792898Y-114955774D01*
X118592939Y-114916000D01*
X118533048Y-114916000D01*
X118789727Y-114809680D01*
X119024759Y-114652637D01*
X119224637Y-114452759D01*
X119380000Y-114220241D01*
X119535363Y-114452759D01*
X119735241Y-114652637D01*
X119970273Y-114809680D01*
X120231426Y-114917853D01*
X120508665Y-114973000D01*
X120791335Y-114973000D01*
X121068574Y-114917853D01*
X121329727Y-114809680D01*
X121564759Y-114652637D01*
X121764637Y-114452759D01*
X121920000Y-114220241D01*
X122075363Y-114452759D01*
X122275241Y-114652637D01*
X122510273Y-114809680D01*
X122771426Y-114917853D01*
X123048665Y-114973000D01*
X123331335Y-114973000D01*
X123608574Y-114917853D01*
X123869727Y-114809680D01*
X124104759Y-114652637D01*
X124304637Y-114452759D01*
X124460000Y-114220241D01*
X124615363Y-114452759D01*
X124815241Y-114652637D01*
X125050273Y-114809680D01*
X125311426Y-114917853D01*
X125588665Y-114973000D01*
X125871335Y-114973000D01*
X126148574Y-114917853D01*
X126409727Y-114809680D01*
X126644759Y-114652637D01*
X126844637Y-114452759D01*
X127000000Y-114220241D01*
X127155363Y-114452759D01*
X127355241Y-114652637D01*
X127590273Y-114809680D01*
X127851426Y-114917853D01*
X128128665Y-114973000D01*
X128411335Y-114973000D01*
X128688574Y-114917853D01*
X128949727Y-114809680D01*
X129184759Y-114652637D01*
X129383357Y-114454039D01*
X129384188Y-114462482D01*
X129420498Y-114582180D01*
X129479463Y-114692494D01*
X129558815Y-114789185D01*
X129655506Y-114868537D01*
X129765820Y-114927502D01*
X129885518Y-114963812D01*
X130010000Y-114976072D01*
X131610000Y-114976072D01*
X131734482Y-114963812D01*
X131854180Y-114927502D01*
X131964494Y-114868537D01*
X132020000Y-114822984D01*
X132020000Y-116331312D01*
X131927939Y-116313000D01*
X131724061Y-116313000D01*
X131524102Y-116352774D01*
X131335744Y-116430795D01*
X131166226Y-116544063D01*
X131022063Y-116688226D01*
X130908795Y-116857744D01*
X130830774Y-117046102D01*
X130791000Y-117246061D01*
X130791000Y-117449939D01*
X130830774Y-117649898D01*
X130908795Y-117838256D01*
X131022063Y-118007774D01*
X131166226Y-118151937D01*
X131335744Y-118265205D01*
X131524102Y-118343226D01*
X131724061Y-118383000D01*
X131927939Y-118383000D01*
X132020000Y-118364688D01*
X132020000Y-120398937D01*
X131962385Y-120302869D01*
X131773414Y-120094481D01*
X131547420Y-119926963D01*
X131293087Y-119806754D01*
X131159039Y-119766096D01*
X130937000Y-119888085D01*
X130937000Y-121031000D01*
X130957000Y-121031000D01*
X130957000Y-121285000D01*
X130937000Y-121285000D01*
X130937000Y-121305000D01*
X130683000Y-121305000D01*
X130683000Y-121285000D01*
X130663000Y-121285000D01*
X130663000Y-121031000D01*
X130683000Y-121031000D01*
X130683000Y-119888085D01*
X130460961Y-119766096D01*
X130326913Y-119806754D01*
X130072580Y-119926963D01*
X129846586Y-120094481D01*
X129657615Y-120302869D01*
X129546067Y-120488865D01*
X129541680Y-120478273D01*
X129384637Y-120243241D01*
X129184759Y-120043363D01*
X128949727Y-119886320D01*
X128688574Y-119778147D01*
X128411335Y-119723000D01*
X128128665Y-119723000D01*
X127851426Y-119778147D01*
X127590273Y-119886320D01*
X127355241Y-120043363D01*
X127155363Y-120243241D01*
X127000000Y-120475759D01*
X126844637Y-120243241D01*
X126644759Y-120043363D01*
X126409727Y-119886320D01*
X126148574Y-119778147D01*
X125871335Y-119723000D01*
X125588665Y-119723000D01*
X125311426Y-119778147D01*
X125050273Y-119886320D01*
X124815241Y-120043363D01*
X124615363Y-120243241D01*
X124460000Y-120475759D01*
X124304637Y-120243241D01*
X124104759Y-120043363D01*
X123869727Y-119886320D01*
X123608574Y-119778147D01*
X123331335Y-119723000D01*
X123048665Y-119723000D01*
X122771426Y-119778147D01*
X122510273Y-119886320D01*
X122275241Y-120043363D01*
X122075363Y-120243241D01*
X121920000Y-120475759D01*
X121764637Y-120243241D01*
X121564759Y-120043363D01*
X121329727Y-119886320D01*
X121068574Y-119778147D01*
X120791335Y-119723000D01*
X120508665Y-119723000D01*
X120231426Y-119778147D01*
X119970273Y-119886320D01*
X119735241Y-120043363D01*
X119535363Y-120243241D01*
X119380000Y-120475759D01*
X119224637Y-120243241D01*
X119024759Y-120043363D01*
X118789727Y-119886320D01*
X118528574Y-119778147D01*
X118251335Y-119723000D01*
X117968665Y-119723000D01*
X117691426Y-119778147D01*
X117430273Y-119886320D01*
X117195241Y-120043363D01*
X116995363Y-120243241D01*
X116840000Y-120475759D01*
X116684637Y-120243241D01*
X116484759Y-120043363D01*
X116249727Y-119886320D01*
X115988574Y-119778147D01*
X115711335Y-119723000D01*
X115428665Y-119723000D01*
X115151426Y-119778147D01*
X114890273Y-119886320D01*
X114692766Y-120018290D01*
X114654731Y-119926465D01*
X114541463Y-119756947D01*
X114397300Y-119612784D01*
X114227782Y-119499516D01*
X114039424Y-119421495D01*
X113839465Y-119381721D01*
X113635587Y-119381721D01*
X113505340Y-119407629D01*
X113435774Y-119338063D01*
X113266256Y-119224795D01*
X113077898Y-119146774D01*
X112877939Y-119107000D01*
X112674061Y-119107000D01*
X112474102Y-119146774D01*
X112285744Y-119224795D01*
X112116226Y-119338063D01*
X112033250Y-119421039D01*
X111950274Y-119338063D01*
X111780756Y-119224795D01*
X111592398Y-119146774D01*
X111392439Y-119107000D01*
X111188561Y-119107000D01*
X110988602Y-119146774D01*
X110800244Y-119224795D01*
X110630726Y-119338063D01*
X110486563Y-119482226D01*
X110373295Y-119651744D01*
X110295274Y-119840102D01*
X110255500Y-120040061D01*
X110255500Y-120243939D01*
X110295274Y-120443898D01*
X110373295Y-120632256D01*
X110486563Y-120801774D01*
X110630726Y-120945937D01*
X110800244Y-121059205D01*
X110988602Y-121137226D01*
X111188561Y-121177000D01*
X111392439Y-121177000D01*
X111592398Y-121137226D01*
X111780756Y-121059205D01*
X111950274Y-120945937D01*
X112033250Y-120862961D01*
X112116226Y-120945937D01*
X112285744Y-121059205D01*
X112474102Y-121137226D01*
X112674061Y-121177000D01*
X112877939Y-121177000D01*
X113008186Y-121151092D01*
X113077752Y-121220658D01*
X113247270Y-121333926D01*
X113435628Y-121411947D01*
X113635587Y-121451721D01*
X113839465Y-121451721D01*
X114039424Y-121411947D01*
X114148420Y-121366799D01*
X114190147Y-121576574D01*
X114298320Y-121837727D01*
X114455363Y-122072759D01*
X114522604Y-122140000D01*
X106953000Y-122140000D01*
X106953000Y-122073061D01*
X106913226Y-121873102D01*
X106835205Y-121684744D01*
X106721937Y-121515226D01*
X106577774Y-121371063D01*
X106408256Y-121257795D01*
X106219898Y-121179774D01*
X106132196Y-121162329D01*
X106258398Y-121137226D01*
X106446756Y-121059205D01*
X106616274Y-120945937D01*
X106760437Y-120801774D01*
X106873705Y-120632256D01*
X106951726Y-120443898D01*
X106991500Y-120243939D01*
X106991500Y-120040061D01*
X106951726Y-119840102D01*
X106873705Y-119651744D01*
X106760437Y-119482226D01*
X106616274Y-119338063D01*
X106446756Y-119224795D01*
X106258398Y-119146774D01*
X106058439Y-119107000D01*
X105854561Y-119107000D01*
X105654602Y-119146774D01*
X105466244Y-119224795D01*
X105296726Y-119338063D01*
X105152563Y-119482226D01*
X105039295Y-119651744D01*
X104961274Y-119840102D01*
X104921500Y-120040061D01*
X104921500Y-120243939D01*
X104961274Y-120443898D01*
X105039295Y-120632256D01*
X105152563Y-120801774D01*
X105296726Y-120945937D01*
X105466244Y-121059205D01*
X105654602Y-121137226D01*
X105742304Y-121154671D01*
X105616102Y-121179774D01*
X105427744Y-121257795D01*
X105258226Y-121371063D01*
X105114063Y-121515226D01*
X105068348Y-121583644D01*
X105057205Y-121556744D01*
X104943937Y-121387226D01*
X104799774Y-121243063D01*
X104630256Y-121129795D01*
X104441898Y-121051774D01*
X104241939Y-121012000D01*
X104038061Y-121012000D01*
X103838102Y-121051774D01*
X103649744Y-121129795D01*
X103480226Y-121243063D01*
X103336063Y-121387226D01*
X103222795Y-121556744D01*
X103144774Y-121745102D01*
X103105000Y-121945061D01*
X103105000Y-122140000D01*
X100540000Y-122140000D01*
X100540000Y-120832419D01*
X100543193Y-120800000D01*
X100530450Y-120670617D01*
X100492710Y-120546207D01*
X100431425Y-120431550D01*
X100348948Y-120331052D01*
X100248450Y-120248575D01*
X100133793Y-120187290D01*
X100009383Y-120149550D01*
X99912419Y-120140000D01*
X99880000Y-120136807D01*
X99847581Y-120140000D01*
X97167206Y-120140000D01*
X97152240Y-120130000D01*
X97326632Y-120013475D01*
X97533475Y-119806632D01*
X97695990Y-119563411D01*
X97807932Y-119293158D01*
X97863775Y-119012420D01*
X98102589Y-119171990D01*
X98372842Y-119283932D01*
X98659740Y-119341000D01*
X98952260Y-119341000D01*
X99239158Y-119283932D01*
X99509411Y-119171990D01*
X99612153Y-119103340D01*
X99666795Y-119235256D01*
X99780063Y-119404774D01*
X99924226Y-119548937D01*
X100093744Y-119662205D01*
X100282102Y-119740226D01*
X100482061Y-119780000D01*
X100685939Y-119780000D01*
X100885898Y-119740226D01*
X101074256Y-119662205D01*
X101243774Y-119548937D01*
X101387937Y-119404774D01*
X101501205Y-119235256D01*
X101579226Y-119046898D01*
X101619000Y-118846939D01*
X101619000Y-118643061D01*
X101579226Y-118443102D01*
X101501205Y-118254744D01*
X101488047Y-118235051D01*
X106282956Y-118235051D01*
X106282956Y-118438929D01*
X106322730Y-118638888D01*
X106400751Y-118827246D01*
X106514019Y-118996764D01*
X106658182Y-119140927D01*
X106827700Y-119254195D01*
X107016058Y-119332216D01*
X107216017Y-119371990D01*
X107419895Y-119371990D01*
X107619854Y-119332216D01*
X107808212Y-119254195D01*
X107977730Y-119140927D01*
X108121893Y-118996764D01*
X108235161Y-118827246D01*
X108313182Y-118638888D01*
X108337613Y-118516061D01*
X122409000Y-118516061D01*
X122409000Y-118719939D01*
X122448774Y-118919898D01*
X122526795Y-119108256D01*
X122640063Y-119277774D01*
X122784226Y-119421937D01*
X122953744Y-119535205D01*
X123142102Y-119613226D01*
X123342061Y-119653000D01*
X123545939Y-119653000D01*
X123745898Y-119613226D01*
X123934256Y-119535205D01*
X124103774Y-119421937D01*
X124247937Y-119277774D01*
X124361205Y-119108256D01*
X124439226Y-118919898D01*
X124479000Y-118719939D01*
X124479000Y-118516061D01*
X124439226Y-118316102D01*
X124361205Y-118127744D01*
X124247937Y-117958226D01*
X124103774Y-117814063D01*
X123934256Y-117700795D01*
X123745898Y-117622774D01*
X123545939Y-117583000D01*
X123342061Y-117583000D01*
X123142102Y-117622774D01*
X122953744Y-117700795D01*
X122784226Y-117814063D01*
X122640063Y-117958226D01*
X122526795Y-118127744D01*
X122448774Y-118316102D01*
X122409000Y-118516061D01*
X108337613Y-118516061D01*
X108352956Y-118438929D01*
X108352956Y-118235051D01*
X108313182Y-118035092D01*
X108235161Y-117846734D01*
X108121893Y-117677216D01*
X107977730Y-117533053D01*
X107808212Y-117419785D01*
X107619854Y-117341764D01*
X107419895Y-117301990D01*
X107216017Y-117301990D01*
X107016058Y-117341764D01*
X106827700Y-117419785D01*
X106658182Y-117533053D01*
X106514019Y-117677216D01*
X106400751Y-117846734D01*
X106322730Y-118035092D01*
X106282956Y-118235051D01*
X101488047Y-118235051D01*
X101387937Y-118085226D01*
X101288268Y-117985557D01*
X101425102Y-118042236D01*
X101625061Y-118082010D01*
X101828939Y-118082010D01*
X102028898Y-118042236D01*
X102217256Y-117964215D01*
X102386774Y-117850947D01*
X102530937Y-117706784D01*
X102644205Y-117537266D01*
X102722226Y-117348908D01*
X102762000Y-117148949D01*
X102762000Y-116945071D01*
X102722226Y-116745112D01*
X102644205Y-116556754D01*
X102610372Y-116506119D01*
X102767774Y-116400947D01*
X102911937Y-116256784D01*
X103025205Y-116087266D01*
X103103226Y-115898908D01*
X103143000Y-115698949D01*
X103143000Y-115495071D01*
X103103226Y-115295112D01*
X103025205Y-115106754D01*
X102911937Y-114937236D01*
X102767774Y-114793073D01*
X102598256Y-114679805D01*
X102594070Y-114678071D01*
X103232000Y-114678071D01*
X103232000Y-114881949D01*
X103271774Y-115081908D01*
X103349795Y-115270266D01*
X103463063Y-115439784D01*
X103607226Y-115583947D01*
X103776744Y-115697215D01*
X103965102Y-115775236D01*
X104165061Y-115815010D01*
X104368939Y-115815010D01*
X104568898Y-115775236D01*
X104757256Y-115697215D01*
X104926774Y-115583947D01*
X105015650Y-115495071D01*
X105645000Y-115495071D01*
X105645000Y-115698949D01*
X105684774Y-115898908D01*
X105762795Y-116087266D01*
X105876063Y-116256784D01*
X106020226Y-116400947D01*
X106189744Y-116514215D01*
X106378102Y-116592236D01*
X106578061Y-116632010D01*
X106781939Y-116632010D01*
X106981898Y-116592236D01*
X107170256Y-116514215D01*
X107326123Y-116410068D01*
X107394102Y-116438226D01*
X107594061Y-116478000D01*
X107797939Y-116478000D01*
X107997898Y-116438226D01*
X108186256Y-116360205D01*
X108355774Y-116246937D01*
X108499650Y-116103061D01*
X113773000Y-116103061D01*
X113773000Y-116306939D01*
X113812774Y-116506898D01*
X113890795Y-116695256D01*
X114004063Y-116864774D01*
X114148226Y-117008937D01*
X114317744Y-117122205D01*
X114506102Y-117200226D01*
X114706061Y-117240000D01*
X114909939Y-117240000D01*
X115109898Y-117200226D01*
X115298256Y-117122205D01*
X115467774Y-117008937D01*
X115611937Y-116864774D01*
X115725205Y-116695256D01*
X115803226Y-116506898D01*
X115843000Y-116306939D01*
X115843000Y-116103061D01*
X115803226Y-115903102D01*
X115725205Y-115714744D01*
X115611937Y-115545226D01*
X115467774Y-115401063D01*
X115298256Y-115287795D01*
X115109898Y-115209774D01*
X114909939Y-115170000D01*
X114706061Y-115170000D01*
X114506102Y-115209774D01*
X114317744Y-115287795D01*
X114148226Y-115401063D01*
X114004063Y-115545226D01*
X113890795Y-115714744D01*
X113812774Y-115903102D01*
X113773000Y-116103061D01*
X108499650Y-116103061D01*
X108499937Y-116102774D01*
X108613205Y-115933256D01*
X108691226Y-115744898D01*
X108731000Y-115544939D01*
X108731000Y-115341061D01*
X108691226Y-115141102D01*
X108613205Y-114952744D01*
X108499937Y-114783226D01*
X108355774Y-114639063D01*
X108186256Y-114525795D01*
X107997898Y-114447774D01*
X107797939Y-114408000D01*
X107594061Y-114408000D01*
X107394102Y-114447774D01*
X107205744Y-114525795D01*
X107049877Y-114629942D01*
X106981898Y-114601784D01*
X106781939Y-114562010D01*
X106578061Y-114562010D01*
X106378102Y-114601784D01*
X106189744Y-114679805D01*
X106020226Y-114793073D01*
X105876063Y-114937236D01*
X105762795Y-115106754D01*
X105684774Y-115295112D01*
X105645000Y-115495071D01*
X105015650Y-115495071D01*
X105070937Y-115439784D01*
X105184205Y-115270266D01*
X105262226Y-115081908D01*
X105302000Y-114881949D01*
X105302000Y-114678071D01*
X105262226Y-114478112D01*
X105184205Y-114289754D01*
X105070937Y-114120236D01*
X105038576Y-114087875D01*
X105185405Y-114027056D01*
X105354923Y-113913788D01*
X105499086Y-113769625D01*
X105612354Y-113600107D01*
X105690375Y-113411749D01*
X105730149Y-113211790D01*
X105730149Y-113055061D01*
X108058000Y-113055061D01*
X108058000Y-113258939D01*
X108097774Y-113458898D01*
X108175795Y-113647256D01*
X108289063Y-113816774D01*
X108433226Y-113960937D01*
X108602744Y-114074205D01*
X108791102Y-114152226D01*
X108991061Y-114192000D01*
X109194939Y-114192000D01*
X109394898Y-114152226D01*
X109583256Y-114074205D01*
X109752774Y-113960937D01*
X109896937Y-113816774D01*
X110010205Y-113647256D01*
X110088226Y-113458898D01*
X110128000Y-113258939D01*
X110128000Y-113055061D01*
X110088226Y-112855102D01*
X110010205Y-112666744D01*
X109896937Y-112497226D01*
X109752774Y-112353063D01*
X109583256Y-112239795D01*
X109394898Y-112161774D01*
X109194939Y-112122000D01*
X108991061Y-112122000D01*
X108791102Y-112161774D01*
X108602744Y-112239795D01*
X108433226Y-112353063D01*
X108289063Y-112497226D01*
X108175795Y-112666744D01*
X108097774Y-112855102D01*
X108058000Y-113055061D01*
X105730149Y-113055061D01*
X105730149Y-113007912D01*
X105690375Y-112807953D01*
X105612354Y-112619595D01*
X105499086Y-112450077D01*
X105354923Y-112305914D01*
X105185405Y-112192646D01*
X104997047Y-112114625D01*
X104797088Y-112074851D01*
X104593210Y-112074851D01*
X104393251Y-112114625D01*
X104204893Y-112192646D01*
X104035375Y-112305914D01*
X103891212Y-112450077D01*
X103777944Y-112619595D01*
X103699923Y-112807953D01*
X103660149Y-113007912D01*
X103660149Y-113211790D01*
X103699923Y-113411749D01*
X103777944Y-113600107D01*
X103891212Y-113769625D01*
X103923573Y-113801986D01*
X103776744Y-113862805D01*
X103607226Y-113976073D01*
X103463063Y-114120236D01*
X103349795Y-114289754D01*
X103271774Y-114478112D01*
X103232000Y-114678071D01*
X102594070Y-114678071D01*
X102409898Y-114601784D01*
X102209939Y-114562010D01*
X102006061Y-114562010D01*
X101806102Y-114601784D01*
X101617744Y-114679805D01*
X101448226Y-114793073D01*
X101304063Y-114937236D01*
X101190795Y-115106754D01*
X101112774Y-115295112D01*
X101073000Y-115495071D01*
X101073000Y-115698949D01*
X101112774Y-115898908D01*
X101190795Y-116087266D01*
X101224628Y-116137901D01*
X101067226Y-116243073D01*
X100923063Y-116387236D01*
X100809795Y-116556754D01*
X100731774Y-116745112D01*
X100692000Y-116945071D01*
X100692000Y-117148949D01*
X100731774Y-117348908D01*
X100809795Y-117537266D01*
X100923063Y-117706784D01*
X101022732Y-117806453D01*
X100885898Y-117749774D01*
X100685939Y-117710000D01*
X100482061Y-117710000D01*
X100291000Y-117748004D01*
X100291000Y-117709740D01*
X100233932Y-117422842D01*
X100121990Y-117152589D01*
X99959475Y-116909368D01*
X99752632Y-116702525D01*
X99578240Y-116586000D01*
X99752632Y-116469475D01*
X99959475Y-116262632D01*
X100121990Y-116019411D01*
X100233932Y-115749158D01*
X100291000Y-115462260D01*
X100291000Y-115169740D01*
X100233932Y-114882842D01*
X100121990Y-114612589D01*
X99959475Y-114369368D01*
X99752632Y-114162525D01*
X99578240Y-114046000D01*
X99752632Y-113929475D01*
X99959475Y-113722632D01*
X100121990Y-113479411D01*
X100233932Y-113209158D01*
X100289846Y-112928061D01*
X101454000Y-112928061D01*
X101454000Y-113131939D01*
X101493774Y-113331898D01*
X101571795Y-113520256D01*
X101685063Y-113689774D01*
X101829226Y-113833937D01*
X101998744Y-113947205D01*
X102187102Y-114025226D01*
X102387061Y-114065000D01*
X102590939Y-114065000D01*
X102790898Y-114025226D01*
X102979256Y-113947205D01*
X103148774Y-113833937D01*
X103292937Y-113689774D01*
X103406205Y-113520256D01*
X103484226Y-113331898D01*
X103524000Y-113131939D01*
X103524000Y-112928061D01*
X103484226Y-112728102D01*
X103406205Y-112539744D01*
X103292937Y-112370226D01*
X103148774Y-112226063D01*
X102979256Y-112112795D01*
X102790898Y-112034774D01*
X102590939Y-111995000D01*
X102387061Y-111995000D01*
X102187102Y-112034774D01*
X101998744Y-112112795D01*
X101829226Y-112226063D01*
X101685063Y-112370226D01*
X101571795Y-112539744D01*
X101493774Y-112728102D01*
X101454000Y-112928061D01*
X100289846Y-112928061D01*
X100291000Y-112922260D01*
X100291000Y-112629740D01*
X100233932Y-112342842D01*
X100121990Y-112072589D01*
X99959475Y-111829368D01*
X99752632Y-111622525D01*
X99578240Y-111506000D01*
X99752632Y-111389475D01*
X99959475Y-111182632D01*
X100121990Y-110939411D01*
X100233932Y-110669158D01*
X100291000Y-110382260D01*
X100291000Y-110131071D01*
X103613000Y-110131071D01*
X103613000Y-110334949D01*
X103652774Y-110534908D01*
X103730795Y-110723266D01*
X103844063Y-110892784D01*
X103988226Y-111036947D01*
X104157744Y-111150215D01*
X104346102Y-111228236D01*
X104546061Y-111268010D01*
X104749939Y-111268010D01*
X104949898Y-111228236D01*
X105138256Y-111150215D01*
X105307774Y-111036947D01*
X105451937Y-110892784D01*
X105565205Y-110723266D01*
X105643226Y-110534908D01*
X105683000Y-110334949D01*
X105683000Y-110131071D01*
X105643226Y-109931112D01*
X105565205Y-109742754D01*
X105451937Y-109573236D01*
X105307774Y-109429073D01*
X105138256Y-109315805D01*
X104949898Y-109237784D01*
X104749939Y-109198010D01*
X104546061Y-109198010D01*
X104346102Y-109237784D01*
X104157744Y-109315805D01*
X103988226Y-109429073D01*
X103844063Y-109573236D01*
X103730795Y-109742754D01*
X103652774Y-109931112D01*
X103613000Y-110131071D01*
X100291000Y-110131071D01*
X100291000Y-110089740D01*
X100233932Y-109802842D01*
X100121990Y-109532589D01*
X99959475Y-109289368D01*
X99752632Y-109082525D01*
X99578240Y-108966000D01*
X99752632Y-108849475D01*
X99959475Y-108642632D01*
X100121990Y-108399411D01*
X100233932Y-108129158D01*
X100291000Y-107842260D01*
X100291000Y-107549740D01*
X100233932Y-107262842D01*
X100121990Y-106992589D01*
X100104728Y-106966755D01*
X100282102Y-107040226D01*
X100482061Y-107080000D01*
X100685939Y-107080000D01*
X100885898Y-107040226D01*
X101074256Y-106962205D01*
X101243774Y-106848937D01*
X101387937Y-106704774D01*
X101501205Y-106535256D01*
X101579226Y-106346898D01*
X101619000Y-106146939D01*
X101619000Y-105943061D01*
X101579226Y-105743102D01*
X101556842Y-105689061D01*
X105391000Y-105689061D01*
X105391000Y-105892939D01*
X105430774Y-106092898D01*
X105508795Y-106281256D01*
X105622063Y-106450774D01*
X105766226Y-106594937D01*
X105935744Y-106708205D01*
X106124102Y-106786226D01*
X106324061Y-106826000D01*
X106527939Y-106826000D01*
X106727898Y-106786226D01*
X106916256Y-106708205D01*
X107085774Y-106594937D01*
X107229937Y-106450774D01*
X107343205Y-106281256D01*
X107421226Y-106092898D01*
X107461000Y-105892939D01*
X107461000Y-105816061D01*
X123552000Y-105816061D01*
X123552000Y-106019939D01*
X123591774Y-106219898D01*
X123669795Y-106408256D01*
X123783063Y-106577774D01*
X123927226Y-106721937D01*
X124096744Y-106835205D01*
X124285102Y-106913226D01*
X124485061Y-106953000D01*
X124688939Y-106953000D01*
X124888898Y-106913226D01*
X125077256Y-106835205D01*
X125246774Y-106721937D01*
X125390937Y-106577774D01*
X125504205Y-106408256D01*
X125582226Y-106219898D01*
X125622000Y-106019939D01*
X125622000Y-105816061D01*
X125582226Y-105616102D01*
X125504205Y-105427744D01*
X125390937Y-105258226D01*
X125246774Y-105114063D01*
X125077256Y-105000795D01*
X124888898Y-104922774D01*
X124688939Y-104883000D01*
X124485061Y-104883000D01*
X124285102Y-104922774D01*
X124096744Y-105000795D01*
X123927226Y-105114063D01*
X123783063Y-105258226D01*
X123669795Y-105427744D01*
X123591774Y-105616102D01*
X123552000Y-105816061D01*
X107461000Y-105816061D01*
X107461000Y-105689061D01*
X107421226Y-105489102D01*
X107343205Y-105300744D01*
X107229937Y-105131226D01*
X107085774Y-104987063D01*
X106916256Y-104873795D01*
X106727898Y-104795774D01*
X106527939Y-104756000D01*
X106324061Y-104756000D01*
X106124102Y-104795774D01*
X105935744Y-104873795D01*
X105766226Y-104987063D01*
X105622063Y-105131226D01*
X105508795Y-105300744D01*
X105430774Y-105489102D01*
X105391000Y-105689061D01*
X101556842Y-105689061D01*
X101501205Y-105554744D01*
X101387937Y-105385226D01*
X101243774Y-105241063D01*
X101074256Y-105127795D01*
X100885898Y-105049774D01*
X100685939Y-105010000D01*
X100482061Y-105010000D01*
X100294072Y-105047393D01*
X100294072Y-104306000D01*
X100281812Y-104181518D01*
X100245502Y-104061820D01*
X100186537Y-103951506D01*
X100107185Y-103854815D01*
X100010494Y-103775463D01*
X99900180Y-103716498D01*
X99780482Y-103680188D01*
X99656000Y-103667928D01*
X97956000Y-103667928D01*
X97868072Y-103676588D01*
X97868072Y-102960000D01*
X104178977Y-102960000D01*
X104157744Y-102968795D01*
G37*
X104157744Y-102968795D02*
X103988226Y-103082063D01*
X103844063Y-103226226D01*
X103730795Y-103395744D01*
X103652774Y-103584102D01*
X103613000Y-103784061D01*
X103613000Y-103987939D01*
X103652774Y-104187898D01*
X103730795Y-104376256D01*
X103844063Y-104545774D01*
X103988226Y-104689937D01*
X104157744Y-104803205D01*
X104346102Y-104881226D01*
X104546061Y-104921000D01*
X104749939Y-104921000D01*
X104949898Y-104881226D01*
X105138256Y-104803205D01*
X105307774Y-104689937D01*
X105451937Y-104545774D01*
X105565205Y-104376256D01*
X105643226Y-104187898D01*
X105683000Y-103987939D01*
X105683000Y-103784061D01*
X105643226Y-103584102D01*
X105565205Y-103395744D01*
X105451937Y-103226226D01*
X105307774Y-103082063D01*
X105138256Y-102968795D01*
X105117023Y-102960000D01*
X111904033Y-102960000D01*
X111849000Y-103236665D01*
X111849000Y-103519335D01*
X111904147Y-103796574D01*
X112012320Y-104057727D01*
X112169363Y-104292759D01*
X112369241Y-104492637D01*
X112604273Y-104649680D01*
X112865426Y-104757853D01*
X113142665Y-104813000D01*
X113425335Y-104813000D01*
X113702574Y-104757853D01*
X113963727Y-104649680D01*
X114198759Y-104492637D01*
X114398637Y-104292759D01*
X114554000Y-104060241D01*
X114709363Y-104292759D01*
X114909241Y-104492637D01*
X115144273Y-104649680D01*
X115405426Y-104757853D01*
X115682665Y-104813000D01*
X115965335Y-104813000D01*
X116242574Y-104757853D01*
X116503727Y-104649680D01*
X116738759Y-104492637D01*
X116938637Y-104292759D01*
X117094000Y-104060241D01*
X117249363Y-104292759D01*
X117449241Y-104492637D01*
X117684273Y-104649680D01*
X117945426Y-104757853D01*
X118222665Y-104813000D01*
X118505335Y-104813000D01*
X118782574Y-104757853D01*
X119043727Y-104649680D01*
X119278759Y-104492637D01*
X119478637Y-104292759D01*
X119634000Y-104060241D01*
X119789363Y-104292759D01*
X119989241Y-104492637D01*
X120224273Y-104649680D01*
X120485426Y-104757853D01*
X120762665Y-104813000D01*
X121045335Y-104813000D01*
X121322574Y-104757853D01*
X121583727Y-104649680D01*
X121818759Y-104492637D01*
X122018637Y-104292759D01*
X122175680Y-104057727D01*
X122180067Y-104047135D01*
X122291615Y-104233131D01*
X122480586Y-104441519D01*
X122706580Y-104609037D01*
X122960913Y-104729246D01*
X123094961Y-104769904D01*
X123317000Y-104647915D01*
X123317000Y-103505000D01*
X123297000Y-103505000D01*
X123297000Y-103251000D01*
X123317000Y-103251000D01*
X123317000Y-103231000D01*
X123571000Y-103231000D01*
X123571000Y-103251000D01*
X123591000Y-103251000D01*
X123591000Y-103505000D01*
X123571000Y-103505000D01*
X123571000Y-104647915D01*
X123793039Y-104769904D01*
X123927087Y-104729246D01*
X124181420Y-104609037D01*
X124407414Y-104441519D01*
X124596385Y-104233131D01*
X124707933Y-104047135D01*
X124712320Y-104057727D01*
X124869363Y-104292759D01*
X125069241Y-104492637D01*
X125304273Y-104649680D01*
X125565426Y-104757853D01*
X125842665Y-104813000D01*
X126125335Y-104813000D01*
X126402574Y-104757853D01*
X126663727Y-104649680D01*
X126705563Y-104621726D01*
X126577063Y-104750226D01*
X126463795Y-104919744D01*
X126385774Y-105108102D01*
X126346000Y-105308061D01*
X126346000Y-105511939D01*
X126385774Y-105711898D01*
X126463795Y-105900256D01*
X126577063Y-106069774D01*
X126721226Y-106213937D01*
X126890744Y-106327205D01*
X127079102Y-106405226D01*
X127279061Y-106445000D01*
X127482939Y-106445000D01*
X127682898Y-106405226D01*
X127871256Y-106327205D01*
X128031716Y-106219989D01*
X128101063Y-106323774D01*
X128245226Y-106467937D01*
X128414744Y-106581205D01*
X128603102Y-106659226D01*
X128803061Y-106699000D01*
X129006939Y-106699000D01*
X129206898Y-106659226D01*
X129395256Y-106581205D01*
X129564774Y-106467937D01*
X129708937Y-106323774D01*
X129822205Y-106154256D01*
X129900226Y-105965898D01*
X129940000Y-105765939D01*
X129940000Y-105562061D01*
X129900226Y-105362102D01*
X129822205Y-105173744D01*
X129708937Y-105004226D01*
X129564774Y-104860063D01*
X129395256Y-104746795D01*
X129206898Y-104668774D01*
X129173614Y-104662153D01*
X129203727Y-104649680D01*
X129438759Y-104492637D01*
X129637357Y-104294039D01*
X129638188Y-104302482D01*
X129674498Y-104422180D01*
X129733463Y-104532494D01*
X129812815Y-104629185D01*
X129909506Y-104708537D01*
X130019820Y-104767502D01*
X130139518Y-104803812D01*
X130264000Y-104816072D01*
X130778250Y-104813000D01*
X130937000Y-104654250D01*
X130937000Y-103505000D01*
X130917000Y-103505000D01*
X130917000Y-103251000D01*
X130937000Y-103251000D01*
X130937000Y-103231000D01*
X131191000Y-103231000D01*
X131191000Y-103251000D01*
X131211000Y-103251000D01*
X131211000Y-103505000D01*
X131191000Y-103505000D01*
X131191000Y-104654250D01*
X131349750Y-104813000D01*
X131864000Y-104816072D01*
X131988482Y-104803812D01*
X132020001Y-104794251D01*
X132020001Y-109924605D01*
X131978759Y-109883363D01*
X131743727Y-109726320D01*
X131482574Y-109618147D01*
X131205335Y-109563000D01*
X130922665Y-109563000D01*
X130645426Y-109618147D01*
X130384273Y-109726320D01*
X130149241Y-109883363D01*
X129949363Y-110083241D01*
X129794000Y-110315759D01*
X129638637Y-110083241D01*
X129438759Y-109883363D01*
X129203727Y-109726320D01*
X128942574Y-109618147D01*
X128665335Y-109563000D01*
X128382665Y-109563000D01*
X128105426Y-109618147D01*
X127844273Y-109726320D01*
X127609241Y-109883363D01*
X127409363Y-110083241D01*
X127254000Y-110315759D01*
X127098637Y-110083241D01*
X126898759Y-109883363D01*
X126663727Y-109726320D01*
X126402574Y-109618147D01*
X126125335Y-109563000D01*
X125842665Y-109563000D01*
X125565426Y-109618147D01*
X125304273Y-109726320D01*
X125069241Y-109883363D01*
X124869363Y-110083241D01*
X124714000Y-110315759D01*
X124558637Y-110083241D01*
X124358759Y-109883363D01*
X124123727Y-109726320D01*
X123862574Y-109618147D01*
X123585335Y-109563000D01*
X123302665Y-109563000D01*
X123025426Y-109618147D01*
X122764273Y-109726320D01*
X122529241Y-109883363D01*
X122329363Y-110083241D01*
X122174000Y-110315759D01*
X122018637Y-110083241D01*
X121818759Y-109883363D01*
X121583727Y-109726320D01*
X121322574Y-109618147D01*
X121045335Y-109563000D01*
X120762665Y-109563000D01*
X120485426Y-109618147D01*
X120224273Y-109726320D01*
X119989241Y-109883363D01*
X119789363Y-110083241D01*
X119634000Y-110315759D01*
X119478637Y-110083241D01*
X119278759Y-109883363D01*
X119043727Y-109726320D01*
X118782574Y-109618147D01*
X118505335Y-109563000D01*
X118222665Y-109563000D01*
X118058690Y-109595617D01*
X118089226Y-109521898D01*
X118129000Y-109321939D01*
X118129000Y-109118061D01*
X118089226Y-108918102D01*
X118011205Y-108729744D01*
X117897937Y-108560226D01*
X117753774Y-108416063D01*
X117584256Y-108302795D01*
X117395898Y-108224774D01*
X117195939Y-108185000D01*
X116992061Y-108185000D01*
X116792102Y-108224774D01*
X116655340Y-108281423D01*
X116627937Y-108240411D01*
X116483774Y-108096248D01*
X116314256Y-107982980D01*
X116125898Y-107904959D01*
X115925939Y-107865185D01*
X115722061Y-107865185D01*
X115548255Y-107899757D01*
X115471205Y-107713744D01*
X115357937Y-107544226D01*
X115213774Y-107400063D01*
X115044256Y-107286795D01*
X114855898Y-107208774D01*
X114655939Y-107169000D01*
X114452061Y-107169000D01*
X114252102Y-107208774D01*
X114063744Y-107286795D01*
X113894226Y-107400063D01*
X113750063Y-107544226D01*
X113636795Y-107713744D01*
X113558774Y-107902102D01*
X113519000Y-108102061D01*
X113519000Y-108305939D01*
X113558774Y-108505898D01*
X113636795Y-108694256D01*
X113750063Y-108863774D01*
X113894226Y-109007937D01*
X114063744Y-109121205D01*
X114252102Y-109199226D01*
X114452061Y-109239000D01*
X114655939Y-109239000D01*
X114829745Y-109204428D01*
X114906795Y-109390441D01*
X115020063Y-109559959D01*
X115164226Y-109704122D01*
X115177099Y-109712723D01*
X115144273Y-109726320D01*
X114909241Y-109883363D01*
X114709363Y-110083241D01*
X114554000Y-110315759D01*
X114398637Y-110083241D01*
X114198759Y-109883363D01*
X113963727Y-109726320D01*
X113702574Y-109618147D01*
X113425335Y-109563000D01*
X113142665Y-109563000D01*
X112960114Y-109599312D01*
X112488523Y-109127722D01*
X112504256Y-109121205D01*
X112673774Y-109007937D01*
X112817937Y-108863774D01*
X112931205Y-108694256D01*
X113009226Y-108505898D01*
X113049000Y-108305939D01*
X113049000Y-108102061D01*
X113009226Y-107902102D01*
X112931205Y-107713744D01*
X112817937Y-107544226D01*
X112761652Y-107487941D01*
X112804205Y-107424256D01*
X112882226Y-107235898D01*
X112922000Y-107035939D01*
X112922000Y-106832061D01*
X112882226Y-106632102D01*
X112804205Y-106443744D01*
X112690937Y-106274226D01*
X112546774Y-106130063D01*
X112377256Y-106016795D01*
X112188898Y-105938774D01*
X111988939Y-105899000D01*
X111785061Y-105899000D01*
X111585102Y-105938774D01*
X111396744Y-106016795D01*
X111227226Y-106130063D01*
X111083063Y-106274226D01*
X110969795Y-106443744D01*
X110891774Y-106632102D01*
X110852000Y-106832061D01*
X110852000Y-107035939D01*
X110891774Y-107235898D01*
X110969795Y-107424256D01*
X111083063Y-107593774D01*
X111139348Y-107650059D01*
X111096795Y-107713744D01*
X111074557Y-107767430D01*
X111024427Y-107740634D01*
X110881166Y-107697177D01*
X110769513Y-107686180D01*
X110769502Y-107686180D01*
X110732180Y-107682504D01*
X110694858Y-107686180D01*
X109158052Y-107686180D01*
X109248205Y-107551256D01*
X109326226Y-107362898D01*
X109366000Y-107162939D01*
X109366000Y-106959061D01*
X109326226Y-106759102D01*
X109248205Y-106570744D01*
X109134937Y-106401226D01*
X108990774Y-106257063D01*
X108821256Y-106143795D01*
X108632898Y-106065774D01*
X108432939Y-106026000D01*
X108229061Y-106026000D01*
X108029102Y-106065774D01*
X107840744Y-106143795D01*
X107671226Y-106257063D01*
X107527063Y-106401226D01*
X107413795Y-106570744D01*
X107335774Y-106759102D01*
X107296000Y-106959061D01*
X107296000Y-107162939D01*
X107335774Y-107362898D01*
X107364244Y-107431631D01*
X107267102Y-107450954D01*
X107078744Y-107528975D01*
X106909226Y-107642243D01*
X106765063Y-107786406D01*
X106651795Y-107955924D01*
X106573774Y-108144282D01*
X106534000Y-108344241D01*
X106534000Y-108548119D01*
X106573774Y-108748078D01*
X106651795Y-108936436D01*
X106765063Y-109105954D01*
X106891699Y-109232590D01*
X106802063Y-109322226D01*
X106688795Y-109491744D01*
X106610774Y-109680102D01*
X106571000Y-109880061D01*
X106571000Y-110083939D01*
X106610774Y-110283898D01*
X106688795Y-110472256D01*
X106802063Y-110641774D01*
X106946226Y-110785937D01*
X107115744Y-110899205D01*
X107304102Y-110977226D01*
X107305078Y-110977420D01*
X107296000Y-111023061D01*
X107296000Y-111226939D01*
X107335774Y-111426898D01*
X107413795Y-111615256D01*
X107527063Y-111784774D01*
X107671226Y-111928937D01*
X107840744Y-112042205D01*
X108029102Y-112120226D01*
X108229061Y-112160000D01*
X108432939Y-112160000D01*
X108632898Y-112120226D01*
X108821256Y-112042205D01*
X108990774Y-111928937D01*
X109134937Y-111784774D01*
X109248205Y-111615256D01*
X109326226Y-111426898D01*
X109366000Y-111226939D01*
X109366000Y-111023061D01*
X109326226Y-110823102D01*
X109248205Y-110634744D01*
X109134937Y-110465226D01*
X108990774Y-110321063D01*
X108821256Y-110207795D01*
X108632898Y-110129774D01*
X108631922Y-110129580D01*
X108641000Y-110083939D01*
X108641000Y-109880061D01*
X108601226Y-109680102D01*
X108523205Y-109491744D01*
X108409937Y-109322226D01*
X108293891Y-109206180D01*
X110417379Y-109206180D01*
X111885312Y-110674114D01*
X111849000Y-110856665D01*
X111849000Y-111139335D01*
X111904147Y-111416574D01*
X112012320Y-111677727D01*
X112169363Y-111912759D01*
X112369241Y-112112637D01*
X112581223Y-112254279D01*
X112542774Y-112347102D01*
X112503000Y-112547061D01*
X112503000Y-112750939D01*
X112542774Y-112950898D01*
X112620795Y-113139256D01*
X112734063Y-113308774D01*
X112878226Y-113452937D01*
X113047744Y-113566205D01*
X113236102Y-113644226D01*
X113436061Y-113684000D01*
X113639939Y-113684000D01*
X113839898Y-113644226D01*
X114028256Y-113566205D01*
X114135000Y-113494881D01*
X114135000Y-113679335D01*
X114190147Y-113956574D01*
X114298320Y-114217727D01*
X114455363Y-114452759D01*
X114655241Y-114652637D01*
X114890273Y-114809680D01*
X115151426Y-114917853D01*
X115428665Y-114973000D01*
X115711335Y-114973000D01*
X115988574Y-114917853D01*
X116249727Y-114809680D01*
X116484759Y-114652637D01*
X116684637Y-114452759D01*
X116840000Y-114220241D01*
X116995363Y-114452759D01*
X117195241Y-114652637D01*
X117430273Y-114809680D01*
X117691426Y-114917853D01*
X117968665Y-114973000D01*
X118147515Y-114973000D01*
X118000744Y-115033795D01*
X117831226Y-115147063D01*
X117687063Y-115291226D01*
X117573795Y-115460744D01*
X117495774Y-115649102D01*
X117456000Y-115849061D01*
X117456000Y-116052939D01*
X117495774Y-116252898D01*
X117573795Y-116441256D01*
X117687063Y-116610774D01*
X117831226Y-116754937D01*
X118000744Y-116868205D01*
X118189102Y-116946226D01*
X118389061Y-116986000D01*
X118592939Y-116986000D01*
X118792898Y-116946226D01*
X118981256Y-116868205D01*
X119150774Y-116754937D01*
X119294937Y-116610774D01*
X119392417Y-116464884D01*
X119400774Y-116506898D01*
X119478795Y-116695256D01*
X119592063Y-116864774D01*
X119736226Y-117008937D01*
X119905744Y-117122205D01*
X120094102Y-117200226D01*
X120294061Y-117240000D01*
X120497939Y-117240000D01*
X120697898Y-117200226D01*
X120886256Y-117122205D01*
X121055774Y-117008937D01*
X121199937Y-116864774D01*
X121313205Y-116695256D01*
X121391226Y-116506898D01*
X121431000Y-116306939D01*
X121431000Y-116103061D01*
X121391226Y-115903102D01*
X121368842Y-115849061D01*
X125965000Y-115849061D01*
X125965000Y-116052939D01*
X126004774Y-116252898D01*
X126082795Y-116441256D01*
X126196063Y-116610774D01*
X126340226Y-116754937D01*
X126509744Y-116868205D01*
X126698102Y-116946226D01*
X126898061Y-116986000D01*
X127101939Y-116986000D01*
X127301898Y-116946226D01*
X127490256Y-116868205D01*
X127659774Y-116754937D01*
X127803937Y-116610774D01*
X127917205Y-116441256D01*
X127995226Y-116252898D01*
X128035000Y-116052939D01*
X128035000Y-115849061D01*
X127995226Y-115649102D01*
X127917205Y-115460744D01*
X127803937Y-115291226D01*
X127659774Y-115147063D01*
X127490256Y-115033795D01*
X127301898Y-114955774D01*
X127101939Y-114916000D01*
X126898061Y-114916000D01*
X126698102Y-114955774D01*
X126509744Y-115033795D01*
X126340226Y-115147063D01*
X126196063Y-115291226D01*
X126082795Y-115460744D01*
X126004774Y-115649102D01*
X125965000Y-115849061D01*
X121368842Y-115849061D01*
X121313205Y-115714744D01*
X121199937Y-115545226D01*
X121055774Y-115401063D01*
X120886256Y-115287795D01*
X120697898Y-115209774D01*
X120497939Y-115170000D01*
X120294061Y-115170000D01*
X120094102Y-115209774D01*
X119905744Y-115287795D01*
X119736226Y-115401063D01*
X119592063Y-115545226D01*
X119494583Y-115691116D01*
X119486226Y-115649102D01*
X119408205Y-115460744D01*
X119294937Y-115291226D01*
X119150774Y-115147063D01*
X118981256Y-115033795D01*
X118792898Y-114955774D01*
X118592939Y-114916000D01*
X118533048Y-114916000D01*
X118789727Y-114809680D01*
X119024759Y-114652637D01*
X119224637Y-114452759D01*
X119380000Y-114220241D01*
X119535363Y-114452759D01*
X119735241Y-114652637D01*
X119970273Y-114809680D01*
X120231426Y-114917853D01*
X120508665Y-114973000D01*
X120791335Y-114973000D01*
X121068574Y-114917853D01*
X121329727Y-114809680D01*
X121564759Y-114652637D01*
X121764637Y-114452759D01*
X121920000Y-114220241D01*
X122075363Y-114452759D01*
X122275241Y-114652637D01*
X122510273Y-114809680D01*
X122771426Y-114917853D01*
X123048665Y-114973000D01*
X123331335Y-114973000D01*
X123608574Y-114917853D01*
X123869727Y-114809680D01*
X124104759Y-114652637D01*
X124304637Y-114452759D01*
X124460000Y-114220241D01*
X124615363Y-114452759D01*
X124815241Y-114652637D01*
X125050273Y-114809680D01*
X125311426Y-114917853D01*
X125588665Y-114973000D01*
X125871335Y-114973000D01*
X126148574Y-114917853D01*
X126409727Y-114809680D01*
X126644759Y-114652637D01*
X126844637Y-114452759D01*
X127000000Y-114220241D01*
X127155363Y-114452759D01*
X127355241Y-114652637D01*
X127590273Y-114809680D01*
X127851426Y-114917853D01*
X128128665Y-114973000D01*
X128411335Y-114973000D01*
X128688574Y-114917853D01*
X128949727Y-114809680D01*
X129184759Y-114652637D01*
X129383357Y-114454039D01*
X129384188Y-114462482D01*
X129420498Y-114582180D01*
X129479463Y-114692494D01*
X129558815Y-114789185D01*
X129655506Y-114868537D01*
X129765820Y-114927502D01*
X129885518Y-114963812D01*
X130010000Y-114976072D01*
X131610000Y-114976072D01*
X131734482Y-114963812D01*
X131854180Y-114927502D01*
X131964494Y-114868537D01*
X132020000Y-114822984D01*
X132020000Y-116331312D01*
X131927939Y-116313000D01*
X131724061Y-116313000D01*
X131524102Y-116352774D01*
X131335744Y-116430795D01*
X131166226Y-116544063D01*
X131022063Y-116688226D01*
X130908795Y-116857744D01*
X130830774Y-117046102D01*
X130791000Y-117246061D01*
X130791000Y-117449939D01*
X130830774Y-117649898D01*
X130908795Y-117838256D01*
X131022063Y-118007774D01*
X131166226Y-118151937D01*
X131335744Y-118265205D01*
X131524102Y-118343226D01*
X131724061Y-118383000D01*
X131927939Y-118383000D01*
X132020000Y-118364688D01*
X132020000Y-120398937D01*
X131962385Y-120302869D01*
X131773414Y-120094481D01*
X131547420Y-119926963D01*
X131293087Y-119806754D01*
X131159039Y-119766096D01*
X130937000Y-119888085D01*
X130937000Y-121031000D01*
X130957000Y-121031000D01*
X130957000Y-121285000D01*
X130937000Y-121285000D01*
X130937000Y-121305000D01*
X130683000Y-121305000D01*
X130683000Y-121285000D01*
X130663000Y-121285000D01*
X130663000Y-121031000D01*
X130683000Y-121031000D01*
X130683000Y-119888085D01*
X130460961Y-119766096D01*
X130326913Y-119806754D01*
X130072580Y-119926963D01*
X129846586Y-120094481D01*
X129657615Y-120302869D01*
X129546067Y-120488865D01*
X129541680Y-120478273D01*
X129384637Y-120243241D01*
X129184759Y-120043363D01*
X128949727Y-119886320D01*
X128688574Y-119778147D01*
X128411335Y-119723000D01*
X128128665Y-119723000D01*
X127851426Y-119778147D01*
X127590273Y-119886320D01*
X127355241Y-120043363D01*
X127155363Y-120243241D01*
X127000000Y-120475759D01*
X126844637Y-120243241D01*
X126644759Y-120043363D01*
X126409727Y-119886320D01*
X126148574Y-119778147D01*
X125871335Y-119723000D01*
X125588665Y-119723000D01*
X125311426Y-119778147D01*
X125050273Y-119886320D01*
X124815241Y-120043363D01*
X124615363Y-120243241D01*
X124460000Y-120475759D01*
X124304637Y-120243241D01*
X124104759Y-120043363D01*
X123869727Y-119886320D01*
X123608574Y-119778147D01*
X123331335Y-119723000D01*
X123048665Y-119723000D01*
X122771426Y-119778147D01*
X122510273Y-119886320D01*
X122275241Y-120043363D01*
X122075363Y-120243241D01*
X121920000Y-120475759D01*
X121764637Y-120243241D01*
X121564759Y-120043363D01*
X121329727Y-119886320D01*
X121068574Y-119778147D01*
X120791335Y-119723000D01*
X120508665Y-119723000D01*
X120231426Y-119778147D01*
X119970273Y-119886320D01*
X119735241Y-120043363D01*
X119535363Y-120243241D01*
X119380000Y-120475759D01*
X119224637Y-120243241D01*
X119024759Y-120043363D01*
X118789727Y-119886320D01*
X118528574Y-119778147D01*
X118251335Y-119723000D01*
X117968665Y-119723000D01*
X117691426Y-119778147D01*
X117430273Y-119886320D01*
X117195241Y-120043363D01*
X116995363Y-120243241D01*
X116840000Y-120475759D01*
X116684637Y-120243241D01*
X116484759Y-120043363D01*
X116249727Y-119886320D01*
X115988574Y-119778147D01*
X115711335Y-119723000D01*
X115428665Y-119723000D01*
X115151426Y-119778147D01*
X114890273Y-119886320D01*
X114692766Y-120018290D01*
X114654731Y-119926465D01*
X114541463Y-119756947D01*
X114397300Y-119612784D01*
X114227782Y-119499516D01*
X114039424Y-119421495D01*
X113839465Y-119381721D01*
X113635587Y-119381721D01*
X113505340Y-119407629D01*
X113435774Y-119338063D01*
X113266256Y-119224795D01*
X113077898Y-119146774D01*
X112877939Y-119107000D01*
X112674061Y-119107000D01*
X112474102Y-119146774D01*
X112285744Y-119224795D01*
X112116226Y-119338063D01*
X112033250Y-119421039D01*
X111950274Y-119338063D01*
X111780756Y-119224795D01*
X111592398Y-119146774D01*
X111392439Y-119107000D01*
X111188561Y-119107000D01*
X110988602Y-119146774D01*
X110800244Y-119224795D01*
X110630726Y-119338063D01*
X110486563Y-119482226D01*
X110373295Y-119651744D01*
X110295274Y-119840102D01*
X110255500Y-120040061D01*
X110255500Y-120243939D01*
X110295274Y-120443898D01*
X110373295Y-120632256D01*
X110486563Y-120801774D01*
X110630726Y-120945937D01*
X110800244Y-121059205D01*
X110988602Y-121137226D01*
X111188561Y-121177000D01*
X111392439Y-121177000D01*
X111592398Y-121137226D01*
X111780756Y-121059205D01*
X111950274Y-120945937D01*
X112033250Y-120862961D01*
X112116226Y-120945937D01*
X112285744Y-121059205D01*
X112474102Y-121137226D01*
X112674061Y-121177000D01*
X112877939Y-121177000D01*
X113008186Y-121151092D01*
X113077752Y-121220658D01*
X113247270Y-121333926D01*
X113435628Y-121411947D01*
X113635587Y-121451721D01*
X113839465Y-121451721D01*
X114039424Y-121411947D01*
X114148420Y-121366799D01*
X114190147Y-121576574D01*
X114298320Y-121837727D01*
X114455363Y-122072759D01*
X114522604Y-122140000D01*
X106953000Y-122140000D01*
X106953000Y-122073061D01*
X106913226Y-121873102D01*
X106835205Y-121684744D01*
X106721937Y-121515226D01*
X106577774Y-121371063D01*
X106408256Y-121257795D01*
X106219898Y-121179774D01*
X106132196Y-121162329D01*
X106258398Y-121137226D01*
X106446756Y-121059205D01*
X106616274Y-120945937D01*
X106760437Y-120801774D01*
X106873705Y-120632256D01*
X106951726Y-120443898D01*
X106991500Y-120243939D01*
X106991500Y-120040061D01*
X106951726Y-119840102D01*
X106873705Y-119651744D01*
X106760437Y-119482226D01*
X106616274Y-119338063D01*
X106446756Y-119224795D01*
X106258398Y-119146774D01*
X106058439Y-119107000D01*
X105854561Y-119107000D01*
X105654602Y-119146774D01*
X105466244Y-119224795D01*
X105296726Y-119338063D01*
X105152563Y-119482226D01*
X105039295Y-119651744D01*
X104961274Y-119840102D01*
X104921500Y-120040061D01*
X104921500Y-120243939D01*
X104961274Y-120443898D01*
X105039295Y-120632256D01*
X105152563Y-120801774D01*
X105296726Y-120945937D01*
X105466244Y-121059205D01*
X105654602Y-121137226D01*
X105742304Y-121154671D01*
X105616102Y-121179774D01*
X105427744Y-121257795D01*
X105258226Y-121371063D01*
X105114063Y-121515226D01*
X105068348Y-121583644D01*
X105057205Y-121556744D01*
X104943937Y-121387226D01*
X104799774Y-121243063D01*
X104630256Y-121129795D01*
X104441898Y-121051774D01*
X104241939Y-121012000D01*
X104038061Y-121012000D01*
X103838102Y-121051774D01*
X103649744Y-121129795D01*
X103480226Y-121243063D01*
X103336063Y-121387226D01*
X103222795Y-121556744D01*
X103144774Y-121745102D01*
X103105000Y-121945061D01*
X103105000Y-122140000D01*
X100540000Y-122140000D01*
X100540000Y-120832419D01*
X100543193Y-120800000D01*
X100530450Y-120670617D01*
X100492710Y-120546207D01*
X100431425Y-120431550D01*
X100348948Y-120331052D01*
X100248450Y-120248575D01*
X100133793Y-120187290D01*
X100009383Y-120149550D01*
X99912419Y-120140000D01*
X99880000Y-120136807D01*
X99847581Y-120140000D01*
X97167206Y-120140000D01*
X97152240Y-120130000D01*
X97326632Y-120013475D01*
X97533475Y-119806632D01*
X97695990Y-119563411D01*
X97807932Y-119293158D01*
X97863775Y-119012420D01*
X98102589Y-119171990D01*
X98372842Y-119283932D01*
X98659740Y-119341000D01*
X98952260Y-119341000D01*
X99239158Y-119283932D01*
X99509411Y-119171990D01*
X99612153Y-119103340D01*
X99666795Y-119235256D01*
X99780063Y-119404774D01*
X99924226Y-119548937D01*
X100093744Y-119662205D01*
X100282102Y-119740226D01*
X100482061Y-119780000D01*
X100685939Y-119780000D01*
X100885898Y-119740226D01*
X101074256Y-119662205D01*
X101243774Y-119548937D01*
X101387937Y-119404774D01*
X101501205Y-119235256D01*
X101579226Y-119046898D01*
X101619000Y-118846939D01*
X101619000Y-118643061D01*
X101579226Y-118443102D01*
X101501205Y-118254744D01*
X101488047Y-118235051D01*
X106282956Y-118235051D01*
X106282956Y-118438929D01*
X106322730Y-118638888D01*
X106400751Y-118827246D01*
X106514019Y-118996764D01*
X106658182Y-119140927D01*
X106827700Y-119254195D01*
X107016058Y-119332216D01*
X107216017Y-119371990D01*
X107419895Y-119371990D01*
X107619854Y-119332216D01*
X107808212Y-119254195D01*
X107977730Y-119140927D01*
X108121893Y-118996764D01*
X108235161Y-118827246D01*
X108313182Y-118638888D01*
X108337613Y-118516061D01*
X122409000Y-118516061D01*
X122409000Y-118719939D01*
X122448774Y-118919898D01*
X122526795Y-119108256D01*
X122640063Y-119277774D01*
X122784226Y-119421937D01*
X122953744Y-119535205D01*
X123142102Y-119613226D01*
X123342061Y-119653000D01*
X123545939Y-119653000D01*
X123745898Y-119613226D01*
X123934256Y-119535205D01*
X124103774Y-119421937D01*
X124247937Y-119277774D01*
X124361205Y-119108256D01*
X124439226Y-118919898D01*
X124479000Y-118719939D01*
X124479000Y-118516061D01*
X124439226Y-118316102D01*
X124361205Y-118127744D01*
X124247937Y-117958226D01*
X124103774Y-117814063D01*
X123934256Y-117700795D01*
X123745898Y-117622774D01*
X123545939Y-117583000D01*
X123342061Y-117583000D01*
X123142102Y-117622774D01*
X122953744Y-117700795D01*
X122784226Y-117814063D01*
X122640063Y-117958226D01*
X122526795Y-118127744D01*
X122448774Y-118316102D01*
X122409000Y-118516061D01*
X108337613Y-118516061D01*
X108352956Y-118438929D01*
X108352956Y-118235051D01*
X108313182Y-118035092D01*
X108235161Y-117846734D01*
X108121893Y-117677216D01*
X107977730Y-117533053D01*
X107808212Y-117419785D01*
X107619854Y-117341764D01*
X107419895Y-117301990D01*
X107216017Y-117301990D01*
X107016058Y-117341764D01*
X106827700Y-117419785D01*
X106658182Y-117533053D01*
X106514019Y-117677216D01*
X106400751Y-117846734D01*
X106322730Y-118035092D01*
X106282956Y-118235051D01*
X101488047Y-118235051D01*
X101387937Y-118085226D01*
X101288268Y-117985557D01*
X101425102Y-118042236D01*
X101625061Y-118082010D01*
X101828939Y-118082010D01*
X102028898Y-118042236D01*
X102217256Y-117964215D01*
X102386774Y-117850947D01*
X102530937Y-117706784D01*
X102644205Y-117537266D01*
X102722226Y-117348908D01*
X102762000Y-117148949D01*
X102762000Y-116945071D01*
X102722226Y-116745112D01*
X102644205Y-116556754D01*
X102610372Y-116506119D01*
X102767774Y-116400947D01*
X102911937Y-116256784D01*
X103025205Y-116087266D01*
X103103226Y-115898908D01*
X103143000Y-115698949D01*
X103143000Y-115495071D01*
X103103226Y-115295112D01*
X103025205Y-115106754D01*
X102911937Y-114937236D01*
X102767774Y-114793073D01*
X102598256Y-114679805D01*
X102594070Y-114678071D01*
X103232000Y-114678071D01*
X103232000Y-114881949D01*
X103271774Y-115081908D01*
X103349795Y-115270266D01*
X103463063Y-115439784D01*
X103607226Y-115583947D01*
X103776744Y-115697215D01*
X103965102Y-115775236D01*
X104165061Y-115815010D01*
X104368939Y-115815010D01*
X104568898Y-115775236D01*
X104757256Y-115697215D01*
X104926774Y-115583947D01*
X105015650Y-115495071D01*
X105645000Y-115495071D01*
X105645000Y-115698949D01*
X105684774Y-115898908D01*
X105762795Y-116087266D01*
X105876063Y-116256784D01*
X106020226Y-116400947D01*
X106189744Y-116514215D01*
X106378102Y-116592236D01*
X106578061Y-116632010D01*
X106781939Y-116632010D01*
X106981898Y-116592236D01*
X107170256Y-116514215D01*
X107326123Y-116410068D01*
X107394102Y-116438226D01*
X107594061Y-116478000D01*
X107797939Y-116478000D01*
X107997898Y-116438226D01*
X108186256Y-116360205D01*
X108355774Y-116246937D01*
X108499650Y-116103061D01*
X113773000Y-116103061D01*
X113773000Y-116306939D01*
X113812774Y-116506898D01*
X113890795Y-116695256D01*
X114004063Y-116864774D01*
X114148226Y-117008937D01*
X114317744Y-117122205D01*
X114506102Y-117200226D01*
X114706061Y-117240000D01*
X114909939Y-117240000D01*
X115109898Y-117200226D01*
X115298256Y-117122205D01*
X115467774Y-117008937D01*
X115611937Y-116864774D01*
X115725205Y-116695256D01*
X115803226Y-116506898D01*
X115843000Y-116306939D01*
X115843000Y-116103061D01*
X115803226Y-115903102D01*
X115725205Y-115714744D01*
X115611937Y-115545226D01*
X115467774Y-115401063D01*
X115298256Y-115287795D01*
X115109898Y-115209774D01*
X114909939Y-115170000D01*
X114706061Y-115170000D01*
X114506102Y-115209774D01*
X114317744Y-115287795D01*
X114148226Y-115401063D01*
X114004063Y-115545226D01*
X113890795Y-115714744D01*
X113812774Y-115903102D01*
X113773000Y-116103061D01*
X108499650Y-116103061D01*
X108499937Y-116102774D01*
X108613205Y-115933256D01*
X108691226Y-115744898D01*
X108731000Y-115544939D01*
X108731000Y-115341061D01*
X108691226Y-115141102D01*
X108613205Y-114952744D01*
X108499937Y-114783226D01*
X108355774Y-114639063D01*
X108186256Y-114525795D01*
X107997898Y-114447774D01*
X107797939Y-114408000D01*
X107594061Y-114408000D01*
X107394102Y-114447774D01*
X107205744Y-114525795D01*
X107049877Y-114629942D01*
X106981898Y-114601784D01*
X106781939Y-114562010D01*
X106578061Y-114562010D01*
X106378102Y-114601784D01*
X106189744Y-114679805D01*
X106020226Y-114793073D01*
X105876063Y-114937236D01*
X105762795Y-115106754D01*
X105684774Y-115295112D01*
X105645000Y-115495071D01*
X105015650Y-115495071D01*
X105070937Y-115439784D01*
X105184205Y-115270266D01*
X105262226Y-115081908D01*
X105302000Y-114881949D01*
X105302000Y-114678071D01*
X105262226Y-114478112D01*
X105184205Y-114289754D01*
X105070937Y-114120236D01*
X105038576Y-114087875D01*
X105185405Y-114027056D01*
X105354923Y-113913788D01*
X105499086Y-113769625D01*
X105612354Y-113600107D01*
X105690375Y-113411749D01*
X105730149Y-113211790D01*
X105730149Y-113055061D01*
X108058000Y-113055061D01*
X108058000Y-113258939D01*
X108097774Y-113458898D01*
X108175795Y-113647256D01*
X108289063Y-113816774D01*
X108433226Y-113960937D01*
X108602744Y-114074205D01*
X108791102Y-114152226D01*
X108991061Y-114192000D01*
X109194939Y-114192000D01*
X109394898Y-114152226D01*
X109583256Y-114074205D01*
X109752774Y-113960937D01*
X109896937Y-113816774D01*
X110010205Y-113647256D01*
X110088226Y-113458898D01*
X110128000Y-113258939D01*
X110128000Y-113055061D01*
X110088226Y-112855102D01*
X110010205Y-112666744D01*
X109896937Y-112497226D01*
X109752774Y-112353063D01*
X109583256Y-112239795D01*
X109394898Y-112161774D01*
X109194939Y-112122000D01*
X108991061Y-112122000D01*
X108791102Y-112161774D01*
X108602744Y-112239795D01*
X108433226Y-112353063D01*
X108289063Y-112497226D01*
X108175795Y-112666744D01*
X108097774Y-112855102D01*
X108058000Y-113055061D01*
X105730149Y-113055061D01*
X105730149Y-113007912D01*
X105690375Y-112807953D01*
X105612354Y-112619595D01*
X105499086Y-112450077D01*
X105354923Y-112305914D01*
X105185405Y-112192646D01*
X104997047Y-112114625D01*
X104797088Y-112074851D01*
X104593210Y-112074851D01*
X104393251Y-112114625D01*
X104204893Y-112192646D01*
X104035375Y-112305914D01*
X103891212Y-112450077D01*
X103777944Y-112619595D01*
X103699923Y-112807953D01*
X103660149Y-113007912D01*
X103660149Y-113211790D01*
X103699923Y-113411749D01*
X103777944Y-113600107D01*
X103891212Y-113769625D01*
X103923573Y-113801986D01*
X103776744Y-113862805D01*
X103607226Y-113976073D01*
X103463063Y-114120236D01*
X103349795Y-114289754D01*
X103271774Y-114478112D01*
X103232000Y-114678071D01*
X102594070Y-114678071D01*
X102409898Y-114601784D01*
X102209939Y-114562010D01*
X102006061Y-114562010D01*
X101806102Y-114601784D01*
X101617744Y-114679805D01*
X101448226Y-114793073D01*
X101304063Y-114937236D01*
X101190795Y-115106754D01*
X101112774Y-115295112D01*
X101073000Y-115495071D01*
X101073000Y-115698949D01*
X101112774Y-115898908D01*
X101190795Y-116087266D01*
X101224628Y-116137901D01*
X101067226Y-116243073D01*
X100923063Y-116387236D01*
X100809795Y-116556754D01*
X100731774Y-116745112D01*
X100692000Y-116945071D01*
X100692000Y-117148949D01*
X100731774Y-117348908D01*
X100809795Y-117537266D01*
X100923063Y-117706784D01*
X101022732Y-117806453D01*
X100885898Y-117749774D01*
X100685939Y-117710000D01*
X100482061Y-117710000D01*
X100291000Y-117748004D01*
X100291000Y-117709740D01*
X100233932Y-117422842D01*
X100121990Y-117152589D01*
X99959475Y-116909368D01*
X99752632Y-116702525D01*
X99578240Y-116586000D01*
X99752632Y-116469475D01*
X99959475Y-116262632D01*
X100121990Y-116019411D01*
X100233932Y-115749158D01*
X100291000Y-115462260D01*
X100291000Y-115169740D01*
X100233932Y-114882842D01*
X100121990Y-114612589D01*
X99959475Y-114369368D01*
X99752632Y-114162525D01*
X99578240Y-114046000D01*
X99752632Y-113929475D01*
X99959475Y-113722632D01*
X100121990Y-113479411D01*
X100233932Y-113209158D01*
X100289846Y-112928061D01*
X101454000Y-112928061D01*
X101454000Y-113131939D01*
X101493774Y-113331898D01*
X101571795Y-113520256D01*
X101685063Y-113689774D01*
X101829226Y-113833937D01*
X101998744Y-113947205D01*
X102187102Y-114025226D01*
X102387061Y-114065000D01*
X102590939Y-114065000D01*
X102790898Y-114025226D01*
X102979256Y-113947205D01*
X103148774Y-113833937D01*
X103292937Y-113689774D01*
X103406205Y-113520256D01*
X103484226Y-113331898D01*
X103524000Y-113131939D01*
X103524000Y-112928061D01*
X103484226Y-112728102D01*
X103406205Y-112539744D01*
X103292937Y-112370226D01*
X103148774Y-112226063D01*
X102979256Y-112112795D01*
X102790898Y-112034774D01*
X102590939Y-111995000D01*
X102387061Y-111995000D01*
X102187102Y-112034774D01*
X101998744Y-112112795D01*
X101829226Y-112226063D01*
X101685063Y-112370226D01*
X101571795Y-112539744D01*
X101493774Y-112728102D01*
X101454000Y-112928061D01*
X100289846Y-112928061D01*
X100291000Y-112922260D01*
X100291000Y-112629740D01*
X100233932Y-112342842D01*
X100121990Y-112072589D01*
X99959475Y-111829368D01*
X99752632Y-111622525D01*
X99578240Y-111506000D01*
X99752632Y-111389475D01*
X99959475Y-111182632D01*
X100121990Y-110939411D01*
X100233932Y-110669158D01*
X100291000Y-110382260D01*
X100291000Y-110131071D01*
X103613000Y-110131071D01*
X103613000Y-110334949D01*
X103652774Y-110534908D01*
X103730795Y-110723266D01*
X103844063Y-110892784D01*
X103988226Y-111036947D01*
X104157744Y-111150215D01*
X104346102Y-111228236D01*
X104546061Y-111268010D01*
X104749939Y-111268010D01*
X104949898Y-111228236D01*
X105138256Y-111150215D01*
X105307774Y-111036947D01*
X105451937Y-110892784D01*
X105565205Y-110723266D01*
X105643226Y-110534908D01*
X105683000Y-110334949D01*
X105683000Y-110131071D01*
X105643226Y-109931112D01*
X105565205Y-109742754D01*
X105451937Y-109573236D01*
X105307774Y-109429073D01*
X105138256Y-109315805D01*
X104949898Y-109237784D01*
X104749939Y-109198010D01*
X104546061Y-109198010D01*
X104346102Y-109237784D01*
X104157744Y-109315805D01*
X103988226Y-109429073D01*
X103844063Y-109573236D01*
X103730795Y-109742754D01*
X103652774Y-109931112D01*
X103613000Y-110131071D01*
X100291000Y-110131071D01*
X100291000Y-110089740D01*
X100233932Y-109802842D01*
X100121990Y-109532589D01*
X99959475Y-109289368D01*
X99752632Y-109082525D01*
X99578240Y-108966000D01*
X99752632Y-108849475D01*
X99959475Y-108642632D01*
X100121990Y-108399411D01*
X100233932Y-108129158D01*
X100291000Y-107842260D01*
X100291000Y-107549740D01*
X100233932Y-107262842D01*
X100121990Y-106992589D01*
X100104728Y-106966755D01*
X100282102Y-107040226D01*
X100482061Y-107080000D01*
X100685939Y-107080000D01*
X100885898Y-107040226D01*
X101074256Y-106962205D01*
X101243774Y-106848937D01*
X101387937Y-106704774D01*
X101501205Y-106535256D01*
X101579226Y-106346898D01*
X101619000Y-106146939D01*
X101619000Y-105943061D01*
X101579226Y-105743102D01*
X101556842Y-105689061D01*
X105391000Y-105689061D01*
X105391000Y-105892939D01*
X105430774Y-106092898D01*
X105508795Y-106281256D01*
X105622063Y-106450774D01*
X105766226Y-106594937D01*
X105935744Y-106708205D01*
X106124102Y-106786226D01*
X106324061Y-106826000D01*
X106527939Y-106826000D01*
X106727898Y-106786226D01*
X106916256Y-106708205D01*
X107085774Y-106594937D01*
X107229937Y-106450774D01*
X107343205Y-106281256D01*
X107421226Y-106092898D01*
X107461000Y-105892939D01*
X107461000Y-105816061D01*
X123552000Y-105816061D01*
X123552000Y-106019939D01*
X123591774Y-106219898D01*
X123669795Y-106408256D01*
X123783063Y-106577774D01*
X123927226Y-106721937D01*
X124096744Y-106835205D01*
X124285102Y-106913226D01*
X124485061Y-106953000D01*
X124688939Y-106953000D01*
X124888898Y-106913226D01*
X125077256Y-106835205D01*
X125246774Y-106721937D01*
X125390937Y-106577774D01*
X125504205Y-106408256D01*
X125582226Y-106219898D01*
X125622000Y-106019939D01*
X125622000Y-105816061D01*
X125582226Y-105616102D01*
X125504205Y-105427744D01*
X125390937Y-105258226D01*
X125246774Y-105114063D01*
X125077256Y-105000795D01*
X124888898Y-104922774D01*
X124688939Y-104883000D01*
X124485061Y-104883000D01*
X124285102Y-104922774D01*
X124096744Y-105000795D01*
X123927226Y-105114063D01*
X123783063Y-105258226D01*
X123669795Y-105427744D01*
X123591774Y-105616102D01*
X123552000Y-105816061D01*
X107461000Y-105816061D01*
X107461000Y-105689061D01*
X107421226Y-105489102D01*
X107343205Y-105300744D01*
X107229937Y-105131226D01*
X107085774Y-104987063D01*
X106916256Y-104873795D01*
X106727898Y-104795774D01*
X106527939Y-104756000D01*
X106324061Y-104756000D01*
X106124102Y-104795774D01*
X105935744Y-104873795D01*
X105766226Y-104987063D01*
X105622063Y-105131226D01*
X105508795Y-105300744D01*
X105430774Y-105489102D01*
X105391000Y-105689061D01*
X101556842Y-105689061D01*
X101501205Y-105554744D01*
X101387937Y-105385226D01*
X101243774Y-105241063D01*
X101074256Y-105127795D01*
X100885898Y-105049774D01*
X100685939Y-105010000D01*
X100482061Y-105010000D01*
X100294072Y-105047393D01*
X100294072Y-104306000D01*
X100281812Y-104181518D01*
X100245502Y-104061820D01*
X100186537Y-103951506D01*
X100107185Y-103854815D01*
X100010494Y-103775463D01*
X99900180Y-103716498D01*
X99780482Y-103680188D01*
X99656000Y-103667928D01*
X97956000Y-103667928D01*
X97868072Y-103676588D01*
X97868072Y-102960000D01*
X104178977Y-102960000D01*
X104157744Y-102968795D01*
G36*
X92443175Y-103115901D02*
G01*
X92398524Y-103263110D01*
X92519845Y-103493000D01*
X93713000Y-103493000D01*
X93713000Y-103473000D01*
X93967000Y-103473000D01*
X93967000Y-103493000D01*
X93987000Y-103493000D01*
X93987000Y-103747000D01*
X93967000Y-103747000D01*
X93967000Y-103767000D01*
X93713000Y-103767000D01*
X93713000Y-103747000D01*
X92519845Y-103747000D01*
X92398524Y-103976890D01*
X92443175Y-104124099D01*
X92503171Y-104250059D01*
X92497937Y-104242226D01*
X92353774Y-104098063D01*
X92184256Y-103984795D01*
X91995898Y-103906774D01*
X91795939Y-103867000D01*
X91592061Y-103867000D01*
X91392102Y-103906774D01*
X91203744Y-103984795D01*
X91034226Y-104098063D01*
X90890063Y-104242226D01*
X90776795Y-104411744D01*
X90698774Y-104600102D01*
X90659000Y-104800061D01*
X90659000Y-105003939D01*
X90698774Y-105203898D01*
X90776795Y-105392256D01*
X90890063Y-105561774D01*
X91034226Y-105705937D01*
X91203744Y-105819205D01*
X91392102Y-105897226D01*
X91592061Y-105937000D01*
X91795939Y-105937000D01*
X91995898Y-105897226D01*
X92184256Y-105819205D01*
X92353774Y-105705937D01*
X92468070Y-105591641D01*
X92412068Y-105726842D01*
X92355000Y-106013740D01*
X92355000Y-106306260D01*
X92412068Y-106593158D01*
X92524010Y-106863411D01*
X92686525Y-107106632D01*
X92893368Y-107313475D01*
X93067760Y-107430000D01*
X92893368Y-107546525D01*
X92686525Y-107753368D01*
X92524010Y-107996589D01*
X92499806Y-108055023D01*
X92497937Y-108052226D01*
X92353774Y-107908063D01*
X92184256Y-107794795D01*
X91995898Y-107716774D01*
X91812863Y-107680366D01*
X91840000Y-107543939D01*
X91840000Y-107340061D01*
X91800226Y-107140102D01*
X91722205Y-106951744D01*
X91608937Y-106782226D01*
X91464774Y-106638063D01*
X91295256Y-106524795D01*
X91106898Y-106446774D01*
X90906939Y-106407000D01*
X90703061Y-106407000D01*
X90503102Y-106446774D01*
X90314744Y-106524795D01*
X90145226Y-106638063D01*
X90001063Y-106782226D01*
X89887795Y-106951744D01*
X89809774Y-107140102D01*
X89770000Y-107340061D01*
X89770000Y-107543939D01*
X89809774Y-107743898D01*
X89887795Y-107932256D01*
X90001063Y-108101774D01*
X90145226Y-108245937D01*
X90314744Y-108359205D01*
X90503102Y-108437226D01*
X90686137Y-108473634D01*
X90659000Y-108610061D01*
X90659000Y-108813939D01*
X90698774Y-109013898D01*
X90776795Y-109202256D01*
X90802626Y-109240915D01*
X90739774Y-109178063D01*
X90570256Y-109064795D01*
X90381898Y-108986774D01*
X90181939Y-108947000D01*
X89978061Y-108947000D01*
X89778102Y-108986774D01*
X89589744Y-109064795D01*
X89420226Y-109178063D01*
X89276063Y-109322226D01*
X89162795Y-109491744D01*
X89084774Y-109680102D01*
X89045000Y-109880061D01*
X89045000Y-110083939D01*
X89084774Y-110283898D01*
X89162795Y-110472256D01*
X89276063Y-110641774D01*
X89420226Y-110785937D01*
X89589744Y-110899205D01*
X89778102Y-110977226D01*
X89978061Y-111017000D01*
X90181939Y-111017000D01*
X90381898Y-110977226D01*
X90570256Y-110899205D01*
X90739774Y-110785937D01*
X90883937Y-110641774D01*
X90997205Y-110472256D01*
X91075226Y-110283898D01*
X91115000Y-110083939D01*
X91115000Y-109880061D01*
X91075226Y-109680102D01*
X90997205Y-109491744D01*
X90971374Y-109453085D01*
X91034226Y-109515937D01*
X91203744Y-109629205D01*
X91392102Y-109707226D01*
X91592061Y-109747000D01*
X91795939Y-109747000D01*
X91995898Y-109707226D01*
X92184256Y-109629205D01*
X92353774Y-109515937D01*
X92497937Y-109371774D01*
X92505943Y-109359793D01*
X92524010Y-109403411D01*
X92686525Y-109646632D01*
X92893368Y-109853475D01*
X93067760Y-109970000D01*
X92893368Y-110086525D01*
X92686525Y-110293368D01*
X92524010Y-110536589D01*
X92412068Y-110806842D01*
X92355000Y-111093740D01*
X92355000Y-111386260D01*
X92377968Y-111501725D01*
X92303939Y-111487000D01*
X92100061Y-111487000D01*
X91900102Y-111526774D01*
X91711744Y-111604795D01*
X91542226Y-111718063D01*
X91398063Y-111862226D01*
X91284795Y-112031744D01*
X91206774Y-112220102D01*
X91167000Y-112420061D01*
X91167000Y-112623939D01*
X91206774Y-112823898D01*
X91284795Y-113012256D01*
X91398063Y-113181774D01*
X91542226Y-113325937D01*
X91711744Y-113439205D01*
X91900102Y-113517226D01*
X92100061Y-113557000D01*
X92303939Y-113557000D01*
X92372997Y-113543264D01*
X92355000Y-113633740D01*
X92355000Y-113926260D01*
X92412068Y-114213158D01*
X92524010Y-114483411D01*
X92686525Y-114726632D01*
X92893368Y-114933475D01*
X93067760Y-115050000D01*
X92893368Y-115166525D01*
X92686525Y-115373368D01*
X92524010Y-115616589D01*
X92412068Y-115886842D01*
X92355000Y-116173740D01*
X92355000Y-116466260D01*
X92412068Y-116753158D01*
X92524010Y-117023411D01*
X92686525Y-117266632D01*
X92893368Y-117473475D01*
X93067760Y-117590000D01*
X92893368Y-117706525D01*
X92686525Y-117913368D01*
X92524010Y-118156589D01*
X92412068Y-118426842D01*
X92355000Y-118713740D01*
X92355000Y-119006260D01*
X92412068Y-119293158D01*
X92524010Y-119563411D01*
X92686525Y-119806632D01*
X92893368Y-120013475D01*
X93067760Y-120130000D01*
X92893368Y-120246525D01*
X92686525Y-120453368D01*
X92666087Y-120483955D01*
X92503898Y-120416774D01*
X92345163Y-120385200D01*
X92348000Y-120370939D01*
X92348000Y-120167061D01*
X92308226Y-119967102D01*
X92230205Y-119778744D01*
X92116937Y-119609226D01*
X91972774Y-119465063D01*
X91803256Y-119351795D01*
X91614898Y-119273774D01*
X91414939Y-119234000D01*
X91211061Y-119234000D01*
X91011102Y-119273774D01*
X90822744Y-119351795D01*
X90653226Y-119465063D01*
X90509063Y-119609226D01*
X90395795Y-119778744D01*
X90317774Y-119967102D01*
X90278000Y-120167061D01*
X90278000Y-120370939D01*
X90317774Y-120570898D01*
X90395795Y-120759256D01*
X90509063Y-120928774D01*
X90653226Y-121072937D01*
X90822744Y-121186205D01*
X91011102Y-121264226D01*
X91169837Y-121295800D01*
X91167000Y-121310061D01*
X91167000Y-121513939D01*
X91206774Y-121713898D01*
X91284795Y-121902256D01*
X91398063Y-122071774D01*
X91466289Y-122140000D01*
X83540000Y-122140000D01*
X83540000Y-117881061D01*
X90405000Y-117881061D01*
X90405000Y-118084939D01*
X90444774Y-118284898D01*
X90522795Y-118473256D01*
X90636063Y-118642774D01*
X90780226Y-118786937D01*
X90949744Y-118900205D01*
X91138102Y-118978226D01*
X91338061Y-119018000D01*
X91541939Y-119018000D01*
X91741898Y-118978226D01*
X91930256Y-118900205D01*
X92099774Y-118786937D01*
X92243937Y-118642774D01*
X92357205Y-118473256D01*
X92435226Y-118284898D01*
X92475000Y-118084939D01*
X92475000Y-117881061D01*
X92435226Y-117681102D01*
X92357205Y-117492744D01*
X92243937Y-117323226D01*
X92099774Y-117179063D01*
X91930256Y-117065795D01*
X91741898Y-116987774D01*
X91541939Y-116948000D01*
X91338061Y-116948000D01*
X91138102Y-116987774D01*
X90949744Y-117065795D01*
X90780226Y-117179063D01*
X90636063Y-117323226D01*
X90522795Y-117492744D01*
X90444774Y-117681102D01*
X90405000Y-117881061D01*
X83540000Y-117881061D01*
X83540000Y-102960000D01*
X92517432Y-102960000D01*
X92443175Y-103115901D01*
G37*
X92443175Y-103115901D02*
X92398524Y-103263110D01*
X92519845Y-103493000D01*
X93713000Y-103493000D01*
X93713000Y-103473000D01*
X93967000Y-103473000D01*
X93967000Y-103493000D01*
X93987000Y-103493000D01*
X93987000Y-103747000D01*
X93967000Y-103747000D01*
X93967000Y-103767000D01*
X93713000Y-103767000D01*
X93713000Y-103747000D01*
X92519845Y-103747000D01*
X92398524Y-103976890D01*
X92443175Y-104124099D01*
X92503171Y-104250059D01*
X92497937Y-104242226D01*
X92353774Y-104098063D01*
X92184256Y-103984795D01*
X91995898Y-103906774D01*
X91795939Y-103867000D01*
X91592061Y-103867000D01*
X91392102Y-103906774D01*
X91203744Y-103984795D01*
X91034226Y-104098063D01*
X90890063Y-104242226D01*
X90776795Y-104411744D01*
X90698774Y-104600102D01*
X90659000Y-104800061D01*
X90659000Y-105003939D01*
X90698774Y-105203898D01*
X90776795Y-105392256D01*
X90890063Y-105561774D01*
X91034226Y-105705937D01*
X91203744Y-105819205D01*
X91392102Y-105897226D01*
X91592061Y-105937000D01*
X91795939Y-105937000D01*
X91995898Y-105897226D01*
X92184256Y-105819205D01*
X92353774Y-105705937D01*
X92468070Y-105591641D01*
X92412068Y-105726842D01*
X92355000Y-106013740D01*
X92355000Y-106306260D01*
X92412068Y-106593158D01*
X92524010Y-106863411D01*
X92686525Y-107106632D01*
X92893368Y-107313475D01*
X93067760Y-107430000D01*
X92893368Y-107546525D01*
X92686525Y-107753368D01*
X92524010Y-107996589D01*
X92499806Y-108055023D01*
X92497937Y-108052226D01*
X92353774Y-107908063D01*
X92184256Y-107794795D01*
X91995898Y-107716774D01*
X91812863Y-107680366D01*
X91840000Y-107543939D01*
X91840000Y-107340061D01*
X91800226Y-107140102D01*
X91722205Y-106951744D01*
X91608937Y-106782226D01*
X91464774Y-106638063D01*
X91295256Y-106524795D01*
X91106898Y-106446774D01*
X90906939Y-106407000D01*
X90703061Y-106407000D01*
X90503102Y-106446774D01*
X90314744Y-106524795D01*
X90145226Y-106638063D01*
X90001063Y-106782226D01*
X89887795Y-106951744D01*
X89809774Y-107140102D01*
X89770000Y-107340061D01*
X89770000Y-107543939D01*
X89809774Y-107743898D01*
X89887795Y-107932256D01*
X90001063Y-108101774D01*
X90145226Y-108245937D01*
X90314744Y-108359205D01*
X90503102Y-108437226D01*
X90686137Y-108473634D01*
X90659000Y-108610061D01*
X90659000Y-108813939D01*
X90698774Y-109013898D01*
X90776795Y-109202256D01*
X90802626Y-109240915D01*
X90739774Y-109178063D01*
X90570256Y-109064795D01*
X90381898Y-108986774D01*
X90181939Y-108947000D01*
X89978061Y-108947000D01*
X89778102Y-108986774D01*
X89589744Y-109064795D01*
X89420226Y-109178063D01*
X89276063Y-109322226D01*
X89162795Y-109491744D01*
X89084774Y-109680102D01*
X89045000Y-109880061D01*
X89045000Y-110083939D01*
X89084774Y-110283898D01*
X89162795Y-110472256D01*
X89276063Y-110641774D01*
X89420226Y-110785937D01*
X89589744Y-110899205D01*
X89778102Y-110977226D01*
X89978061Y-111017000D01*
X90181939Y-111017000D01*
X90381898Y-110977226D01*
X90570256Y-110899205D01*
X90739774Y-110785937D01*
X90883937Y-110641774D01*
X90997205Y-110472256D01*
X91075226Y-110283898D01*
X91115000Y-110083939D01*
X91115000Y-109880061D01*
X91075226Y-109680102D01*
X90997205Y-109491744D01*
X90971374Y-109453085D01*
X91034226Y-109515937D01*
X91203744Y-109629205D01*
X91392102Y-109707226D01*
X91592061Y-109747000D01*
X91795939Y-109747000D01*
X91995898Y-109707226D01*
X92184256Y-109629205D01*
X92353774Y-109515937D01*
X92497937Y-109371774D01*
X92505943Y-109359793D01*
X92524010Y-109403411D01*
X92686525Y-109646632D01*
X92893368Y-109853475D01*
X93067760Y-109970000D01*
X92893368Y-110086525D01*
X92686525Y-110293368D01*
X92524010Y-110536589D01*
X92412068Y-110806842D01*
X92355000Y-111093740D01*
X92355000Y-111386260D01*
X92377968Y-111501725D01*
X92303939Y-111487000D01*
X92100061Y-111487000D01*
X91900102Y-111526774D01*
X91711744Y-111604795D01*
X91542226Y-111718063D01*
X91398063Y-111862226D01*
X91284795Y-112031744D01*
X91206774Y-112220102D01*
X91167000Y-112420061D01*
X91167000Y-112623939D01*
X91206774Y-112823898D01*
X91284795Y-113012256D01*
X91398063Y-113181774D01*
X91542226Y-113325937D01*
X91711744Y-113439205D01*
X91900102Y-113517226D01*
X92100061Y-113557000D01*
X92303939Y-113557000D01*
X92372997Y-113543264D01*
X92355000Y-113633740D01*
X92355000Y-113926260D01*
X92412068Y-114213158D01*
X92524010Y-114483411D01*
X92686525Y-114726632D01*
X92893368Y-114933475D01*
X93067760Y-115050000D01*
X92893368Y-115166525D01*
X92686525Y-115373368D01*
X92524010Y-115616589D01*
X92412068Y-115886842D01*
X92355000Y-116173740D01*
X92355000Y-116466260D01*
X92412068Y-116753158D01*
X92524010Y-117023411D01*
X92686525Y-117266632D01*
X92893368Y-117473475D01*
X93067760Y-117590000D01*
X92893368Y-117706525D01*
X92686525Y-117913368D01*
X92524010Y-118156589D01*
X92412068Y-118426842D01*
X92355000Y-118713740D01*
X92355000Y-119006260D01*
X92412068Y-119293158D01*
X92524010Y-119563411D01*
X92686525Y-119806632D01*
X92893368Y-120013475D01*
X93067760Y-120130000D01*
X92893368Y-120246525D01*
X92686525Y-120453368D01*
X92666087Y-120483955D01*
X92503898Y-120416774D01*
X92345163Y-120385200D01*
X92348000Y-120370939D01*
X92348000Y-120167061D01*
X92308226Y-119967102D01*
X92230205Y-119778744D01*
X92116937Y-119609226D01*
X91972774Y-119465063D01*
X91803256Y-119351795D01*
X91614898Y-119273774D01*
X91414939Y-119234000D01*
X91211061Y-119234000D01*
X91011102Y-119273774D01*
X90822744Y-119351795D01*
X90653226Y-119465063D01*
X90509063Y-119609226D01*
X90395795Y-119778744D01*
X90317774Y-119967102D01*
X90278000Y-120167061D01*
X90278000Y-120370939D01*
X90317774Y-120570898D01*
X90395795Y-120759256D01*
X90509063Y-120928774D01*
X90653226Y-121072937D01*
X90822744Y-121186205D01*
X91011102Y-121264226D01*
X91169837Y-121295800D01*
X91167000Y-121310061D01*
X91167000Y-121513939D01*
X91206774Y-121713898D01*
X91284795Y-121902256D01*
X91398063Y-122071774D01*
X91466289Y-122140000D01*
X83540000Y-122140000D01*
X83540000Y-117881061D01*
X90405000Y-117881061D01*
X90405000Y-118084939D01*
X90444774Y-118284898D01*
X90522795Y-118473256D01*
X90636063Y-118642774D01*
X90780226Y-118786937D01*
X90949744Y-118900205D01*
X91138102Y-118978226D01*
X91338061Y-119018000D01*
X91541939Y-119018000D01*
X91741898Y-118978226D01*
X91930256Y-118900205D01*
X92099774Y-118786937D01*
X92243937Y-118642774D01*
X92357205Y-118473256D01*
X92435226Y-118284898D01*
X92475000Y-118084939D01*
X92475000Y-117881061D01*
X92435226Y-117681102D01*
X92357205Y-117492744D01*
X92243937Y-117323226D01*
X92099774Y-117179063D01*
X91930256Y-117065795D01*
X91741898Y-116987774D01*
X91541939Y-116948000D01*
X91338061Y-116948000D01*
X91138102Y-116987774D01*
X90949744Y-117065795D01*
X90780226Y-117179063D01*
X90636063Y-117323226D01*
X90522795Y-117492744D01*
X90444774Y-117681102D01*
X90405000Y-117881061D01*
X83540000Y-117881061D01*
X83540000Y-102960000D01*
X92517432Y-102960000D01*
X92443175Y-103115901D01*
M02*
