G04 #@! TF.GenerationSoftware,KiCad,Pcbnew,5.1.5+dfsg1-2build2*
G04 #@! TF.CreationDate,2022-11-08T07:38:21+00:00*
G04 #@! TF.ProjectId,link-up-serial,6c696e6b-2d75-4702-9d73-657269616c2e,rev?*
G04 #@! TF.SameCoordinates,Original*
G04 #@! TF.FileFunction,Soldermask,Top*
G04 #@! TF.FilePolarity,Negative*
%FSLAX46Y46*%
G04 Gerber Fmt 4.6, Leading zero omitted, Abs format (unit mm)*
G04 Created by KiCad (PCBNEW 5.1.5+dfsg1-2build2) date 2022-11-08 07:38:21*
%MOMM*%
%LPD*%
G04 APERTURE LIST*
%ADD10C,0.100000*%
G04 APERTURE END LIST*
D10*
G36*
X96493512Y-120503927D02*
G01*
X96642812Y-120533624D01*
X96806784Y-120601544D01*
X96954354Y-120700147D01*
X97079853Y-120825646D01*
X97178456Y-120973216D01*
X97246376Y-121137188D01*
X97281000Y-121311259D01*
X97281000Y-121488741D01*
X97246376Y-121662812D01*
X97178456Y-121826784D01*
X97079853Y-121974354D01*
X96954354Y-122099853D01*
X96806784Y-122198456D01*
X96642812Y-122266376D01*
X96493512Y-122296073D01*
X96468742Y-122301000D01*
X96291258Y-122301000D01*
X96266488Y-122296073D01*
X96117188Y-122266376D01*
X95953216Y-122198456D01*
X95805646Y-122099853D01*
X95680147Y-121974354D01*
X95581544Y-121826784D01*
X95513624Y-121662812D01*
X95479000Y-121488741D01*
X95479000Y-121311259D01*
X95513624Y-121137188D01*
X95581544Y-120973216D01*
X95680147Y-120825646D01*
X95805646Y-120700147D01*
X95953216Y-120601544D01*
X96117188Y-120533624D01*
X96266488Y-120503927D01*
X96291258Y-120499000D01*
X96468742Y-120499000D01*
X96493512Y-120503927D01*
G37*
G36*
X93953512Y-120503927D02*
G01*
X94102812Y-120533624D01*
X94266784Y-120601544D01*
X94414354Y-120700147D01*
X94539853Y-120825646D01*
X94638456Y-120973216D01*
X94706376Y-121137188D01*
X94741000Y-121311259D01*
X94741000Y-121488741D01*
X94706376Y-121662812D01*
X94638456Y-121826784D01*
X94539853Y-121974354D01*
X94414354Y-122099853D01*
X94266784Y-122198456D01*
X94102812Y-122266376D01*
X93953512Y-122296073D01*
X93928742Y-122301000D01*
X93751258Y-122301000D01*
X93726488Y-122296073D01*
X93577188Y-122266376D01*
X93413216Y-122198456D01*
X93265646Y-122099853D01*
X93140147Y-121974354D01*
X93041544Y-121826784D01*
X92973624Y-121662812D01*
X92939000Y-121488741D01*
X92939000Y-121311259D01*
X92973624Y-121137188D01*
X93041544Y-120973216D01*
X93140147Y-120825646D01*
X93265646Y-120700147D01*
X93413216Y-120601544D01*
X93577188Y-120533624D01*
X93726488Y-120503927D01*
X93751258Y-120499000D01*
X93928742Y-120499000D01*
X93953512Y-120503927D01*
G37*
G36*
X120898228Y-120339703D02*
G01*
X121053100Y-120403853D01*
X121192481Y-120496985D01*
X121311015Y-120615519D01*
X121404147Y-120754900D01*
X121468297Y-120909772D01*
X121501000Y-121074184D01*
X121501000Y-121241816D01*
X121468297Y-121406228D01*
X121404147Y-121561100D01*
X121311015Y-121700481D01*
X121192481Y-121819015D01*
X121053100Y-121912147D01*
X120898228Y-121976297D01*
X120733816Y-122009000D01*
X120566184Y-122009000D01*
X120401772Y-121976297D01*
X120246900Y-121912147D01*
X120107519Y-121819015D01*
X119988985Y-121700481D01*
X119895853Y-121561100D01*
X119831703Y-121406228D01*
X119799000Y-121241816D01*
X119799000Y-121074184D01*
X119831703Y-120909772D01*
X119895853Y-120754900D01*
X119988985Y-120615519D01*
X120107519Y-120496985D01*
X120246900Y-120403853D01*
X120401772Y-120339703D01*
X120566184Y-120307000D01*
X120733816Y-120307000D01*
X120898228Y-120339703D01*
G37*
G36*
X123438228Y-120339703D02*
G01*
X123593100Y-120403853D01*
X123732481Y-120496985D01*
X123851015Y-120615519D01*
X123944147Y-120754900D01*
X124008297Y-120909772D01*
X124041000Y-121074184D01*
X124041000Y-121241816D01*
X124008297Y-121406228D01*
X123944147Y-121561100D01*
X123851015Y-121700481D01*
X123732481Y-121819015D01*
X123593100Y-121912147D01*
X123438228Y-121976297D01*
X123273816Y-122009000D01*
X123106184Y-122009000D01*
X122941772Y-121976297D01*
X122786900Y-121912147D01*
X122647519Y-121819015D01*
X122528985Y-121700481D01*
X122435853Y-121561100D01*
X122371703Y-121406228D01*
X122339000Y-121241816D01*
X122339000Y-121074184D01*
X122371703Y-120909772D01*
X122435853Y-120754900D01*
X122528985Y-120615519D01*
X122647519Y-120496985D01*
X122786900Y-120403853D01*
X122941772Y-120339703D01*
X123106184Y-120307000D01*
X123273816Y-120307000D01*
X123438228Y-120339703D01*
G37*
G36*
X131058228Y-120339703D02*
G01*
X131213100Y-120403853D01*
X131352481Y-120496985D01*
X131471015Y-120615519D01*
X131564147Y-120754900D01*
X131628297Y-120909772D01*
X131661000Y-121074184D01*
X131661000Y-121241816D01*
X131628297Y-121406228D01*
X131564147Y-121561100D01*
X131471015Y-121700481D01*
X131352481Y-121819015D01*
X131213100Y-121912147D01*
X131058228Y-121976297D01*
X130893816Y-122009000D01*
X130726184Y-122009000D01*
X130561772Y-121976297D01*
X130406900Y-121912147D01*
X130267519Y-121819015D01*
X130148985Y-121700481D01*
X130055853Y-121561100D01*
X129991703Y-121406228D01*
X129959000Y-121241816D01*
X129959000Y-121074184D01*
X129991703Y-120909772D01*
X130055853Y-120754900D01*
X130148985Y-120615519D01*
X130267519Y-120496985D01*
X130406900Y-120403853D01*
X130561772Y-120339703D01*
X130726184Y-120307000D01*
X130893816Y-120307000D01*
X131058228Y-120339703D01*
G37*
G36*
X125978228Y-120339703D02*
G01*
X126133100Y-120403853D01*
X126272481Y-120496985D01*
X126391015Y-120615519D01*
X126484147Y-120754900D01*
X126548297Y-120909772D01*
X126581000Y-121074184D01*
X126581000Y-121241816D01*
X126548297Y-121406228D01*
X126484147Y-121561100D01*
X126391015Y-121700481D01*
X126272481Y-121819015D01*
X126133100Y-121912147D01*
X125978228Y-121976297D01*
X125813816Y-122009000D01*
X125646184Y-122009000D01*
X125481772Y-121976297D01*
X125326900Y-121912147D01*
X125187519Y-121819015D01*
X125068985Y-121700481D01*
X124975853Y-121561100D01*
X124911703Y-121406228D01*
X124879000Y-121241816D01*
X124879000Y-121074184D01*
X124911703Y-120909772D01*
X124975853Y-120754900D01*
X125068985Y-120615519D01*
X125187519Y-120496985D01*
X125326900Y-120403853D01*
X125481772Y-120339703D01*
X125646184Y-120307000D01*
X125813816Y-120307000D01*
X125978228Y-120339703D01*
G37*
G36*
X128518228Y-120339703D02*
G01*
X128673100Y-120403853D01*
X128812481Y-120496985D01*
X128931015Y-120615519D01*
X129024147Y-120754900D01*
X129088297Y-120909772D01*
X129121000Y-121074184D01*
X129121000Y-121241816D01*
X129088297Y-121406228D01*
X129024147Y-121561100D01*
X128931015Y-121700481D01*
X128812481Y-121819015D01*
X128673100Y-121912147D01*
X128518228Y-121976297D01*
X128353816Y-122009000D01*
X128186184Y-122009000D01*
X128021772Y-121976297D01*
X127866900Y-121912147D01*
X127727519Y-121819015D01*
X127608985Y-121700481D01*
X127515853Y-121561100D01*
X127451703Y-121406228D01*
X127419000Y-121241816D01*
X127419000Y-121074184D01*
X127451703Y-120909772D01*
X127515853Y-120754900D01*
X127608985Y-120615519D01*
X127727519Y-120496985D01*
X127866900Y-120403853D01*
X128021772Y-120339703D01*
X128186184Y-120307000D01*
X128353816Y-120307000D01*
X128518228Y-120339703D01*
G37*
G36*
X115818228Y-120339703D02*
G01*
X115973100Y-120403853D01*
X116112481Y-120496985D01*
X116231015Y-120615519D01*
X116324147Y-120754900D01*
X116388297Y-120909772D01*
X116421000Y-121074184D01*
X116421000Y-121241816D01*
X116388297Y-121406228D01*
X116324147Y-121561100D01*
X116231015Y-121700481D01*
X116112481Y-121819015D01*
X115973100Y-121912147D01*
X115818228Y-121976297D01*
X115653816Y-122009000D01*
X115486184Y-122009000D01*
X115321772Y-121976297D01*
X115166900Y-121912147D01*
X115027519Y-121819015D01*
X114908985Y-121700481D01*
X114815853Y-121561100D01*
X114751703Y-121406228D01*
X114719000Y-121241816D01*
X114719000Y-121074184D01*
X114751703Y-120909772D01*
X114815853Y-120754900D01*
X114908985Y-120615519D01*
X115027519Y-120496985D01*
X115166900Y-120403853D01*
X115321772Y-120339703D01*
X115486184Y-120307000D01*
X115653816Y-120307000D01*
X115818228Y-120339703D01*
G37*
G36*
X118358228Y-120339703D02*
G01*
X118513100Y-120403853D01*
X118652481Y-120496985D01*
X118771015Y-120615519D01*
X118864147Y-120754900D01*
X118928297Y-120909772D01*
X118961000Y-121074184D01*
X118961000Y-121241816D01*
X118928297Y-121406228D01*
X118864147Y-121561100D01*
X118771015Y-121700481D01*
X118652481Y-121819015D01*
X118513100Y-121912147D01*
X118358228Y-121976297D01*
X118193816Y-122009000D01*
X118026184Y-122009000D01*
X117861772Y-121976297D01*
X117706900Y-121912147D01*
X117567519Y-121819015D01*
X117448985Y-121700481D01*
X117355853Y-121561100D01*
X117291703Y-121406228D01*
X117259000Y-121241816D01*
X117259000Y-121074184D01*
X117291703Y-120909772D01*
X117355853Y-120754900D01*
X117448985Y-120615519D01*
X117567519Y-120496985D01*
X117706900Y-120403853D01*
X117861772Y-120339703D01*
X118026184Y-120307000D01*
X118193816Y-120307000D01*
X118358228Y-120339703D01*
G37*
G36*
X104347928Y-119158764D02*
G01*
X104369009Y-119165160D01*
X104388445Y-119175548D01*
X104405476Y-119189524D01*
X104419452Y-119206555D01*
X104429840Y-119225991D01*
X104436236Y-119247072D01*
X104439000Y-119275140D01*
X104439000Y-119738860D01*
X104436236Y-119766928D01*
X104429840Y-119788009D01*
X104419452Y-119807445D01*
X104405476Y-119824476D01*
X104388445Y-119838452D01*
X104369009Y-119848840D01*
X104347928Y-119855236D01*
X104319860Y-119858000D01*
X102856140Y-119858000D01*
X102828072Y-119855236D01*
X102806991Y-119848840D01*
X102787555Y-119838452D01*
X102770524Y-119824476D01*
X102756548Y-119807445D01*
X102746160Y-119788009D01*
X102739764Y-119766928D01*
X102737000Y-119738860D01*
X102737000Y-119275140D01*
X102739764Y-119247072D01*
X102746160Y-119225991D01*
X102756548Y-119206555D01*
X102770524Y-119189524D01*
X102787555Y-119175548D01*
X102806991Y-119165160D01*
X102828072Y-119158764D01*
X102856140Y-119156000D01*
X104319860Y-119156000D01*
X104347928Y-119158764D01*
G37*
G36*
X111547928Y-119158764D02*
G01*
X111569009Y-119165160D01*
X111588445Y-119175548D01*
X111605476Y-119189524D01*
X111619452Y-119206555D01*
X111629840Y-119225991D01*
X111636236Y-119247072D01*
X111639000Y-119275140D01*
X111639000Y-119738860D01*
X111636236Y-119766928D01*
X111629840Y-119788009D01*
X111619452Y-119807445D01*
X111605476Y-119824476D01*
X111588445Y-119838452D01*
X111569009Y-119848840D01*
X111547928Y-119855236D01*
X111519860Y-119858000D01*
X110056140Y-119858000D01*
X110028072Y-119855236D01*
X110006991Y-119848840D01*
X109987555Y-119838452D01*
X109970524Y-119824476D01*
X109956548Y-119807445D01*
X109946160Y-119788009D01*
X109939764Y-119766928D01*
X109937000Y-119738860D01*
X109937000Y-119275140D01*
X109939764Y-119247072D01*
X109946160Y-119225991D01*
X109956548Y-119206555D01*
X109970524Y-119189524D01*
X109987555Y-119175548D01*
X110006991Y-119165160D01*
X110028072Y-119158764D01*
X110056140Y-119156000D01*
X111519860Y-119156000D01*
X111547928Y-119158764D01*
G37*
G36*
X96493512Y-117963927D02*
G01*
X96642812Y-117993624D01*
X96806784Y-118061544D01*
X96954354Y-118160147D01*
X97079853Y-118285646D01*
X97178456Y-118433216D01*
X97246376Y-118597188D01*
X97281000Y-118771259D01*
X97281000Y-118948741D01*
X97246376Y-119122812D01*
X97178456Y-119286784D01*
X97079853Y-119434354D01*
X96954354Y-119559853D01*
X96806784Y-119658456D01*
X96642812Y-119726376D01*
X96493512Y-119756073D01*
X96468742Y-119761000D01*
X96291258Y-119761000D01*
X96266488Y-119756073D01*
X96117188Y-119726376D01*
X95953216Y-119658456D01*
X95805646Y-119559853D01*
X95680147Y-119434354D01*
X95581544Y-119286784D01*
X95513624Y-119122812D01*
X95479000Y-118948741D01*
X95479000Y-118771259D01*
X95513624Y-118597188D01*
X95581544Y-118433216D01*
X95680147Y-118285646D01*
X95805646Y-118160147D01*
X95953216Y-118061544D01*
X96117188Y-117993624D01*
X96266488Y-117963927D01*
X96291258Y-117959000D01*
X96468742Y-117959000D01*
X96493512Y-117963927D01*
G37*
G36*
X93953512Y-117963927D02*
G01*
X94102812Y-117993624D01*
X94266784Y-118061544D01*
X94414354Y-118160147D01*
X94539853Y-118285646D01*
X94638456Y-118433216D01*
X94706376Y-118597188D01*
X94741000Y-118771259D01*
X94741000Y-118948741D01*
X94706376Y-119122812D01*
X94638456Y-119286784D01*
X94539853Y-119434354D01*
X94414354Y-119559853D01*
X94266784Y-119658456D01*
X94102812Y-119726376D01*
X93953512Y-119756073D01*
X93928742Y-119761000D01*
X93751258Y-119761000D01*
X93726488Y-119756073D01*
X93577188Y-119726376D01*
X93413216Y-119658456D01*
X93265646Y-119559853D01*
X93140147Y-119434354D01*
X93041544Y-119286784D01*
X92973624Y-119122812D01*
X92939000Y-118948741D01*
X92939000Y-118771259D01*
X92973624Y-118597188D01*
X93041544Y-118433216D01*
X93140147Y-118285646D01*
X93265646Y-118160147D01*
X93413216Y-118061544D01*
X93577188Y-117993624D01*
X93726488Y-117963927D01*
X93751258Y-117959000D01*
X93928742Y-117959000D01*
X93953512Y-117963927D01*
G37*
G36*
X98919512Y-116959927D02*
G01*
X99068812Y-116989624D01*
X99232784Y-117057544D01*
X99380354Y-117156147D01*
X99505853Y-117281646D01*
X99604456Y-117429216D01*
X99672376Y-117593188D01*
X99707000Y-117767259D01*
X99707000Y-117944741D01*
X99672376Y-118118812D01*
X99604456Y-118282784D01*
X99505853Y-118430354D01*
X99380354Y-118555853D01*
X99232784Y-118654456D01*
X99068812Y-118722376D01*
X98919512Y-118752073D01*
X98894742Y-118757000D01*
X98717258Y-118757000D01*
X98692488Y-118752073D01*
X98543188Y-118722376D01*
X98379216Y-118654456D01*
X98231646Y-118555853D01*
X98106147Y-118430354D01*
X98007544Y-118282784D01*
X97939624Y-118118812D01*
X97905000Y-117944741D01*
X97905000Y-117767259D01*
X97939624Y-117593188D01*
X98007544Y-117429216D01*
X98106147Y-117281646D01*
X98231646Y-117156147D01*
X98379216Y-117057544D01*
X98543188Y-116989624D01*
X98692488Y-116959927D01*
X98717258Y-116955000D01*
X98894742Y-116955000D01*
X98919512Y-116959927D01*
G37*
G36*
X111547928Y-117888764D02*
G01*
X111569009Y-117895160D01*
X111588445Y-117905548D01*
X111605476Y-117919524D01*
X111619452Y-117936555D01*
X111629840Y-117955991D01*
X111636236Y-117977072D01*
X111639000Y-118005140D01*
X111639000Y-118468860D01*
X111636236Y-118496928D01*
X111629840Y-118518009D01*
X111619452Y-118537445D01*
X111605476Y-118554476D01*
X111588445Y-118568452D01*
X111569009Y-118578840D01*
X111547928Y-118585236D01*
X111519860Y-118588000D01*
X110056140Y-118588000D01*
X110028072Y-118585236D01*
X110006991Y-118578840D01*
X109987555Y-118568452D01*
X109970524Y-118554476D01*
X109956548Y-118537445D01*
X109946160Y-118518009D01*
X109939764Y-118496928D01*
X109937000Y-118468860D01*
X109937000Y-118005140D01*
X109939764Y-117977072D01*
X109946160Y-117955991D01*
X109956548Y-117936555D01*
X109970524Y-117919524D01*
X109987555Y-117905548D01*
X110006991Y-117895160D01*
X110028072Y-117888764D01*
X110056140Y-117886000D01*
X111519860Y-117886000D01*
X111547928Y-117888764D01*
G37*
G36*
X104347928Y-117888764D02*
G01*
X104369009Y-117895160D01*
X104388445Y-117905548D01*
X104405476Y-117919524D01*
X104419452Y-117936555D01*
X104429840Y-117955991D01*
X104436236Y-117977072D01*
X104439000Y-118005140D01*
X104439000Y-118468860D01*
X104436236Y-118496928D01*
X104429840Y-118518009D01*
X104419452Y-118537445D01*
X104405476Y-118554476D01*
X104388445Y-118568452D01*
X104369009Y-118578840D01*
X104347928Y-118585236D01*
X104319860Y-118588000D01*
X102856140Y-118588000D01*
X102828072Y-118585236D01*
X102806991Y-118578840D01*
X102787555Y-118568452D01*
X102770524Y-118554476D01*
X102756548Y-118537445D01*
X102746160Y-118518009D01*
X102739764Y-118496928D01*
X102737000Y-118468860D01*
X102737000Y-118005140D01*
X102739764Y-117977072D01*
X102746160Y-117955991D01*
X102756548Y-117936555D01*
X102770524Y-117919524D01*
X102787555Y-117905548D01*
X102806991Y-117895160D01*
X102828072Y-117888764D01*
X102856140Y-117886000D01*
X104319860Y-117886000D01*
X104347928Y-117888764D01*
G37*
G36*
X104347928Y-116618764D02*
G01*
X104369009Y-116625160D01*
X104388445Y-116635548D01*
X104405476Y-116649524D01*
X104419452Y-116666555D01*
X104429840Y-116685991D01*
X104436236Y-116707072D01*
X104439000Y-116735140D01*
X104439000Y-117198860D01*
X104436236Y-117226928D01*
X104429840Y-117248009D01*
X104419452Y-117267445D01*
X104405476Y-117284476D01*
X104388445Y-117298452D01*
X104369009Y-117308840D01*
X104347928Y-117315236D01*
X104319860Y-117318000D01*
X102856140Y-117318000D01*
X102828072Y-117315236D01*
X102806991Y-117308840D01*
X102787555Y-117298452D01*
X102770524Y-117284476D01*
X102756548Y-117267445D01*
X102746160Y-117248009D01*
X102739764Y-117226928D01*
X102737000Y-117198860D01*
X102737000Y-116735140D01*
X102739764Y-116707072D01*
X102746160Y-116685991D01*
X102756548Y-116666555D01*
X102770524Y-116649524D01*
X102787555Y-116635548D01*
X102806991Y-116625160D01*
X102828072Y-116618764D01*
X102856140Y-116616000D01*
X104319860Y-116616000D01*
X104347928Y-116618764D01*
G37*
G36*
X111547928Y-116618764D02*
G01*
X111569009Y-116625160D01*
X111588445Y-116635548D01*
X111605476Y-116649524D01*
X111619452Y-116666555D01*
X111629840Y-116685991D01*
X111636236Y-116707072D01*
X111639000Y-116735140D01*
X111639000Y-117198860D01*
X111636236Y-117226928D01*
X111629840Y-117248009D01*
X111619452Y-117267445D01*
X111605476Y-117284476D01*
X111588445Y-117298452D01*
X111569009Y-117308840D01*
X111547928Y-117315236D01*
X111519860Y-117318000D01*
X110056140Y-117318000D01*
X110028072Y-117315236D01*
X110006991Y-117308840D01*
X109987555Y-117298452D01*
X109970524Y-117284476D01*
X109956548Y-117267445D01*
X109946160Y-117248009D01*
X109939764Y-117226928D01*
X109937000Y-117198860D01*
X109937000Y-116735140D01*
X109939764Y-116707072D01*
X109946160Y-116685991D01*
X109956548Y-116666555D01*
X109970524Y-116649524D01*
X109987555Y-116635548D01*
X110006991Y-116625160D01*
X110028072Y-116618764D01*
X110056140Y-116616000D01*
X111519860Y-116616000D01*
X111547928Y-116618764D01*
G37*
G36*
X93953512Y-115423927D02*
G01*
X94102812Y-115453624D01*
X94266784Y-115521544D01*
X94414354Y-115620147D01*
X94539853Y-115745646D01*
X94638456Y-115893216D01*
X94706376Y-116057188D01*
X94741000Y-116231259D01*
X94741000Y-116408741D01*
X94706376Y-116582812D01*
X94638456Y-116746784D01*
X94539853Y-116894354D01*
X94414354Y-117019853D01*
X94266784Y-117118456D01*
X94102812Y-117186376D01*
X93953512Y-117216073D01*
X93928742Y-117221000D01*
X93751258Y-117221000D01*
X93726488Y-117216073D01*
X93577188Y-117186376D01*
X93413216Y-117118456D01*
X93265646Y-117019853D01*
X93140147Y-116894354D01*
X93041544Y-116746784D01*
X92973624Y-116582812D01*
X92939000Y-116408741D01*
X92939000Y-116231259D01*
X92973624Y-116057188D01*
X93041544Y-115893216D01*
X93140147Y-115745646D01*
X93265646Y-115620147D01*
X93413216Y-115521544D01*
X93577188Y-115453624D01*
X93726488Y-115423927D01*
X93751258Y-115419000D01*
X93928742Y-115419000D01*
X93953512Y-115423927D01*
G37*
G36*
X96493512Y-115423927D02*
G01*
X96642812Y-115453624D01*
X96806784Y-115521544D01*
X96954354Y-115620147D01*
X97079853Y-115745646D01*
X97178456Y-115893216D01*
X97246376Y-116057188D01*
X97281000Y-116231259D01*
X97281000Y-116408741D01*
X97246376Y-116582812D01*
X97178456Y-116746784D01*
X97079853Y-116894354D01*
X96954354Y-117019853D01*
X96806784Y-117118456D01*
X96642812Y-117186376D01*
X96493512Y-117216073D01*
X96468742Y-117221000D01*
X96291258Y-117221000D01*
X96266488Y-117216073D01*
X96117188Y-117186376D01*
X95953216Y-117118456D01*
X95805646Y-117019853D01*
X95680147Y-116894354D01*
X95581544Y-116746784D01*
X95513624Y-116582812D01*
X95479000Y-116408741D01*
X95479000Y-116231259D01*
X95513624Y-116057188D01*
X95581544Y-115893216D01*
X95680147Y-115745646D01*
X95805646Y-115620147D01*
X95953216Y-115521544D01*
X96117188Y-115453624D01*
X96266488Y-115423927D01*
X96291258Y-115419000D01*
X96468742Y-115419000D01*
X96493512Y-115423927D01*
G37*
G36*
X98919512Y-114419927D02*
G01*
X99068812Y-114449624D01*
X99232784Y-114517544D01*
X99380354Y-114616147D01*
X99505853Y-114741646D01*
X99604456Y-114889216D01*
X99672376Y-115053188D01*
X99707000Y-115227259D01*
X99707000Y-115404741D01*
X99672376Y-115578812D01*
X99604456Y-115742784D01*
X99505853Y-115890354D01*
X99380354Y-116015853D01*
X99232784Y-116114456D01*
X99068812Y-116182376D01*
X98919512Y-116212073D01*
X98894742Y-116217000D01*
X98717258Y-116217000D01*
X98692488Y-116212073D01*
X98543188Y-116182376D01*
X98379216Y-116114456D01*
X98231646Y-116015853D01*
X98106147Y-115890354D01*
X98007544Y-115742784D01*
X97939624Y-115578812D01*
X97905000Y-115404741D01*
X97905000Y-115227259D01*
X97939624Y-115053188D01*
X98007544Y-114889216D01*
X98106147Y-114741646D01*
X98231646Y-114616147D01*
X98379216Y-114517544D01*
X98543188Y-114449624D01*
X98692488Y-114419927D01*
X98717258Y-114415000D01*
X98894742Y-114415000D01*
X98919512Y-114419927D01*
G37*
G36*
X111547928Y-115348764D02*
G01*
X111569009Y-115355160D01*
X111588445Y-115365548D01*
X111605476Y-115379524D01*
X111619452Y-115396555D01*
X111629840Y-115415991D01*
X111636236Y-115437072D01*
X111639000Y-115465140D01*
X111639000Y-115928860D01*
X111636236Y-115956928D01*
X111629840Y-115978009D01*
X111619452Y-115997445D01*
X111605476Y-116014476D01*
X111588445Y-116028452D01*
X111569009Y-116038840D01*
X111547928Y-116045236D01*
X111519860Y-116048000D01*
X110056140Y-116048000D01*
X110028072Y-116045236D01*
X110006991Y-116038840D01*
X109987555Y-116028452D01*
X109970524Y-116014476D01*
X109956548Y-115997445D01*
X109946160Y-115978009D01*
X109939764Y-115956928D01*
X109937000Y-115928860D01*
X109937000Y-115465140D01*
X109939764Y-115437072D01*
X109946160Y-115415991D01*
X109956548Y-115396555D01*
X109970524Y-115379524D01*
X109987555Y-115365548D01*
X110006991Y-115355160D01*
X110028072Y-115348764D01*
X110056140Y-115346000D01*
X111519860Y-115346000D01*
X111547928Y-115348764D01*
G37*
G36*
X104347928Y-115348764D02*
G01*
X104369009Y-115355160D01*
X104388445Y-115365548D01*
X104405476Y-115379524D01*
X104419452Y-115396555D01*
X104429840Y-115415991D01*
X104436236Y-115437072D01*
X104439000Y-115465140D01*
X104439000Y-115928860D01*
X104436236Y-115956928D01*
X104429840Y-115978009D01*
X104419452Y-115997445D01*
X104405476Y-116014476D01*
X104388445Y-116028452D01*
X104369009Y-116038840D01*
X104347928Y-116045236D01*
X104319860Y-116048000D01*
X102856140Y-116048000D01*
X102828072Y-116045236D01*
X102806991Y-116038840D01*
X102787555Y-116028452D01*
X102770524Y-116014476D01*
X102756548Y-115997445D01*
X102746160Y-115978009D01*
X102739764Y-115956928D01*
X102737000Y-115928860D01*
X102737000Y-115465140D01*
X102739764Y-115437072D01*
X102746160Y-115415991D01*
X102756548Y-115396555D01*
X102770524Y-115379524D01*
X102787555Y-115365548D01*
X102806991Y-115355160D01*
X102828072Y-115348764D01*
X102856140Y-115346000D01*
X104319860Y-115346000D01*
X104347928Y-115348764D01*
G37*
G36*
X96493512Y-112883927D02*
G01*
X96642812Y-112913624D01*
X96806784Y-112981544D01*
X96954354Y-113080147D01*
X97079853Y-113205646D01*
X97178456Y-113353216D01*
X97246376Y-113517188D01*
X97281000Y-113691259D01*
X97281000Y-113868741D01*
X97246376Y-114042812D01*
X97178456Y-114206784D01*
X97079853Y-114354354D01*
X96954354Y-114479853D01*
X96806784Y-114578456D01*
X96642812Y-114646376D01*
X96493512Y-114676073D01*
X96468742Y-114681000D01*
X96291258Y-114681000D01*
X96266488Y-114676073D01*
X96117188Y-114646376D01*
X95953216Y-114578456D01*
X95805646Y-114479853D01*
X95680147Y-114354354D01*
X95581544Y-114206784D01*
X95513624Y-114042812D01*
X95479000Y-113868741D01*
X95479000Y-113691259D01*
X95513624Y-113517188D01*
X95581544Y-113353216D01*
X95680147Y-113205646D01*
X95805646Y-113080147D01*
X95953216Y-112981544D01*
X96117188Y-112913624D01*
X96266488Y-112883927D01*
X96291258Y-112879000D01*
X96468742Y-112879000D01*
X96493512Y-112883927D01*
G37*
G36*
X93953512Y-112883927D02*
G01*
X94102812Y-112913624D01*
X94266784Y-112981544D01*
X94414354Y-113080147D01*
X94539853Y-113205646D01*
X94638456Y-113353216D01*
X94706376Y-113517188D01*
X94741000Y-113691259D01*
X94741000Y-113868741D01*
X94706376Y-114042812D01*
X94638456Y-114206784D01*
X94539853Y-114354354D01*
X94414354Y-114479853D01*
X94266784Y-114578456D01*
X94102812Y-114646376D01*
X93953512Y-114676073D01*
X93928742Y-114681000D01*
X93751258Y-114681000D01*
X93726488Y-114676073D01*
X93577188Y-114646376D01*
X93413216Y-114578456D01*
X93265646Y-114479853D01*
X93140147Y-114354354D01*
X93041544Y-114206784D01*
X92973624Y-114042812D01*
X92939000Y-113868741D01*
X92939000Y-113691259D01*
X92973624Y-113517188D01*
X93041544Y-113353216D01*
X93140147Y-113205646D01*
X93265646Y-113080147D01*
X93413216Y-112981544D01*
X93577188Y-112913624D01*
X93726488Y-112883927D01*
X93751258Y-112879000D01*
X93928742Y-112879000D01*
X93953512Y-112883927D01*
G37*
G36*
X128518228Y-112719703D02*
G01*
X128673100Y-112783853D01*
X128812481Y-112876985D01*
X128931015Y-112995519D01*
X129024147Y-113134900D01*
X129088297Y-113289772D01*
X129121000Y-113454184D01*
X129121000Y-113621816D01*
X129088297Y-113786228D01*
X129024147Y-113941100D01*
X128931015Y-114080481D01*
X128812481Y-114199015D01*
X128673100Y-114292147D01*
X128518228Y-114356297D01*
X128353816Y-114389000D01*
X128186184Y-114389000D01*
X128021772Y-114356297D01*
X127866900Y-114292147D01*
X127727519Y-114199015D01*
X127608985Y-114080481D01*
X127515853Y-113941100D01*
X127451703Y-113786228D01*
X127419000Y-113621816D01*
X127419000Y-113454184D01*
X127451703Y-113289772D01*
X127515853Y-113134900D01*
X127608985Y-112995519D01*
X127727519Y-112876985D01*
X127866900Y-112783853D01*
X128021772Y-112719703D01*
X128186184Y-112687000D01*
X128353816Y-112687000D01*
X128518228Y-112719703D01*
G37*
G36*
X115818228Y-112719703D02*
G01*
X115973100Y-112783853D01*
X116112481Y-112876985D01*
X116231015Y-112995519D01*
X116324147Y-113134900D01*
X116388297Y-113289772D01*
X116421000Y-113454184D01*
X116421000Y-113621816D01*
X116388297Y-113786228D01*
X116324147Y-113941100D01*
X116231015Y-114080481D01*
X116112481Y-114199015D01*
X115973100Y-114292147D01*
X115818228Y-114356297D01*
X115653816Y-114389000D01*
X115486184Y-114389000D01*
X115321772Y-114356297D01*
X115166900Y-114292147D01*
X115027519Y-114199015D01*
X114908985Y-114080481D01*
X114815853Y-113941100D01*
X114751703Y-113786228D01*
X114719000Y-113621816D01*
X114719000Y-113454184D01*
X114751703Y-113289772D01*
X114815853Y-113134900D01*
X114908985Y-112995519D01*
X115027519Y-112876985D01*
X115166900Y-112783853D01*
X115321772Y-112719703D01*
X115486184Y-112687000D01*
X115653816Y-112687000D01*
X115818228Y-112719703D01*
G37*
G36*
X120898228Y-112719703D02*
G01*
X121053100Y-112783853D01*
X121192481Y-112876985D01*
X121311015Y-112995519D01*
X121404147Y-113134900D01*
X121468297Y-113289772D01*
X121501000Y-113454184D01*
X121501000Y-113621816D01*
X121468297Y-113786228D01*
X121404147Y-113941100D01*
X121311015Y-114080481D01*
X121192481Y-114199015D01*
X121053100Y-114292147D01*
X120898228Y-114356297D01*
X120733816Y-114389000D01*
X120566184Y-114389000D01*
X120401772Y-114356297D01*
X120246900Y-114292147D01*
X120107519Y-114199015D01*
X119988985Y-114080481D01*
X119895853Y-113941100D01*
X119831703Y-113786228D01*
X119799000Y-113621816D01*
X119799000Y-113454184D01*
X119831703Y-113289772D01*
X119895853Y-113134900D01*
X119988985Y-112995519D01*
X120107519Y-112876985D01*
X120246900Y-112783853D01*
X120401772Y-112719703D01*
X120566184Y-112687000D01*
X120733816Y-112687000D01*
X120898228Y-112719703D01*
G37*
G36*
X123438228Y-112719703D02*
G01*
X123593100Y-112783853D01*
X123732481Y-112876985D01*
X123851015Y-112995519D01*
X123944147Y-113134900D01*
X124008297Y-113289772D01*
X124041000Y-113454184D01*
X124041000Y-113621816D01*
X124008297Y-113786228D01*
X123944147Y-113941100D01*
X123851015Y-114080481D01*
X123732481Y-114199015D01*
X123593100Y-114292147D01*
X123438228Y-114356297D01*
X123273816Y-114389000D01*
X123106184Y-114389000D01*
X122941772Y-114356297D01*
X122786900Y-114292147D01*
X122647519Y-114199015D01*
X122528985Y-114080481D01*
X122435853Y-113941100D01*
X122371703Y-113786228D01*
X122339000Y-113621816D01*
X122339000Y-113454184D01*
X122371703Y-113289772D01*
X122435853Y-113134900D01*
X122528985Y-112995519D01*
X122647519Y-112876985D01*
X122786900Y-112783853D01*
X122941772Y-112719703D01*
X123106184Y-112687000D01*
X123273816Y-112687000D01*
X123438228Y-112719703D01*
G37*
G36*
X125978228Y-112719703D02*
G01*
X126133100Y-112783853D01*
X126272481Y-112876985D01*
X126391015Y-112995519D01*
X126484147Y-113134900D01*
X126548297Y-113289772D01*
X126581000Y-113454184D01*
X126581000Y-113621816D01*
X126548297Y-113786228D01*
X126484147Y-113941100D01*
X126391015Y-114080481D01*
X126272481Y-114199015D01*
X126133100Y-114292147D01*
X125978228Y-114356297D01*
X125813816Y-114389000D01*
X125646184Y-114389000D01*
X125481772Y-114356297D01*
X125326900Y-114292147D01*
X125187519Y-114199015D01*
X125068985Y-114080481D01*
X124975853Y-113941100D01*
X124911703Y-113786228D01*
X124879000Y-113621816D01*
X124879000Y-113454184D01*
X124911703Y-113289772D01*
X124975853Y-113134900D01*
X125068985Y-112995519D01*
X125187519Y-112876985D01*
X125326900Y-112783853D01*
X125481772Y-112719703D01*
X125646184Y-112687000D01*
X125813816Y-112687000D01*
X125978228Y-112719703D01*
G37*
G36*
X131661000Y-114389000D02*
G01*
X129959000Y-114389000D01*
X129959000Y-112687000D01*
X131661000Y-112687000D01*
X131661000Y-114389000D01*
G37*
G36*
X118358228Y-112719703D02*
G01*
X118513100Y-112783853D01*
X118652481Y-112876985D01*
X118771015Y-112995519D01*
X118864147Y-113134900D01*
X118928297Y-113289772D01*
X118961000Y-113454184D01*
X118961000Y-113621816D01*
X118928297Y-113786228D01*
X118864147Y-113941100D01*
X118771015Y-114080481D01*
X118652481Y-114199015D01*
X118513100Y-114292147D01*
X118358228Y-114356297D01*
X118193816Y-114389000D01*
X118026184Y-114389000D01*
X117861772Y-114356297D01*
X117706900Y-114292147D01*
X117567519Y-114199015D01*
X117448985Y-114080481D01*
X117355853Y-113941100D01*
X117291703Y-113786228D01*
X117259000Y-113621816D01*
X117259000Y-113454184D01*
X117291703Y-113289772D01*
X117355853Y-113134900D01*
X117448985Y-112995519D01*
X117567519Y-112876985D01*
X117706900Y-112783853D01*
X117861772Y-112719703D01*
X118026184Y-112687000D01*
X118193816Y-112687000D01*
X118358228Y-112719703D01*
G37*
G36*
X107917242Y-112283404D02*
G01*
X107954337Y-112294657D01*
X107988515Y-112312925D01*
X108018481Y-112337519D01*
X108043075Y-112367485D01*
X108061343Y-112401663D01*
X108072596Y-112438758D01*
X108077000Y-112483474D01*
X108077000Y-113576526D01*
X108072596Y-113621242D01*
X108061343Y-113658337D01*
X108043075Y-113692515D01*
X108018481Y-113722481D01*
X107988515Y-113747075D01*
X107954337Y-113765343D01*
X107917242Y-113776596D01*
X107872526Y-113781000D01*
X106979474Y-113781000D01*
X106934758Y-113776596D01*
X106897663Y-113765343D01*
X106863485Y-113747075D01*
X106833519Y-113722481D01*
X106808925Y-113692515D01*
X106790657Y-113658337D01*
X106779404Y-113621242D01*
X106775000Y-113576526D01*
X106775000Y-112483474D01*
X106779404Y-112438758D01*
X106790657Y-112401663D01*
X106808925Y-112367485D01*
X106833519Y-112337519D01*
X106863485Y-112312925D01*
X106897663Y-112294657D01*
X106934758Y-112283404D01*
X106979474Y-112279000D01*
X107872526Y-112279000D01*
X107917242Y-112283404D01*
G37*
G36*
X105917242Y-112283404D02*
G01*
X105954337Y-112294657D01*
X105988515Y-112312925D01*
X106018481Y-112337519D01*
X106043075Y-112367485D01*
X106061343Y-112401663D01*
X106072596Y-112438758D01*
X106077000Y-112483474D01*
X106077000Y-113576526D01*
X106072596Y-113621242D01*
X106061343Y-113658337D01*
X106043075Y-113692515D01*
X106018481Y-113722481D01*
X105988515Y-113747075D01*
X105954337Y-113765343D01*
X105917242Y-113776596D01*
X105872526Y-113781000D01*
X104979474Y-113781000D01*
X104934758Y-113776596D01*
X104897663Y-113765343D01*
X104863485Y-113747075D01*
X104833519Y-113722481D01*
X104808925Y-113692515D01*
X104790657Y-113658337D01*
X104779404Y-113621242D01*
X104775000Y-113576526D01*
X104775000Y-112483474D01*
X104779404Y-112438758D01*
X104790657Y-112401663D01*
X104808925Y-112367485D01*
X104833519Y-112337519D01*
X104863485Y-112312925D01*
X104897663Y-112294657D01*
X104934758Y-112283404D01*
X104979474Y-112279000D01*
X105872526Y-112279000D01*
X105917242Y-112283404D01*
G37*
G36*
X98919512Y-111879927D02*
G01*
X99068812Y-111909624D01*
X99232784Y-111977544D01*
X99380354Y-112076147D01*
X99505853Y-112201646D01*
X99604456Y-112349216D01*
X99672376Y-112513188D01*
X99702073Y-112662488D01*
X99706949Y-112687000D01*
X99707000Y-112687259D01*
X99707000Y-112864741D01*
X99672376Y-113038812D01*
X99604456Y-113202784D01*
X99505853Y-113350354D01*
X99380354Y-113475853D01*
X99232784Y-113574456D01*
X99068812Y-113642376D01*
X98919512Y-113672073D01*
X98894742Y-113677000D01*
X98717258Y-113677000D01*
X98692488Y-113672073D01*
X98543188Y-113642376D01*
X98379216Y-113574456D01*
X98231646Y-113475853D01*
X98106147Y-113350354D01*
X98007544Y-113202784D01*
X97939624Y-113038812D01*
X97905000Y-112864741D01*
X97905000Y-112687259D01*
X97905052Y-112687000D01*
X97909927Y-112662488D01*
X97939624Y-112513188D01*
X98007544Y-112349216D01*
X98106147Y-112201646D01*
X98231646Y-112076147D01*
X98379216Y-111977544D01*
X98543188Y-111909624D01*
X98692488Y-111879927D01*
X98717258Y-111875000D01*
X98894742Y-111875000D01*
X98919512Y-111879927D01*
G37*
G36*
X96493512Y-110343927D02*
G01*
X96642812Y-110373624D01*
X96806784Y-110441544D01*
X96954354Y-110540147D01*
X97079853Y-110665646D01*
X97178456Y-110813216D01*
X97246376Y-110977188D01*
X97281000Y-111151259D01*
X97281000Y-111328741D01*
X97246376Y-111502812D01*
X97178456Y-111666784D01*
X97079853Y-111814354D01*
X96954354Y-111939853D01*
X96806784Y-112038456D01*
X96642812Y-112106376D01*
X96493512Y-112136073D01*
X96468742Y-112141000D01*
X96291258Y-112141000D01*
X96266488Y-112136073D01*
X96117188Y-112106376D01*
X95953216Y-112038456D01*
X95805646Y-111939853D01*
X95680147Y-111814354D01*
X95581544Y-111666784D01*
X95513624Y-111502812D01*
X95479000Y-111328741D01*
X95479000Y-111151259D01*
X95513624Y-110977188D01*
X95581544Y-110813216D01*
X95680147Y-110665646D01*
X95805646Y-110540147D01*
X95953216Y-110441544D01*
X96117188Y-110373624D01*
X96266488Y-110343927D01*
X96291258Y-110339000D01*
X96468742Y-110339000D01*
X96493512Y-110343927D01*
G37*
G36*
X93953512Y-110343927D02*
G01*
X94102812Y-110373624D01*
X94266784Y-110441544D01*
X94414354Y-110540147D01*
X94539853Y-110665646D01*
X94638456Y-110813216D01*
X94706376Y-110977188D01*
X94741000Y-111151259D01*
X94741000Y-111328741D01*
X94706376Y-111502812D01*
X94638456Y-111666784D01*
X94539853Y-111814354D01*
X94414354Y-111939853D01*
X94266784Y-112038456D01*
X94102812Y-112106376D01*
X93953512Y-112136073D01*
X93928742Y-112141000D01*
X93751258Y-112141000D01*
X93726488Y-112136073D01*
X93577188Y-112106376D01*
X93413216Y-112038456D01*
X93265646Y-111939853D01*
X93140147Y-111814354D01*
X93041544Y-111666784D01*
X92973624Y-111502812D01*
X92939000Y-111328741D01*
X92939000Y-111151259D01*
X92973624Y-110977188D01*
X93041544Y-110813216D01*
X93140147Y-110665646D01*
X93265646Y-110540147D01*
X93413216Y-110441544D01*
X93577188Y-110373624D01*
X93726488Y-110343927D01*
X93751258Y-110339000D01*
X93928742Y-110339000D01*
X93953512Y-110343927D01*
G37*
G36*
X131312228Y-110179703D02*
G01*
X131467100Y-110243853D01*
X131606481Y-110336985D01*
X131725015Y-110455519D01*
X131818147Y-110594900D01*
X131882297Y-110749772D01*
X131915000Y-110914184D01*
X131915000Y-111081816D01*
X131882297Y-111246228D01*
X131818147Y-111401100D01*
X131725015Y-111540481D01*
X131606481Y-111659015D01*
X131467100Y-111752147D01*
X131312228Y-111816297D01*
X131147816Y-111849000D01*
X130980184Y-111849000D01*
X130815772Y-111816297D01*
X130660900Y-111752147D01*
X130521519Y-111659015D01*
X130402985Y-111540481D01*
X130309853Y-111401100D01*
X130245703Y-111246228D01*
X130213000Y-111081816D01*
X130213000Y-110914184D01*
X130245703Y-110749772D01*
X130309853Y-110594900D01*
X130402985Y-110455519D01*
X130521519Y-110336985D01*
X130660900Y-110243853D01*
X130815772Y-110179703D01*
X130980184Y-110147000D01*
X131147816Y-110147000D01*
X131312228Y-110179703D01*
G37*
G36*
X128772228Y-110179703D02*
G01*
X128927100Y-110243853D01*
X129066481Y-110336985D01*
X129185015Y-110455519D01*
X129278147Y-110594900D01*
X129342297Y-110749772D01*
X129375000Y-110914184D01*
X129375000Y-111081816D01*
X129342297Y-111246228D01*
X129278147Y-111401100D01*
X129185015Y-111540481D01*
X129066481Y-111659015D01*
X128927100Y-111752147D01*
X128772228Y-111816297D01*
X128607816Y-111849000D01*
X128440184Y-111849000D01*
X128275772Y-111816297D01*
X128120900Y-111752147D01*
X127981519Y-111659015D01*
X127862985Y-111540481D01*
X127769853Y-111401100D01*
X127705703Y-111246228D01*
X127673000Y-111081816D01*
X127673000Y-110914184D01*
X127705703Y-110749772D01*
X127769853Y-110594900D01*
X127862985Y-110455519D01*
X127981519Y-110336985D01*
X128120900Y-110243853D01*
X128275772Y-110179703D01*
X128440184Y-110147000D01*
X128607816Y-110147000D01*
X128772228Y-110179703D01*
G37*
G36*
X126232228Y-110179703D02*
G01*
X126387100Y-110243853D01*
X126526481Y-110336985D01*
X126645015Y-110455519D01*
X126738147Y-110594900D01*
X126802297Y-110749772D01*
X126835000Y-110914184D01*
X126835000Y-111081816D01*
X126802297Y-111246228D01*
X126738147Y-111401100D01*
X126645015Y-111540481D01*
X126526481Y-111659015D01*
X126387100Y-111752147D01*
X126232228Y-111816297D01*
X126067816Y-111849000D01*
X125900184Y-111849000D01*
X125735772Y-111816297D01*
X125580900Y-111752147D01*
X125441519Y-111659015D01*
X125322985Y-111540481D01*
X125229853Y-111401100D01*
X125165703Y-111246228D01*
X125133000Y-111081816D01*
X125133000Y-110914184D01*
X125165703Y-110749772D01*
X125229853Y-110594900D01*
X125322985Y-110455519D01*
X125441519Y-110336985D01*
X125580900Y-110243853D01*
X125735772Y-110179703D01*
X125900184Y-110147000D01*
X126067816Y-110147000D01*
X126232228Y-110179703D01*
G37*
G36*
X123692228Y-110179703D02*
G01*
X123847100Y-110243853D01*
X123986481Y-110336985D01*
X124105015Y-110455519D01*
X124198147Y-110594900D01*
X124262297Y-110749772D01*
X124295000Y-110914184D01*
X124295000Y-111081816D01*
X124262297Y-111246228D01*
X124198147Y-111401100D01*
X124105015Y-111540481D01*
X123986481Y-111659015D01*
X123847100Y-111752147D01*
X123692228Y-111816297D01*
X123527816Y-111849000D01*
X123360184Y-111849000D01*
X123195772Y-111816297D01*
X123040900Y-111752147D01*
X122901519Y-111659015D01*
X122782985Y-111540481D01*
X122689853Y-111401100D01*
X122625703Y-111246228D01*
X122593000Y-111081816D01*
X122593000Y-110914184D01*
X122625703Y-110749772D01*
X122689853Y-110594900D01*
X122782985Y-110455519D01*
X122901519Y-110336985D01*
X123040900Y-110243853D01*
X123195772Y-110179703D01*
X123360184Y-110147000D01*
X123527816Y-110147000D01*
X123692228Y-110179703D01*
G37*
G36*
X121152228Y-110179703D02*
G01*
X121307100Y-110243853D01*
X121446481Y-110336985D01*
X121565015Y-110455519D01*
X121658147Y-110594900D01*
X121722297Y-110749772D01*
X121755000Y-110914184D01*
X121755000Y-111081816D01*
X121722297Y-111246228D01*
X121658147Y-111401100D01*
X121565015Y-111540481D01*
X121446481Y-111659015D01*
X121307100Y-111752147D01*
X121152228Y-111816297D01*
X120987816Y-111849000D01*
X120820184Y-111849000D01*
X120655772Y-111816297D01*
X120500900Y-111752147D01*
X120361519Y-111659015D01*
X120242985Y-111540481D01*
X120149853Y-111401100D01*
X120085703Y-111246228D01*
X120053000Y-111081816D01*
X120053000Y-110914184D01*
X120085703Y-110749772D01*
X120149853Y-110594900D01*
X120242985Y-110455519D01*
X120361519Y-110336985D01*
X120500900Y-110243853D01*
X120655772Y-110179703D01*
X120820184Y-110147000D01*
X120987816Y-110147000D01*
X121152228Y-110179703D01*
G37*
G36*
X118612228Y-110179703D02*
G01*
X118767100Y-110243853D01*
X118906481Y-110336985D01*
X119025015Y-110455519D01*
X119118147Y-110594900D01*
X119182297Y-110749772D01*
X119215000Y-110914184D01*
X119215000Y-111081816D01*
X119182297Y-111246228D01*
X119118147Y-111401100D01*
X119025015Y-111540481D01*
X118906481Y-111659015D01*
X118767100Y-111752147D01*
X118612228Y-111816297D01*
X118447816Y-111849000D01*
X118280184Y-111849000D01*
X118115772Y-111816297D01*
X117960900Y-111752147D01*
X117821519Y-111659015D01*
X117702985Y-111540481D01*
X117609853Y-111401100D01*
X117545703Y-111246228D01*
X117513000Y-111081816D01*
X117513000Y-110914184D01*
X117545703Y-110749772D01*
X117609853Y-110594900D01*
X117702985Y-110455519D01*
X117821519Y-110336985D01*
X117960900Y-110243853D01*
X118115772Y-110179703D01*
X118280184Y-110147000D01*
X118447816Y-110147000D01*
X118612228Y-110179703D01*
G37*
G36*
X116072228Y-110179703D02*
G01*
X116227100Y-110243853D01*
X116366481Y-110336985D01*
X116485015Y-110455519D01*
X116578147Y-110594900D01*
X116642297Y-110749772D01*
X116675000Y-110914184D01*
X116675000Y-111081816D01*
X116642297Y-111246228D01*
X116578147Y-111401100D01*
X116485015Y-111540481D01*
X116366481Y-111659015D01*
X116227100Y-111752147D01*
X116072228Y-111816297D01*
X115907816Y-111849000D01*
X115740184Y-111849000D01*
X115575772Y-111816297D01*
X115420900Y-111752147D01*
X115281519Y-111659015D01*
X115162985Y-111540481D01*
X115069853Y-111401100D01*
X115005703Y-111246228D01*
X114973000Y-111081816D01*
X114973000Y-110914184D01*
X115005703Y-110749772D01*
X115069853Y-110594900D01*
X115162985Y-110455519D01*
X115281519Y-110336985D01*
X115420900Y-110243853D01*
X115575772Y-110179703D01*
X115740184Y-110147000D01*
X115907816Y-110147000D01*
X116072228Y-110179703D01*
G37*
G36*
X113532228Y-110179703D02*
G01*
X113687100Y-110243853D01*
X113826481Y-110336985D01*
X113945015Y-110455519D01*
X114038147Y-110594900D01*
X114102297Y-110749772D01*
X114135000Y-110914184D01*
X114135000Y-111081816D01*
X114102297Y-111246228D01*
X114038147Y-111401100D01*
X113945015Y-111540481D01*
X113826481Y-111659015D01*
X113687100Y-111752147D01*
X113532228Y-111816297D01*
X113367816Y-111849000D01*
X113200184Y-111849000D01*
X113035772Y-111816297D01*
X112880900Y-111752147D01*
X112741519Y-111659015D01*
X112622985Y-111540481D01*
X112529853Y-111401100D01*
X112465703Y-111246228D01*
X112433000Y-111081816D01*
X112433000Y-110914184D01*
X112465703Y-110749772D01*
X112529853Y-110594900D01*
X112622985Y-110455519D01*
X112741519Y-110336985D01*
X112880900Y-110243853D01*
X113035772Y-110179703D01*
X113200184Y-110147000D01*
X113367816Y-110147000D01*
X113532228Y-110179703D01*
G37*
G36*
X98919512Y-109339927D02*
G01*
X99068812Y-109369624D01*
X99232784Y-109437544D01*
X99380354Y-109536147D01*
X99505853Y-109661646D01*
X99604456Y-109809216D01*
X99672376Y-109973188D01*
X99702073Y-110122488D01*
X99706949Y-110147000D01*
X99707000Y-110147259D01*
X99707000Y-110324741D01*
X99672376Y-110498812D01*
X99604456Y-110662784D01*
X99505853Y-110810354D01*
X99380354Y-110935853D01*
X99232784Y-111034456D01*
X99068812Y-111102376D01*
X98919512Y-111132073D01*
X98894742Y-111137000D01*
X98717258Y-111137000D01*
X98692488Y-111132073D01*
X98543188Y-111102376D01*
X98379216Y-111034456D01*
X98231646Y-110935853D01*
X98106147Y-110810354D01*
X98007544Y-110662784D01*
X97939624Y-110498812D01*
X97905000Y-110324741D01*
X97905000Y-110147259D01*
X97905052Y-110147000D01*
X97909927Y-110122488D01*
X97939624Y-109973188D01*
X98007544Y-109809216D01*
X98106147Y-109661646D01*
X98231646Y-109536147D01*
X98379216Y-109437544D01*
X98543188Y-109369624D01*
X98692488Y-109339927D01*
X98717258Y-109335000D01*
X98894742Y-109335000D01*
X98919512Y-109339927D01*
G37*
G36*
X93947604Y-107802752D02*
G01*
X94102812Y-107833624D01*
X94266784Y-107901544D01*
X94414354Y-108000147D01*
X94539853Y-108125646D01*
X94638456Y-108273216D01*
X94706376Y-108437188D01*
X94741000Y-108611259D01*
X94741000Y-108788741D01*
X94706376Y-108962812D01*
X94638456Y-109126784D01*
X94539853Y-109274354D01*
X94414354Y-109399853D01*
X94266784Y-109498456D01*
X94102812Y-109566376D01*
X93953512Y-109596073D01*
X93928742Y-109601000D01*
X93751258Y-109601000D01*
X93726488Y-109596073D01*
X93577188Y-109566376D01*
X93413216Y-109498456D01*
X93265646Y-109399853D01*
X93140147Y-109274354D01*
X93041544Y-109126784D01*
X92973624Y-108962812D01*
X92939000Y-108788741D01*
X92939000Y-108611259D01*
X92973624Y-108437188D01*
X93041544Y-108273216D01*
X93140147Y-108125646D01*
X93265646Y-108000147D01*
X93413216Y-107901544D01*
X93577188Y-107833624D01*
X93732396Y-107802752D01*
X93751258Y-107799000D01*
X93928742Y-107799000D01*
X93947604Y-107802752D01*
G37*
G36*
X96487604Y-107802752D02*
G01*
X96642812Y-107833624D01*
X96806784Y-107901544D01*
X96954354Y-108000147D01*
X97079853Y-108125646D01*
X97178456Y-108273216D01*
X97246376Y-108437188D01*
X97281000Y-108611259D01*
X97281000Y-108788741D01*
X97246376Y-108962812D01*
X97178456Y-109126784D01*
X97079853Y-109274354D01*
X96954354Y-109399853D01*
X96806784Y-109498456D01*
X96642812Y-109566376D01*
X96493512Y-109596073D01*
X96468742Y-109601000D01*
X96291258Y-109601000D01*
X96266488Y-109596073D01*
X96117188Y-109566376D01*
X95953216Y-109498456D01*
X95805646Y-109399853D01*
X95680147Y-109274354D01*
X95581544Y-109126784D01*
X95513624Y-108962812D01*
X95479000Y-108788741D01*
X95479000Y-108611259D01*
X95513624Y-108437188D01*
X95581544Y-108273216D01*
X95680147Y-108125646D01*
X95805646Y-108000147D01*
X95953216Y-107901544D01*
X96117188Y-107833624D01*
X96272396Y-107802752D01*
X96291258Y-107799000D01*
X96468742Y-107799000D01*
X96487604Y-107802752D01*
G37*
G36*
X105908983Y-107686434D02*
G01*
X105946372Y-107697776D01*
X105980826Y-107716191D01*
X106011025Y-107740975D01*
X106035809Y-107771174D01*
X106054224Y-107805628D01*
X106065566Y-107843017D01*
X106070000Y-107888035D01*
X106070000Y-109027965D01*
X106065566Y-109072983D01*
X106054224Y-109110372D01*
X106035809Y-109144826D01*
X106011025Y-109175025D01*
X105980826Y-109199809D01*
X105946372Y-109218224D01*
X105908983Y-109229566D01*
X105863965Y-109234000D01*
X104999035Y-109234000D01*
X104954017Y-109229566D01*
X104916628Y-109218224D01*
X104882174Y-109199809D01*
X104851975Y-109175025D01*
X104827191Y-109144826D01*
X104808776Y-109110372D01*
X104797434Y-109072983D01*
X104793000Y-109027965D01*
X104793000Y-107888035D01*
X104797434Y-107843017D01*
X104808776Y-107805628D01*
X104827191Y-107771174D01*
X104851975Y-107740975D01*
X104882174Y-107716191D01*
X104916628Y-107697776D01*
X104954017Y-107686434D01*
X104999035Y-107682000D01*
X105863965Y-107682000D01*
X105908983Y-107686434D01*
G37*
G36*
X103833983Y-107686434D02*
G01*
X103871372Y-107697776D01*
X103905826Y-107716191D01*
X103936025Y-107740975D01*
X103960809Y-107771174D01*
X103979224Y-107805628D01*
X103990566Y-107843017D01*
X103995000Y-107888035D01*
X103995000Y-109027965D01*
X103990566Y-109072983D01*
X103979224Y-109110372D01*
X103960809Y-109144826D01*
X103936025Y-109175025D01*
X103905826Y-109199809D01*
X103871372Y-109218224D01*
X103833983Y-109229566D01*
X103788965Y-109234000D01*
X102924035Y-109234000D01*
X102879017Y-109229566D01*
X102841628Y-109218224D01*
X102807174Y-109199809D01*
X102776975Y-109175025D01*
X102752191Y-109144826D01*
X102733776Y-109110372D01*
X102722434Y-109072983D01*
X102718000Y-109027965D01*
X102718000Y-107888035D01*
X102722434Y-107843017D01*
X102733776Y-107805628D01*
X102752191Y-107771174D01*
X102776975Y-107740975D01*
X102807174Y-107716191D01*
X102841628Y-107697776D01*
X102879017Y-107686434D01*
X102924035Y-107682000D01*
X103788965Y-107682000D01*
X103833983Y-107686434D01*
G37*
G36*
X98919512Y-106799927D02*
G01*
X99068812Y-106829624D01*
X99232784Y-106897544D01*
X99380354Y-106996147D01*
X99505853Y-107121646D01*
X99604456Y-107269216D01*
X99672376Y-107433188D01*
X99702073Y-107582488D01*
X99707000Y-107607258D01*
X99707000Y-107784742D01*
X99702845Y-107805628D01*
X99672376Y-107958812D01*
X99604456Y-108122784D01*
X99505853Y-108270354D01*
X99380354Y-108395853D01*
X99232784Y-108494456D01*
X99068812Y-108562376D01*
X98919512Y-108592073D01*
X98894742Y-108597000D01*
X98717258Y-108597000D01*
X98692488Y-108592073D01*
X98543188Y-108562376D01*
X98379216Y-108494456D01*
X98231646Y-108395853D01*
X98106147Y-108270354D01*
X98007544Y-108122784D01*
X97939624Y-107958812D01*
X97909155Y-107805628D01*
X97905000Y-107784742D01*
X97905000Y-107607258D01*
X97909927Y-107582488D01*
X97939624Y-107433188D01*
X98007544Y-107269216D01*
X98106147Y-107121646D01*
X98231646Y-106996147D01*
X98379216Y-106897544D01*
X98543188Y-106829624D01*
X98692488Y-106799927D01*
X98717258Y-106795000D01*
X98894742Y-106795000D01*
X98919512Y-106799927D01*
G37*
G36*
X93953512Y-105263927D02*
G01*
X94102812Y-105293624D01*
X94266784Y-105361544D01*
X94414354Y-105460147D01*
X94539853Y-105585646D01*
X94638456Y-105733216D01*
X94706376Y-105897188D01*
X94741000Y-106071259D01*
X94741000Y-106248741D01*
X94706376Y-106422812D01*
X94638456Y-106586784D01*
X94539853Y-106734354D01*
X94414354Y-106859853D01*
X94266784Y-106958456D01*
X94102812Y-107026376D01*
X93953512Y-107056073D01*
X93928742Y-107061000D01*
X93751258Y-107061000D01*
X93726488Y-107056073D01*
X93577188Y-107026376D01*
X93413216Y-106958456D01*
X93265646Y-106859853D01*
X93140147Y-106734354D01*
X93041544Y-106586784D01*
X92973624Y-106422812D01*
X92939000Y-106248741D01*
X92939000Y-106071259D01*
X92973624Y-105897188D01*
X93041544Y-105733216D01*
X93140147Y-105585646D01*
X93265646Y-105460147D01*
X93413216Y-105361544D01*
X93577188Y-105293624D01*
X93726488Y-105263927D01*
X93751258Y-105259000D01*
X93928742Y-105259000D01*
X93953512Y-105263927D01*
G37*
G36*
X96493512Y-105263927D02*
G01*
X96642812Y-105293624D01*
X96806784Y-105361544D01*
X96954354Y-105460147D01*
X97079853Y-105585646D01*
X97178456Y-105733216D01*
X97246376Y-105897188D01*
X97281000Y-106071259D01*
X97281000Y-106248741D01*
X97246376Y-106422812D01*
X97178456Y-106586784D01*
X97079853Y-106734354D01*
X96954354Y-106859853D01*
X96806784Y-106958456D01*
X96642812Y-107026376D01*
X96493512Y-107056073D01*
X96468742Y-107061000D01*
X96291258Y-107061000D01*
X96266488Y-107056073D01*
X96117188Y-107026376D01*
X95953216Y-106958456D01*
X95805646Y-106859853D01*
X95680147Y-106734354D01*
X95581544Y-106586784D01*
X95513624Y-106422812D01*
X95479000Y-106248741D01*
X95479000Y-106071259D01*
X95513624Y-105897188D01*
X95581544Y-105733216D01*
X95680147Y-105585646D01*
X95805646Y-105460147D01*
X95953216Y-105361544D01*
X96117188Y-105293624D01*
X96266488Y-105263927D01*
X96291258Y-105259000D01*
X96468742Y-105259000D01*
X96493512Y-105263927D01*
G37*
G36*
X108425242Y-105425404D02*
G01*
X108462337Y-105436657D01*
X108496515Y-105454925D01*
X108526481Y-105479519D01*
X108551075Y-105509485D01*
X108569343Y-105543663D01*
X108580596Y-105580758D01*
X108585000Y-105625474D01*
X108585000Y-106718526D01*
X108580596Y-106763242D01*
X108569343Y-106800337D01*
X108551075Y-106834515D01*
X108526481Y-106864481D01*
X108496515Y-106889075D01*
X108462337Y-106907343D01*
X108425242Y-106918596D01*
X108380526Y-106923000D01*
X107487474Y-106923000D01*
X107442758Y-106918596D01*
X107405663Y-106907343D01*
X107371485Y-106889075D01*
X107341519Y-106864481D01*
X107316925Y-106834515D01*
X107298657Y-106800337D01*
X107287404Y-106763242D01*
X107283000Y-106718526D01*
X107283000Y-105625474D01*
X107287404Y-105580758D01*
X107298657Y-105543663D01*
X107316925Y-105509485D01*
X107341519Y-105479519D01*
X107371485Y-105454925D01*
X107405663Y-105436657D01*
X107442758Y-105425404D01*
X107487474Y-105421000D01*
X108380526Y-105421000D01*
X108425242Y-105425404D01*
G37*
G36*
X106425242Y-105425404D02*
G01*
X106462337Y-105436657D01*
X106496515Y-105454925D01*
X106526481Y-105479519D01*
X106551075Y-105509485D01*
X106569343Y-105543663D01*
X106580596Y-105580758D01*
X106585000Y-105625474D01*
X106585000Y-106718526D01*
X106580596Y-106763242D01*
X106569343Y-106800337D01*
X106551075Y-106834515D01*
X106526481Y-106864481D01*
X106496515Y-106889075D01*
X106462337Y-106907343D01*
X106425242Y-106918596D01*
X106380526Y-106923000D01*
X105487474Y-106923000D01*
X105442758Y-106918596D01*
X105405663Y-106907343D01*
X105371485Y-106889075D01*
X105341519Y-106864481D01*
X105316925Y-106834515D01*
X105298657Y-106800337D01*
X105287404Y-106763242D01*
X105283000Y-106718526D01*
X105283000Y-105625474D01*
X105287404Y-105580758D01*
X105298657Y-105543663D01*
X105316925Y-105509485D01*
X105341519Y-105479519D01*
X105371485Y-105454925D01*
X105405663Y-105436657D01*
X105442758Y-105425404D01*
X105487474Y-105421000D01*
X106380526Y-105421000D01*
X106425242Y-105425404D01*
G37*
G36*
X103980242Y-105298404D02*
G01*
X104017337Y-105309657D01*
X104051515Y-105327925D01*
X104081481Y-105352519D01*
X104106075Y-105382485D01*
X104124343Y-105416663D01*
X104135596Y-105453758D01*
X104140000Y-105498474D01*
X104140000Y-106591526D01*
X104135596Y-106636242D01*
X104124343Y-106673337D01*
X104106075Y-106707515D01*
X104081481Y-106737481D01*
X104051515Y-106762075D01*
X104017337Y-106780343D01*
X103980242Y-106791596D01*
X103935526Y-106796000D01*
X103042474Y-106796000D01*
X102997758Y-106791596D01*
X102960663Y-106780343D01*
X102926485Y-106762075D01*
X102896519Y-106737481D01*
X102871925Y-106707515D01*
X102853657Y-106673337D01*
X102842404Y-106636242D01*
X102838000Y-106591526D01*
X102838000Y-105498474D01*
X102842404Y-105453758D01*
X102853657Y-105416663D01*
X102871925Y-105382485D01*
X102896519Y-105352519D01*
X102926485Y-105327925D01*
X102960663Y-105309657D01*
X102997758Y-105298404D01*
X103042474Y-105294000D01*
X103935526Y-105294000D01*
X103980242Y-105298404D01*
G37*
G36*
X101980242Y-105298404D02*
G01*
X102017337Y-105309657D01*
X102051515Y-105327925D01*
X102081481Y-105352519D01*
X102106075Y-105382485D01*
X102124343Y-105416663D01*
X102135596Y-105453758D01*
X102140000Y-105498474D01*
X102140000Y-106591526D01*
X102135596Y-106636242D01*
X102124343Y-106673337D01*
X102106075Y-106707515D01*
X102081481Y-106737481D01*
X102051515Y-106762075D01*
X102017337Y-106780343D01*
X101980242Y-106791596D01*
X101935526Y-106796000D01*
X101042474Y-106796000D01*
X100997758Y-106791596D01*
X100960663Y-106780343D01*
X100926485Y-106762075D01*
X100896519Y-106737481D01*
X100871925Y-106707515D01*
X100853657Y-106673337D01*
X100842404Y-106636242D01*
X100838000Y-106591526D01*
X100838000Y-105498474D01*
X100842404Y-105453758D01*
X100853657Y-105416663D01*
X100871925Y-105382485D01*
X100896519Y-105352519D01*
X100926485Y-105327925D01*
X100960663Y-105309657D01*
X100997758Y-105298404D01*
X101042474Y-105294000D01*
X101935526Y-105294000D01*
X101980242Y-105298404D01*
G37*
G36*
X99707000Y-106057000D02*
G01*
X97905000Y-106057000D01*
X97905000Y-104255000D01*
X99707000Y-104255000D01*
X99707000Y-106057000D01*
G37*
G36*
X106425242Y-103139404D02*
G01*
X106462337Y-103150657D01*
X106496515Y-103168925D01*
X106526481Y-103193519D01*
X106551075Y-103223485D01*
X106569343Y-103257663D01*
X106580596Y-103294758D01*
X106585000Y-103339474D01*
X106585000Y-104432526D01*
X106580596Y-104477242D01*
X106569343Y-104514337D01*
X106551075Y-104548515D01*
X106526481Y-104578481D01*
X106496515Y-104603075D01*
X106462337Y-104621343D01*
X106425242Y-104632596D01*
X106380526Y-104637000D01*
X105487474Y-104637000D01*
X105442758Y-104632596D01*
X105405663Y-104621343D01*
X105371485Y-104603075D01*
X105341519Y-104578481D01*
X105316925Y-104548515D01*
X105298657Y-104514337D01*
X105287404Y-104477242D01*
X105283000Y-104432526D01*
X105283000Y-103339474D01*
X105287404Y-103294758D01*
X105298657Y-103257663D01*
X105316925Y-103223485D01*
X105341519Y-103193519D01*
X105371485Y-103168925D01*
X105405663Y-103150657D01*
X105442758Y-103139404D01*
X105487474Y-103135000D01*
X106380526Y-103135000D01*
X106425242Y-103139404D01*
G37*
G36*
X108425242Y-103139404D02*
G01*
X108462337Y-103150657D01*
X108496515Y-103168925D01*
X108526481Y-103193519D01*
X108551075Y-103223485D01*
X108569343Y-103257663D01*
X108580596Y-103294758D01*
X108585000Y-103339474D01*
X108585000Y-104432526D01*
X108580596Y-104477242D01*
X108569343Y-104514337D01*
X108551075Y-104548515D01*
X108526481Y-104578481D01*
X108496515Y-104603075D01*
X108462337Y-104621343D01*
X108425242Y-104632596D01*
X108380526Y-104637000D01*
X107487474Y-104637000D01*
X107442758Y-104632596D01*
X107405663Y-104621343D01*
X107371485Y-104603075D01*
X107341519Y-104578481D01*
X107316925Y-104548515D01*
X107298657Y-104514337D01*
X107287404Y-104477242D01*
X107283000Y-104432526D01*
X107283000Y-103339474D01*
X107287404Y-103294758D01*
X107298657Y-103257663D01*
X107316925Y-103223485D01*
X107341519Y-103193519D01*
X107371485Y-103168925D01*
X107405663Y-103150657D01*
X107442758Y-103139404D01*
X107487474Y-103135000D01*
X108380526Y-103135000D01*
X108425242Y-103139404D01*
G37*
G36*
X97281000Y-104601000D02*
G01*
X95479000Y-104601000D01*
X95479000Y-102799000D01*
X97281000Y-102799000D01*
X97281000Y-104601000D01*
G37*
G36*
X93953512Y-102723927D02*
G01*
X94102812Y-102753624D01*
X94266784Y-102821544D01*
X94414354Y-102920147D01*
X94539853Y-103045646D01*
X94638456Y-103193216D01*
X94706376Y-103357188D01*
X94741000Y-103531259D01*
X94741000Y-103708741D01*
X94706376Y-103882812D01*
X94638456Y-104046784D01*
X94539853Y-104194354D01*
X94414354Y-104319853D01*
X94266784Y-104418456D01*
X94102812Y-104486376D01*
X93962239Y-104514337D01*
X93928742Y-104521000D01*
X93751258Y-104521000D01*
X93717761Y-104514337D01*
X93577188Y-104486376D01*
X93413216Y-104418456D01*
X93265646Y-104319853D01*
X93140147Y-104194354D01*
X93041544Y-104046784D01*
X92973624Y-103882812D01*
X92939000Y-103708741D01*
X92939000Y-103531259D01*
X92973624Y-103357188D01*
X93041544Y-103193216D01*
X93140147Y-103045646D01*
X93265646Y-102920147D01*
X93413216Y-102821544D01*
X93577188Y-102753624D01*
X93726488Y-102723927D01*
X93751258Y-102719000D01*
X93928742Y-102719000D01*
X93953512Y-102723927D01*
G37*
G36*
X123692228Y-102559703D02*
G01*
X123847100Y-102623853D01*
X123986481Y-102716985D01*
X124105015Y-102835519D01*
X124198147Y-102974900D01*
X124262297Y-103129772D01*
X124295000Y-103294184D01*
X124295000Y-103461816D01*
X124262297Y-103626228D01*
X124198147Y-103781100D01*
X124105015Y-103920481D01*
X123986481Y-104039015D01*
X123847100Y-104132147D01*
X123692228Y-104196297D01*
X123527816Y-104229000D01*
X123360184Y-104229000D01*
X123195772Y-104196297D01*
X123040900Y-104132147D01*
X122901519Y-104039015D01*
X122782985Y-103920481D01*
X122689853Y-103781100D01*
X122625703Y-103626228D01*
X122593000Y-103461816D01*
X122593000Y-103294184D01*
X122625703Y-103129772D01*
X122689853Y-102974900D01*
X122782985Y-102835519D01*
X122901519Y-102716985D01*
X123040900Y-102623853D01*
X123195772Y-102559703D01*
X123360184Y-102527000D01*
X123527816Y-102527000D01*
X123692228Y-102559703D01*
G37*
G36*
X121152228Y-102559703D02*
G01*
X121307100Y-102623853D01*
X121446481Y-102716985D01*
X121565015Y-102835519D01*
X121658147Y-102974900D01*
X121722297Y-103129772D01*
X121755000Y-103294184D01*
X121755000Y-103461816D01*
X121722297Y-103626228D01*
X121658147Y-103781100D01*
X121565015Y-103920481D01*
X121446481Y-104039015D01*
X121307100Y-104132147D01*
X121152228Y-104196297D01*
X120987816Y-104229000D01*
X120820184Y-104229000D01*
X120655772Y-104196297D01*
X120500900Y-104132147D01*
X120361519Y-104039015D01*
X120242985Y-103920481D01*
X120149853Y-103781100D01*
X120085703Y-103626228D01*
X120053000Y-103461816D01*
X120053000Y-103294184D01*
X120085703Y-103129772D01*
X120149853Y-102974900D01*
X120242985Y-102835519D01*
X120361519Y-102716985D01*
X120500900Y-102623853D01*
X120655772Y-102559703D01*
X120820184Y-102527000D01*
X120987816Y-102527000D01*
X121152228Y-102559703D01*
G37*
G36*
X126232228Y-102559703D02*
G01*
X126387100Y-102623853D01*
X126526481Y-102716985D01*
X126645015Y-102835519D01*
X126738147Y-102974900D01*
X126802297Y-103129772D01*
X126835000Y-103294184D01*
X126835000Y-103461816D01*
X126802297Y-103626228D01*
X126738147Y-103781100D01*
X126645015Y-103920481D01*
X126526481Y-104039015D01*
X126387100Y-104132147D01*
X126232228Y-104196297D01*
X126067816Y-104229000D01*
X125900184Y-104229000D01*
X125735772Y-104196297D01*
X125580900Y-104132147D01*
X125441519Y-104039015D01*
X125322985Y-103920481D01*
X125229853Y-103781100D01*
X125165703Y-103626228D01*
X125133000Y-103461816D01*
X125133000Y-103294184D01*
X125165703Y-103129772D01*
X125229853Y-102974900D01*
X125322985Y-102835519D01*
X125441519Y-102716985D01*
X125580900Y-102623853D01*
X125735772Y-102559703D01*
X125900184Y-102527000D01*
X126067816Y-102527000D01*
X126232228Y-102559703D01*
G37*
G36*
X128772228Y-102559703D02*
G01*
X128927100Y-102623853D01*
X129066481Y-102716985D01*
X129185015Y-102835519D01*
X129278147Y-102974900D01*
X129342297Y-103129772D01*
X129375000Y-103294184D01*
X129375000Y-103461816D01*
X129342297Y-103626228D01*
X129278147Y-103781100D01*
X129185015Y-103920481D01*
X129066481Y-104039015D01*
X128927100Y-104132147D01*
X128772228Y-104196297D01*
X128607816Y-104229000D01*
X128440184Y-104229000D01*
X128275772Y-104196297D01*
X128120900Y-104132147D01*
X127981519Y-104039015D01*
X127862985Y-103920481D01*
X127769853Y-103781100D01*
X127705703Y-103626228D01*
X127673000Y-103461816D01*
X127673000Y-103294184D01*
X127705703Y-103129772D01*
X127769853Y-102974900D01*
X127862985Y-102835519D01*
X127981519Y-102716985D01*
X128120900Y-102623853D01*
X128275772Y-102559703D01*
X128440184Y-102527000D01*
X128607816Y-102527000D01*
X128772228Y-102559703D01*
G37*
G36*
X118612228Y-102559703D02*
G01*
X118767100Y-102623853D01*
X118906481Y-102716985D01*
X119025015Y-102835519D01*
X119118147Y-102974900D01*
X119182297Y-103129772D01*
X119215000Y-103294184D01*
X119215000Y-103461816D01*
X119182297Y-103626228D01*
X119118147Y-103781100D01*
X119025015Y-103920481D01*
X118906481Y-104039015D01*
X118767100Y-104132147D01*
X118612228Y-104196297D01*
X118447816Y-104229000D01*
X118280184Y-104229000D01*
X118115772Y-104196297D01*
X117960900Y-104132147D01*
X117821519Y-104039015D01*
X117702985Y-103920481D01*
X117609853Y-103781100D01*
X117545703Y-103626228D01*
X117513000Y-103461816D01*
X117513000Y-103294184D01*
X117545703Y-103129772D01*
X117609853Y-102974900D01*
X117702985Y-102835519D01*
X117821519Y-102716985D01*
X117960900Y-102623853D01*
X118115772Y-102559703D01*
X118280184Y-102527000D01*
X118447816Y-102527000D01*
X118612228Y-102559703D01*
G37*
G36*
X131915000Y-104229000D02*
G01*
X130213000Y-104229000D01*
X130213000Y-102527000D01*
X131915000Y-102527000D01*
X131915000Y-104229000D01*
G37*
G36*
X116072228Y-102559703D02*
G01*
X116227100Y-102623853D01*
X116366481Y-102716985D01*
X116485015Y-102835519D01*
X116578147Y-102974900D01*
X116642297Y-103129772D01*
X116675000Y-103294184D01*
X116675000Y-103461816D01*
X116642297Y-103626228D01*
X116578147Y-103781100D01*
X116485015Y-103920481D01*
X116366481Y-104039015D01*
X116227100Y-104132147D01*
X116072228Y-104196297D01*
X115907816Y-104229000D01*
X115740184Y-104229000D01*
X115575772Y-104196297D01*
X115420900Y-104132147D01*
X115281519Y-104039015D01*
X115162985Y-103920481D01*
X115069853Y-103781100D01*
X115005703Y-103626228D01*
X114973000Y-103461816D01*
X114973000Y-103294184D01*
X115005703Y-103129772D01*
X115069853Y-102974900D01*
X115162985Y-102835519D01*
X115281519Y-102716985D01*
X115420900Y-102623853D01*
X115575772Y-102559703D01*
X115740184Y-102527000D01*
X115907816Y-102527000D01*
X116072228Y-102559703D01*
G37*
G36*
X113532228Y-102559703D02*
G01*
X113687100Y-102623853D01*
X113826481Y-102716985D01*
X113945015Y-102835519D01*
X114038147Y-102974900D01*
X114102297Y-103129772D01*
X114135000Y-103294184D01*
X114135000Y-103461816D01*
X114102297Y-103626228D01*
X114038147Y-103781100D01*
X113945015Y-103920481D01*
X113826481Y-104039015D01*
X113687100Y-104132147D01*
X113532228Y-104196297D01*
X113367816Y-104229000D01*
X113200184Y-104229000D01*
X113035772Y-104196297D01*
X112880900Y-104132147D01*
X112741519Y-104039015D01*
X112622985Y-103920481D01*
X112529853Y-103781100D01*
X112465703Y-103626228D01*
X112433000Y-103461816D01*
X112433000Y-103294184D01*
X112465703Y-103129772D01*
X112529853Y-102974900D01*
X112622985Y-102835519D01*
X112741519Y-102716985D01*
X112880900Y-102623853D01*
X113035772Y-102559703D01*
X113200184Y-102527000D01*
X113367816Y-102527000D01*
X113532228Y-102559703D01*
G37*
M02*
