M48
; DRILL file {KiCad 5.1.5+dfsg1-2build2} date Tue 08 Nov 2022 07:38:19 GMT
; FORMAT={-:-/ absolute / inch / decimal}
; #@! TF.CreationDate,2022-11-08T07:38:19+00:00
; #@! TF.GenerationSoftware,Kicad,Pcbnew,5.1.5+dfsg1-2build2
; #@! TF.FileFunction,Plated,1,4,PTH
FMAT,2
INCH
T1C0.0157
T2C0.0315
T3C0.0394
%
G90
G05
T1
X3.5465Y-4.33
X3.56Y-4.075
X3.575Y-4.23
X3.595Y-4.735
X3.6Y-4.645
X3.61Y-4.13
X3.61Y-4.28
X3.63Y-4.43
X3.63Y-4.78
X3.833Y-4.3365
X3.925Y-4.0615
X3.96Y-4.175
X3.96Y-4.675
X4.005Y-4.6082
X4.02Y-4.5511
X4.035Y-4.45
X4.1Y-4.805
X4.105Y-4.5189
X4.11Y-4.175
X4.12Y-4.09
X4.12Y-4.3399
X4.1219Y-4.4531
X4.17Y-4.81
X4.1715Y-4.73
X4.19Y-4.165
X4.2Y-4.5511
X4.2251Y-4.6589
X4.235Y-4.2695
X4.2365Y-4.33
X4.24Y-4.545
X4.265Y-4.215
X4.265Y-4.375
X4.28Y-4.085
X4.2838Y-4.4169
X4.295Y-4.33
X4.295Y-4.455
X4.3815Y-4.73
X4.405Y-4.21
X4.41Y-4.26
X4.44Y-4.73
X4.47Y-4.435
X4.4779Y-4.7408
X4.51Y-4.26
X4.52Y-4.575
X4.5562Y-4.5595
X4.56Y-4.2874
X4.61Y-4.3
X4.665Y-4.565
X4.74Y-4.575
X4.86Y-4.67
X4.905Y-4.17
X5.0Y-4.565
X5.015Y-4.15
X5.075Y-4.16
X5.19Y-4.62
T2
X4.46Y-4.07
X4.46Y-4.37
X4.56Y-4.07
X4.56Y-4.37
X4.66Y-4.07
X4.66Y-4.37
X4.76Y-4.07
X4.76Y-4.37
X4.86Y-4.07
X4.86Y-4.37
X4.96Y-4.07
X4.96Y-4.37
X5.06Y-4.07
X5.06Y-4.37
X5.16Y-4.07
X5.16Y-4.37
X4.55Y-4.47
X4.55Y-4.77
X4.65Y-4.47
X4.65Y-4.77
X4.75Y-4.47
X4.75Y-4.77
X4.85Y-4.47
X4.85Y-4.77
X4.95Y-4.47
X4.95Y-4.77
X5.05Y-4.47
X5.05Y-4.77
X5.15Y-4.47
X5.15Y-4.77
T3
X3.89Y-4.14
X3.89Y-4.24
X3.89Y-4.34
X3.89Y-4.44
X3.89Y-4.54
X3.89Y-4.64
X3.6945Y-4.0795
X3.6945Y-4.1795
X3.6945Y-4.2795
X3.6945Y-4.3795
X3.6945Y-4.4795
X3.6945Y-4.5795
X3.6945Y-4.6795
X3.6945Y-4.7795
X3.7945Y-4.0827
X3.7945Y-4.1795
X3.7945Y-4.2795
X3.7945Y-4.3795
X3.7945Y-4.4795
X3.7945Y-4.5795
X3.7945Y-4.6795
X3.7945Y-4.7795
T0
M30
